SplineFontDB: 3.0
FontName: CodeType-Regular
FullName: CodeType Regular
FamilyName: CodeType
Weight: Regular
Copyright: Copyright 2006 The Inconsolata Project Authors
Version: 1.0
ItalicAngle: 0
UnderlinePosition: -113
UnderlineWidth: 20
Ascent: 800
Descent: 200
sfntRevision: 0x00020000
LayerCount: 2
Layer: 0 0 "+gMyXYgAA"  1
Layer: 1 0 "+Uk2XYgAA"  0
XUID: [1021 608 1509974417 6927628]
FSType: 0
OS2Version: 4
OS2_WeightWidthSlopeOnly: 0
OS2_UseTypoMetrics: 0
CreationTime: 1472710287
ModificationTime: 1486621028
PfmFamily: 17
TTFWeight: 400
TTFWidth: 5
LineGap: 0
VLineGap: 0
Panose: 2 11 5 9 3 0 0 0 0 0
OS2TypoAscent: 693
OS2TypoAOffset: 0
OS2TypoDescent: -165
OS2TypoDOffset: 0
OS2TypoLinegap: 49
OS2WinAscent: 830
OS2WinAOffset: 0
OS2WinDescent: 170
OS2WinDOffset: 0
HheadAscent: 830
HheadAOffset: 0
HheadDescent: -170
HheadDOffset: 0
OS2SubXSize: 342
OS2SubYSize: 317
OS2SubXOff: 0
OS2SubYOff: 68
OS2SupXSize: 342
OS2SupYSize: 317
OS2SupXOff: 0
OS2SupYOff: 233
OS2StrikeYSize: 24
OS2StrikeYPos: 122
OS2Vendor: 'CYRE'
OS2CodePages: 20000193.00000000
OS2UnicodeRanges: 20000007.00000001.00000000.00000000
Lookup: 1 0 0 "'aalt' +MFkweTBmMG51cE9TW1cweDBuMKIwrzC7MLkA in +MOkwxjDzZYdbVwAA lookup 0"  {"'aalt' +MFkweTBmMG51cE9TW1cweDBuMKIwrzC7MLkA in +MOkwxjDzZYdbVwAA lookup 0 subtable"  } ['aalt' ('DFLT' <'dflt' > 'latn' <'AZE ' 'CAT ' 'CRT ' 'KAZ ' 'MOL ' 'ROM ' 'TAT ' 'TRK ' 'dflt' > ) ]
Lookup: 3 0 0 "'aalt' +MFkweTBmMG51cE9TW1cweDBuMKIwrzC7MLkA in +MOkwxjDzZYdbVwAA lookup 1"  {"'aalt' +MFkweTBmMG51cE9TW1cweDBuMKIwrzC7MLkA in +MOkwxjDzZYdbVwAA lookup 1 subtable"  } ['aalt' ('DFLT' <'dflt' > 'latn' <'AZE ' 'CAT ' 'CRT ' 'KAZ ' 'MOL ' 'ROM ' 'TAT ' 'TRK ' 'dflt' > ) ]

StartChar: exclam
Encoding: 33 33 4
Width: 500
GlyphClass: 2
Flags: W
LayerCount: 2
Fore
SplineSet
190 594 m 1
 190 617.333 194.5 635.5 203.5 648.5 c 0
 212.5 661.5 225 668 241 668 c 0
 275 668 292 640 292 584 c 1
 265 194 l 1
 215 194 l 1
 190 594 l 1
197.5 6 m 0
 185.833 17.333 180 31 180 47 c 0
 180 63 185.833 77 197.5 89 c 0
 209.167 101 223 107 239 107 c 0
 255 107 269 101 281 89 c 0
 293 77 299 63 299 47 c 0
 299 31.667 293 18.167 281 6.5 c 0
 269 -5.16699 255 -11 239 -11 c 0
 223 -11 209.167 -5.33301 197.5 6 c 0
EndSplineSet
EndChar

StartChar: quotedbl
Encoding: 34 34 5
Width: 500
GlyphClass: 2
Flags: W
LayerCount: 2
Fore
SplineSet
215 665 m 1
 215 609 214.167 567.832 212.5 541.499 c 0
 210.833 515.166 208.333 486.333 205 455 c 2
 199 407 l 1
 151 407 l 1
 145 455 l 2
 141.667 485 139.167 513.333 137.5 539.999 c 0
 135.833 566.667 135 608.334 135 665 c 1
 215 665 l 1
365 664.999 m 1
 365 608.999 364.167 567.832 362.5 541.499 c 0
 360.833 515.166 358.333 486.333 355 455 c 2
 349 407 l 1
 301 407 l 1
 295 455 l 2
 291.667 485 289.167 513.333 287.5 539.999 c 0
 285.833 566.667 285 608.334 285 664.999 c 1
 365 664.999 l 1
EndSplineSet
Substitution2: "'ss03' +MLkwvzCkMOswuzDDMMgA-3 in +MOkwxjDzZYdbVwAA lookup 27 subtable" quotedbl.ss03
Substitution2: "'aalt' +MFkweTBmMG51cE9TW1cweDBuMKIwrzC7MLkA in +MOkwxjDzZYdbVwAA lookup 0 subtable" quotedbl.ss03
EndChar

StartChar: numbersign
Encoding: 35 35 6
Width: 500
GlyphClass: 2
Flags: W
LayerCount: 2
Fore
SplineSet
270 10 m 1
 292 193 l 1
 181 193 l 1
 160 14 l 1
 101 13 l 1
 122 191 l 1
 25 191 l 1
 29 236 l 1
 128 236 l 1
 148 407 l 1
 39 407 l 1
 42 453 l 1
 153 453 l 1
 173 624 l 1
 234 626 l 1
 213 455 l 1
 323 455 l 1
 343 622 l 1
 405 623 l 1
 385 457 l 1
 476 457 l 1
 470 410 l 1
 379 410 l 1
 358 241 l 1
 457 241 l 1
 452 196 l 1
 353 196 l 1
 331 14 l 1
 270 10 l 1
187 238 m 1
 297 238 l 1
 318 408 l 1
 207 408 l 1
 187 238 l 1
EndSplineSet
EndChar

StartChar: dollar
Encoding: 36 36 7
Width: 500
GlyphClass: 2
Flags: W
LayerCount: 2
Fore
SplineSet
235 14 m 1
 163.667 18.667 105.33 45.332 59.9971 93.999 c 1
 102.997 153.999 l 1
 104.997 152.666 106.33 149.166 106.997 143.499 c 0
 107.664 137.832 108.664 134.332 109.997 132.999 c 0
 142.664 97.666 184.331 77.333 234.998 72 c 1
 234.998 292 l 1
 181.665 310 142.332 331.167 116.999 355.5 c 0
 91.666 379.833 78.999 410 78.999 446 c 0
 78.999 482.667 93.499 514.334 122.499 541.001 c 0
 151.499 567.668 188.999 584.335 234.999 591.001 c 1
 234.999 651.001 l 1
 298.999 651.001 l 2
 299.666 650.334 299.999 649.334 299.999 648.001 c 0
 299.999 646.668 298.999 644.168 296.999 640.501 c 0
 294.999 636.834 293.666 633.334 292.999 630.001 c 2
 292.999 592.001 l 1
 354.999 585.334 404.666 559.667 441.999 515 c 1
 398.999 461 l 1
 396.332 462.334 394.332 465.667 392.999 471 c 0
 391.666 476.333 389.999 480 387.999 482 c 0
 365.332 508.667 333.665 525.667 292.999 533 c 1
 292.999 340 l 1
 352.999 320.667 395.832 299.334 421.499 276.001 c 0
 447.166 252.668 459.999 221.001 459.999 181.001 c 0
 459.999 155.668 453.166 131.168 439.499 107.501 c 0
 425.832 83.834 406.332 63.667 380.999 47 c 0
 355.666 30.333 326.333 20 293 16 c 1
 293 -47 l 1
 235 -47 l 1
 235 14 l 1
234.996 533.998 m 1
 206.329 530.665 184.163 521.666 168.496 506.999 c 0
 152.829 492.331 144.996 474.664 144.996 453.998 c 0
 144.996 415.998 174.996 384.998 234.996 360.998 c 1
 234.996 533.998 l 1
367.497 111.999 m 0
 385.83 131.332 394.997 153 394.997 177 c 0
 394.997 200.333 387.164 219.166 371.497 233.499 c 0
 355.83 247.832 329.663 260.999 292.997 272.999 c 1
 292.997 73.999 l 1
 324.331 79.999 349.164 92.666 367.497 111.999 c 0
EndSplineSet
EndChar

StartChar: percent
Encoding: 37 37 8
Width: 500
GlyphClass: 2
Flags: W
LayerCount: 2
Fore
SplineSet
84 390 m 0
 66.667 401.333 53 417 43 437 c 0
 33 457 28 479.333 28 504 c 0
 28 528 33 549.833 43 569.5 c 0
 53 589.169 66.667 604.836 84 616.5 c 0
 101.333 628.167 120 634 140 634 c 0
 160 634 178.667 628.167 196 616.5 c 0
 213.333 604.833 227 589 237 569 c 0
 247 549 252 527 252 503 c 0
 252 465 241.333 433.833 220 409.5 c 0
 198.667 385.167 172 373 140 373 c 0
 120 373 101.333 378.667 84 390 c 0
46 0 m 1
 391 623 l 1
 448 623 l 1
 100 0 l 1
 46 0 l 1
175 445 m 0
 184.333 457.667 189 477.333 189 504 c 0
 189 530.669 184 550.336 174 563.001 c 0
 164 575.668 152 582.001 138 582.001 c 0
 124.667 582.001 113.167 575.668 103.5 563.001 c 0
 93.833 550.334 89 530.667 89 504 c 0
 89 478 94 458.5 104 445.5 c 0
 114 432.5 126 426 140 426 c 0
 154 426 165.667 432.333 175 445 c 0
315 6.99902 m 0
 297.667 18.332 283.999 33.832 273.999 53.499 c 0
 263.999 73.166 258.999 94.999 258.999 118.999 c 0
 258.999 142.999 263.999 164.832 273.999 184.499 c 0
 283.999 204.166 297.666 219.833 314.999 231.499 c 0
 332.332 243.166 350.999 248.999 370.999 248.999 c 0
 401.666 248.999 427.833 236.332 449.5 210.999 c 0
 471.167 185.666 482 154.999 482 118.999 c 0
 482 94.999 477 73.166 467 53.499 c 0
 457 33.832 443.5 18.332 426.5 6.99902 c 0
 409.5 -4.33398 391 -10.001 371 -10.001 c 0
 351 -10.001 332.333 -4.33398 315 6.99902 c 0
408.499 59.999 m 0
 418.166 73.332 422.997 92.666 422.997 117.999 c 0
 422.997 141.332 418.164 160.499 408.497 175.499 c 0
 398.83 190.499 385.997 197.999 369.997 197.999 c 0
 355.33 197.999 342.997 191.499 332.997 178.499 c 0
 322.997 165.499 317.997 145.999 317.997 119.999 c 0
 317.997 93.332 323.33 73.332 333.997 59.999 c 0
 344.664 46.666 357.331 39.999 371.998 39.999 c 0
 386.665 39.999 398.832 46.666 408.499 59.999 c 0
EndSplineSet
EndChar

StartChar: ampersand
Encoding: 38 38 9
Width: 500
GlyphClass: 2
Flags: W
LayerCount: 2
Fore
SplineSet
361 76 m 1
 340.333 49.333 314.998 28.335 284.998 13.002 c 0
 254.998 -2.33105 223.998 -9.99805 191.998 -9.99805 c 0
 162.665 -9.99805 135.998 -3.16504 111.998 10.502 c 0
 87.998 24.1689 69.3311 42.502 55.998 65.502 c 0
 42.665 88.502 35.998 113.669 35.998 141.002 c 0
 35.998 182.335 47.3311 220.835 69.998 256.502 c 0
 92.665 292.169 123.332 321.002 161.999 343.002 c 1
 114.666 400.335 90.999 452.002 90.999 498.002 c 0
 90.999 522.669 97.166 545.002 109.499 565.002 c 0
 121.832 585.002 138.499 600.669 159.499 612.002 c 0
 180.499 623.335 203.332 629.002 227.999 629.002 c 0
 253.999 629.002 277.332 622.835 297.999 610.502 c 0
 318.666 598.169 334.666 582.002 345.999 562.002 c 0
 357.332 542.002 362.999 520.669 362.999 498.002 c 0
 362.999 465.335 352.832 432.668 332.499 400.002 c 0
 312.166 367.335 286.333 344.002 255 330.002 c 1
 367 173.002 l 1
 383 192.335 394.167 209.168 400.5 223.501 c 0
 406.837 237.834 410.67 254.667 412 274 c 0
 412 278 413.333 281.333 416 284 c 1
 481 239 l 1
 456.333 195.667 431 157 405 123 c 1
 475 32 l 1
 416 -12 l 1
 361 76 l 1
276.498 424.002 m 0
 290.165 446.669 296.998 469.335 296.998 492.002 c 0
 296.998 514.002 290.165 532.502 276.498 547.502 c 0
 262.831 562.502 246.998 570.002 228.998 570.002 c 0
 209.664 570.002 193.331 563.169 179.998 549.502 c 0
 166.665 535.835 159.998 518.335 159.998 497.002 c 0
 159.998 465.002 180.331 423.669 220.998 373.002 c 1
 244.331 384.335 262.831 401.335 276.498 424.002 c 0
323.998 123.001 m 1
 196.997 296.002 l 1
 170.997 280.002 150.33 258.669 134.997 232.002 c 0
 119.664 205.335 111.997 178.668 111.997 152.001 c 0
 111.997 124.668 120.497 101.501 137.497 82.501 c 0
 154.497 63.501 174.997 54.001 198.997 54.001 c 0
 241.664 54.001 283.331 77.001 323.998 123.001 c 1
EndSplineSet
EndChar

StartChar: quotesingle
Encoding: 39 39 10
Width: 500
GlyphClass: 2
Flags: W
LayerCount: 2
Fore
SplineSet
290 665 m 1
 290 609 289.167 567.832 287.5 541.499 c 0
 285.833 515.166 283.333 486.333 280 455 c 2
 274 407 l 1
 226 407 l 1
 220 455 l 2
 216.667 485 214.167 513.333 212.5 539.999 c 0
 210.833 566.667 210 608.334 210 665 c 1
 290 665 l 1
EndSplineSet
Substitution2: "'ss03' +MLkwvzCkMOswuzDDMMgA-3 in +MOkwxjDzZYdbVwAA lookup 27 subtable" quotesingle.ss03
Substitution2: "'aalt' +MFkweTBmMG51cE9TW1cweDBuMKIwrzC7MLkA in +MOkwxjDzZYdbVwAA lookup 0 subtable" quotesingle.ss03
EndChar

StartChar: parenleft
Encoding: 40 40 11
Width: 500
GlyphClass: 2
Flags: W
LayerCount: 2
Fore
SplineSet
251 -70 m 0
 209.667 -26 177.833 23.667 155.5 79 c 0
 133.167 134.333 122 191.333 122 250 c 0
 122 308.667 133 365 155 419 c 0
 177 473 208.167 521.167 248.5 563.5 c 0
 288.834 605.833 335.667 639.666 389 664.999 c 1
 408 602.999 l 1
 342.667 567.666 290.5 517.999 251.5 453.999 c 0
 212.5 389.999 193 320.999 193 246.999 c 0
 193 172.332 213 102.332 253 36.999 c 0
 293 -28.334 346.667 -78.667 414 -114 c 1
 395 -174 l 1
 340.333 -148.667 292.333 -114 251 -70 c 0
EndSplineSet
EndChar

StartChar: parenright
Encoding: 41 41 12
Width: 500
GlyphClass: 2
Flags: W
LayerCount: 2
Fore
SplineSet
114 -114 m 1
 181.333 -78.667 235 -28.332 275 37.001 c 0
 315 102.334 335 172.334 335 247.001 c 0
 335 321.001 315.5 390.001 276.5 454.001 c 0
 237.5 518.001 185.333 567.668 120 603.001 c 1
 139 665.001 l 1
 192.333 639.666 239.166 605.833 279.499 563.501 c 0
 319.832 521.167 350.999 473 372.999 419 c 0
 394.999 365 405.999 308.667 405.999 250 c 0
 405.999 191.333 394.832 134.333 372.499 79 c 0
 350.166 23.667 318.333 -26 277 -70 c 0
 235.667 -114 187.667 -148.667 133 -174 c 1
 114 -114 l 1
EndSplineSet
EndChar

StartChar: asterisk
Encoding: 42 42 13
Width: 500
GlyphClass: 2
Flags: W
LayerCount: 2
Fore
SplineSet
138 123 m 1
 84 167 l 1
 214 317 l 1
 41 370 l 1
 67 435 l 1
 229 359 l 1
 213 536 l 1
 291 536 l 1
 273 359 l 1
 432 431 l 1
 458 370 l 1
 287 318 l 1
 413 167 l 1
 358 124 l 1
 250 290 l 1
 138 123 l 1
EndSplineSet
Substitution2: "'ss01' +MLkwvzCkMOswuzDDMMgA-1 in +MOkwxjDzZYdbVwAA lookup 25 subtable" asterisk.ss01
Substitution2: "'salt' +W+l/jnaEUiVbV19i in +MOkwxjDzZYdbVwAA lookup 24 subtable" asterisk.ss01
Substitution2: "'aalt' +MFkweTBmMG51cE9TW1cweDBuMKIwrzC7MLkA in +MOkwxjDzZYdbVwAA lookup 0 subtable" asterisk.ss01
EndChar

StartChar: plus
Encoding: 43 43 14
Width: 500
GlyphClass: 2
Flags: W
LayerCount: 2
Fore
SplineSet
222 104 m 1
 222 291 l 1
 45 291 l 1
 45 352 l 1
 222 352 l 1
 222 523 l 1
 285 523 l 1
 285 352 l 1
 456 352 l 1
 456 291 l 1
 285 291 l 1
 285 104 l 1
 222 104 l 1
EndSplineSet
EndChar

StartChar: comma
Encoding: 44 44 15
Width: 500
GlyphClass: 2
Flags: W
LayerCount: 2
Fore
SplineSet
165 -138 m 1
 183.667 -120.667 199.167 -102 211.5 -82 c 0
 223.833 -62 230 -45.667 230 -33 c 0
 230 -27 228.333 -22 225 -18 c 0
 221.667 -14 215.667 -8 207 0 c 0
 197.667 8.66699 190.667 16 186 22 c 0
 181.333 28 179 35.333 179 44 c 0
 179 60.667 184.5 74.667 195.5 86 c 0
 206.5 97.333 220.667 103 238 103 c 0
 256 103 271.833 95.167 285.5 79.5 c 0
 299.167 63.833 306 44 306 20 c 0
 306 -32 270.333 -94.667 199 -168 c 1
 165 -138 l 1
EndSplineSet
EndChar

StartChar: hyphen
Encoding: 45 45 16
Width: 500
GlyphClass: 2
Flags: W
LayerCount: 2
Fore
SplineSet
71 281 m 1
 71 348 l 1
 431 348 l 1
 431 281 l 1
 71 281 l 1
EndSplineSet
EndChar

StartChar: period
Encoding: 46 46 17
Width: 500
GlyphClass: 2
Flags: W
LayerCount: 2
Fore
SplineSet
197 6 m 0
 185.667 17.333 180 30.666 180 45.999 c 0
 180 61.332 185.667 74.665 197 85.998 c 0
 208.333 97.3311 222 102.998 238 102.998 c 0
 253.333 102.998 266.666 97.3311 277.999 85.998 c 0
 289.332 74.665 294.999 61.332 294.999 45.999 c 0
 294.999 30.666 289.332 17.333 277.999 6 c 0
 266.666 -5.33301 253.333 -11 238 -11 c 0
 222 -11 208.333 -5.33301 197 6 c 0
EndSplineSet
EndChar

StartChar: slash
Encoding: 47 47 18
Width: 500
GlyphClass: 2
Flags: W
LayerCount: 2
Fore
SplineSet
123 -42 m 1
 64 -13 l 1
 377 665 l 1
 437 634 l 1
 123 -42 l 1
EndSplineSet
Substitution2: "'frac' +ZZwwgTBuUgZlcAAA in +MOkwxjDzZYdbVwAA lookup 17 subtable" fraction
Substitution2: "'aalt' +MFkweTBmMG51cE9TW1cweDBuMKIwrzC7MLkA in +MOkwxjDzZYdbVwAA lookup 0 subtable" fraction
EndChar

StartChar: zero
Encoding: 48 48 19
Width: 500
GlyphClass: 2
Flags: W
LayerCount: 2
Fore
SplineSet
392.5 542 m 0
 426.167 485.333 443 407.333 443 308 c 0
 443 206 426.333 127.333 393 72 c 0
 359.667 16.667 312 -11 250 -11 c 0
 188 -11 140.333 16.667 107 72 c 0
 73.667 127.333 57 206 57 308 c 0
 57 407.333 73.833 485.333 107.5 542 c 0
 141.167 598.667 188.667 627 250 627 c 0
 311.333 627 358.833 598.667 392.5 542 c 0
161 496.5 m 0
 139.667 450.167 129 387.332 129 307.999 c 0
 129 264.666 132 226.333 138 193 c 1
 350 467 l 1
 340 499 326.5 523.5 309.5 540.5 c 0
 292.5 557.5 272.667 566 250 566 c 0
 212 566 182.333 542.833 161 496.5 c 0
339 116.998 m 0
 360.333 161.665 371 225.331 371 307.998 c 0
 371 346.665 368.667 379.998 364 407.998 c 1
 152 137.998 l 1
 173.333 79.3311 206 49.998 250 49.998 c 0
 288 49.998 317.667 72.3311 339 116.998 c 0
EndSplineSet
Substitution2: "'ss02' +MLkwvzCkMOswuzDDMMgA-2 in +MOkwxjDzZYdbVwAA lookup 26 subtable" zero.ss02
Substitution2: "'zero' +MLkw6TDDMLcw5TBkME0wvDDt in +MOkwxjDzZYdbVwAA lookup 23 subtable" zero.zero
Substitution2: "'frac' +ZZwwgTBuUgZlcAAA in +MOkwxjDzZYdbVwAA lookup 18 subtable" zero.numr
Substitution2: "'dnom' +UgZrzQAA in +MOkwxjDzZYdbVwAA lookup 16 subtable" zero.dnom
Substitution2: "'numr' +UgZbUAAA in +MOkwxjDzZYdbVwAA lookup 15 subtable" zero.numr
Substitution2: "'sups' +TgowZDBNZYdbVwAA in +MOkwxjDzZYdbVwAA lookup 14 subtable" uni2070
Substitution2: "'subs' +TgswZDBNZYdbVwAA in +MOkwxjDzZYdbVwAA lookup 13 subtable" uni2080
AlternateSubs2: "'aalt' +MFkweTBmMG51cE9TW1cweDBuMKIwrzC7MLkA in +MOkwxjDzZYdbVwAA lookup 1 subtable" uni2080 uni2070 zero.numr zero.dnom zero.zero zero.ss02
EndChar

StartChar: one
Encoding: 49 49 20
Width: 500
GlyphClass: 2
Flags: W
LayerCount: 2
Fore
SplineSet
230 0 m 1
 230 537 l 1
 104 500 l 1
 88 539 l 1
 251 624 l 1
 300 624 l 1
 300 0 l 1
 230 0 l 1
EndSplineSet
Substitution2: "'frac' +ZZwwgTBuUgZlcAAA in +MOkwxjDzZYdbVwAA lookup 18 subtable" one.numr
Substitution2: "'dnom' +UgZrzQAA in +MOkwxjDzZYdbVwAA lookup 16 subtable" one.dnom
Substitution2: "'numr' +UgZbUAAA in +MOkwxjDzZYdbVwAA lookup 15 subtable" one.numr
Substitution2: "'sups' +TgowZDBNZYdbVwAA in +MOkwxjDzZYdbVwAA lookup 14 subtable" uni00B9
Substitution2: "'subs' +TgswZDBNZYdbVwAA in +MOkwxjDzZYdbVwAA lookup 13 subtable" uni2081
AlternateSubs2: "'aalt' +MFkweTBmMG51cE9TW1cweDBuMKIwrzC7MLkA in +MOkwxjDzZYdbVwAA lookup 1 subtable" uni2081 uni00B9 one.numr one.dnom
EndChar

StartChar: two
Encoding: 50 50 21
Width: 500
GlyphClass: 2
Flags: W
LayerCount: 2
Fore
SplineSet
73 56 m 1
 154 138 l 2
 208 192 248.5 234.333 275.5 265 c 0
 302.5 295.667 324 326.167 340 356.5 c 0
 356 386.833 364 418.333 364 451 c 0
 364 491.667 354.333 521 335 539 c 0
 315.667 557 290 566 258 566 c 0
 229.333 566 202.833 559.667 178.5 547 c 0
 154.167 534.333 138 520.333 130 505 c 0
 126 497.667 122 490.167 118 482.5 c 0
 114 474.833 112 470.333 112 469 c 0
 112 468.333 112.333 468 113 468 c 0
 113.667 468 115 468.5 117 469.5 c 0
 119 470.5 120.333 469.667 121 467 c 1
 118 461 l 1
 109 466 l 1
 58 506 l 1
 78 544.667 105.333 574.5 140 595.5 c 0
 174.667 616.5 213.667 627 257 627 c 0
 310.333 627 353.5 611 386.5 579 c 0
 419.5 547 436 503.667 436 449 c 0
 436 413 427.333 378 410 344 c 0
 392.667 310 370.5 277.667 343.5 247 c 0
 316.5 216.333 279 177.333 231 130 c 2
 163 61 l 1
 395 61 l 2
 405.667 61 413.5 61.667 418.5 63 c 0
 423.5 64.333 428 67 432 71 c 1
 439 71 l 1
 439 0 l 1
 73 0 l 1
 73 56 l 1
EndSplineSet
Substitution2: "'frac' +ZZwwgTBuUgZlcAAA in +MOkwxjDzZYdbVwAA lookup 18 subtable" two.numr
Substitution2: "'dnom' +UgZrzQAA in +MOkwxjDzZYdbVwAA lookup 16 subtable" two.dnom
Substitution2: "'numr' +UgZbUAAA in +MOkwxjDzZYdbVwAA lookup 15 subtable" two.numr
Substitution2: "'sups' +TgowZDBNZYdbVwAA in +MOkwxjDzZYdbVwAA lookup 14 subtable" uni00B2
Substitution2: "'subs' +TgswZDBNZYdbVwAA in +MOkwxjDzZYdbVwAA lookup 13 subtable" uni2082
AlternateSubs2: "'aalt' +MFkweTBmMG51cE9TW1cweDBuMKIwrzC7MLkA in +MOkwxjDzZYdbVwAA lookup 1 subtable" uni2082 uni00B2 two.numr two.dnom
EndChar

StartChar: three
Encoding: 51 51 22
Width: 500
GlyphClass: 2
Flags: W
LayerCount: 2
Fore
SplineSet
395 272 m 0
 416.333 245.333 426.999 211.666 426.999 170.999 c 0
 426.999 137.666 419.666 107.166 404.999 79.499 c 0
 390.332 51.832 368.999 29.832 340.999 13.499 c 0
 312.999 -2.83398 279.332 -11.001 239.999 -11.001 c 0
 206.666 -11.001 175.166 -5.00098 145.499 6.99902 c 0
 115.832 18.999 90.332 36.666 68.999 59.999 c 1
 114.999 114.999 l 1
 115.999 115.999 l 1
 116.999 114.999 l 1
 133.666 93.666 150.833 77.333 168.5 66 c 0
 186.167 54.667 209 49 237 49 c 0
 275.667 49 305 60.333 325 83 c 0
 345 105.667 355 136 355 174 c 0
 355 215.333 342.5 246.333 317.5 267 c 0
 292.5 287.667 257.333 298 212 298 c 0
 205.333 298 194.666 297.333 179.999 296 c 1
 179.999 352 l 1
 239.332 352 279.832 363 301.499 385 c 0
 323.166 407 333.999 437 333.999 475 c 0
 333.999 503.001 325.832 525.334 309.499 542 c 0
 293.166 558.667 271.666 567 244.999 567 c 0
 201.666 567 163.666 551.667 130.999 521 c 1
 88.999 563 l 1
 129.666 605.667 181.333 627 244 627 c 0
 294 627 333.5 612.833 362.5 584.5 c 0
 391.5 556.167 406 518.667 406 472 c 0
 406 438 397.667 408.333 381 383 c 0
 364.333 357.667 340 340 308 330 c 1
 344.667 318 373.667 298.667 395 272 c 0
123.999 115.5 m 0
 121.999 115.835 119.999 116.668 117.999 118 c 1
 121.999 123 l 1
 126.999 118 l 1
 126.999 116 125.999 115.167 123.999 115.5 c 0
114.499 121 m 0
 116.166 119.667 117.332 118.666 117.999 117.999 c 2
 115.999 115.999 l 1
 113.332 120.666 112.832 122.333 114.499 121 c 0
EndSplineSet
Substitution2: "'frac' +ZZwwgTBuUgZlcAAA in +MOkwxjDzZYdbVwAA lookup 18 subtable" three.numr
Substitution2: "'dnom' +UgZrzQAA in +MOkwxjDzZYdbVwAA lookup 16 subtable" three.dnom
Substitution2: "'numr' +UgZbUAAA in +MOkwxjDzZYdbVwAA lookup 15 subtable" three.numr
Substitution2: "'sups' +TgowZDBNZYdbVwAA in +MOkwxjDzZYdbVwAA lookup 14 subtable" uni00B3
Substitution2: "'subs' +TgswZDBNZYdbVwAA in +MOkwxjDzZYdbVwAA lookup 13 subtable" uni2083
AlternateSubs2: "'aalt' +MFkweTBmMG51cE9TW1cweDBuMKIwrzC7MLkA in +MOkwxjDzZYdbVwAA lookup 1 subtable" uni2083 uni00B3 three.numr three.dnom
EndChar

StartChar: four
Encoding: 52 52 23
Width: 500
GlyphClass: 2
Flags: W
LayerCount: 2
Fore
SplineSet
318 0 m 1
 318 153 l 1
 48 153 l 1
 48 204 l 1
 333 624 l 1
 392 624 l 1
 392 211 l 1
 472 211 l 1
 472 152 l 1
 392 152 l 1
 392 0 l 1
 318 0 l 1
129 212 m 1
 318 212 l 1
 318 498 l 1
 129 212 l 1
EndSplineSet
Substitution2: "'frac' +ZZwwgTBuUgZlcAAA in +MOkwxjDzZYdbVwAA lookup 18 subtable" four.numr
Substitution2: "'dnom' +UgZrzQAA in +MOkwxjDzZYdbVwAA lookup 16 subtable" four.dnom
Substitution2: "'numr' +UgZbUAAA in +MOkwxjDzZYdbVwAA lookup 15 subtable" four.numr
Substitution2: "'sups' +TgowZDBNZYdbVwAA in +MOkwxjDzZYdbVwAA lookup 14 subtable" uni2074
Substitution2: "'subs' +TgswZDBNZYdbVwAA in +MOkwxjDzZYdbVwAA lookup 13 subtable" uni2084
AlternateSubs2: "'aalt' +MFkweTBmMG51cE9TW1cweDBuMKIwrzC7MLkA in +MOkwxjDzZYdbVwAA lookup 1 subtable" uni2084 uni2074 four.numr four.dnom
EndChar

StartChar: five
Encoding: 53 53 24
Width: 500
GlyphClass: 2
Flags: W
LayerCount: 2
Fore
SplineSet
353.5 379.5 m 0
 381.834 362.5 404.169 338.167 420.502 306.5 c 0
 436.835 274.833 445.002 238 445.002 196 c 0
 445.002 154 436.502 117.333 419.502 86 c 0
 402.502 54.667 379.169 30.667 349.502 14 c 0
 319.835 -2.66699 286.335 -11 249.002 -11 c 0
 211.002 -11 175.835 -2.66699 143.502 14 c 0
 111.169 30.667 84.6689 54.334 64.002 85.001 c 1
 120.002 127.001 l 1
 121.002 128.001 l 2
 121.669 128.001 122.002 127.668 122.002 127.001 c 1
 122.002 127.001 l 1
 139.335 100.334 157.668 80.834 177.001 68.501 c 0
 196.334 56.168 221.667 50.001 253 50.001 c 0
 274.333 50.001 294.333 56.168 313 68.501 c 0
 331.667 80.834 346.5 98.167 357.5 120.5 c 0
 368.5 142.833 374 169 374 199 c 0
 374 244.333 361.833 280.333 337.5 307 c 0
 313.167 333.667 282.667 347 246 347 c 0
 224.667 347 203.667 341.833 183 331.5 c 0
 162.333 321.167 144.333 306.667 129 288 c 1
 85 306 l 1
 106 623 l 1
 422 623 l 1
 422 560 l 1
 165 560 l 1
 155 381 l 1
 187.667 397 221.667 405 257 405 c 0
 293 405 325.167 396.5 353.5 379.5 c 0
123.002 129 m 1
 121.001 128.001 l 1
 117.668 133.334 118.335 133.667 123.002 129 c 1
123.001 129.001 m 1
 128.001 133.001 l 1
 132.001 128.001 l 1
 132.001 124.001 129.001 124.334 123.001 129.001 c 1
EndSplineSet
Substitution2: "'frac' +ZZwwgTBuUgZlcAAA in +MOkwxjDzZYdbVwAA lookup 18 subtable" five.numr
Substitution2: "'dnom' +UgZrzQAA in +MOkwxjDzZYdbVwAA lookup 16 subtable" five.dnom
Substitution2: "'numr' +UgZbUAAA in +MOkwxjDzZYdbVwAA lookup 15 subtable" five.numr
Substitution2: "'sups' +TgowZDBNZYdbVwAA in +MOkwxjDzZYdbVwAA lookup 14 subtable" uni2075
Substitution2: "'subs' +TgswZDBNZYdbVwAA in +MOkwxjDzZYdbVwAA lookup 13 subtable" uni2085
AlternateSubs2: "'aalt' +MFkweTBmMG51cE9TW1cweDBuMKIwrzC7MLkA in +MOkwxjDzZYdbVwAA lookup 1 subtable" uni2085 uni2075 five.numr five.dnom
EndChar

StartChar: six
Encoding: 54 54 25
Width: 500
GlyphClass: 2
Flags: W
LayerCount: 2
Fore
SplineSet
354 376.5 m 0
 380 359.5 400.667 335.502 416 304.502 c 0
 431.333 273.502 439 238.002 439 198.002 c 0
 439 157.335 431.167 121.335 415.5 90.002 c 0
 399.833 58.6689 378.333 34.1689 351 16.502 c 0
 323.667 -1.16504 293.667 -9.99805 261 -9.99805 c 0
 199.667 -9.99805 152 16.1689 118 68.502 c 0
 84 120.835 67 192.668 67 284.001 c 0
 67 357.334 76 420.001 94 472.001 c 0
 112 524.001 137.5 563.334 170.5 590.001 c 0
 203.5 616.668 242.333 630.001 287 630.001 c 0
 339 630.001 384.667 611.001 424 573.001 c 1
 380 523.001 l 1
 379 522.001 l 1
 365 539.334 351.5 551.334 338.5 558.001 c 0
 325.5 564.668 309 568.001 289 568.001 c 0
 267 568.001 244.667 561.168 222 547.501 c 0
 199.333 533.834 179.5 509.167 162.5 473.5 c 0
 145.5 437.833 136.667 389 136 327 c 1
 150 350.334 168.833 368.667 192.5 382 c 0
 216.167 395.333 241.334 402 268 402 c 0
 299.333 402 328 393.5 354 376.5 c 0
377 519.002 m 1
 373 515.002 l 1
 368 520.002 l 1
 368 524.002 371 523.669 377 519.002 c 1
381.5 516.502 m 0
 379.167 518.169 377.667 519.001 377 519.001 c 2
 379 522.001 l 1
 383 516.652 383.833 514.819 381.5 516.502 c 0
340 90.501 m 0
 360.667 116.168 371.001 151.667 371.001 197 c 0
 371.001 228.333 365.668 254.833 355.001 276.5 c 0
 344.334 298.167 330.667 314.334 314.001 325.001 c 0
 297.334 335.668 280.001 341.001 262.001 341.001 c 0
 238.668 341.001 216.001 333.168 194.001 317.501 c 0
 172.001 301.834 154.001 281.667 140.001 257.001 c 1
 138.668 246.334 138.001 237.667 138.001 231 c 0
 138.001 201.667 143.168 173.334 153.501 146.001 c 0
 163.834 118.668 178.667 96.168 198 78.501 c 0
 217.333 60.834 239.333 52.001 264 52.001 c 0
 294 52.001 319.333 64.834 340 90.501 c 0
EndSplineSet
Substitution2: "'frac' +ZZwwgTBuUgZlcAAA in +MOkwxjDzZYdbVwAA lookup 18 subtable" six.numr
Substitution2: "'dnom' +UgZrzQAA in +MOkwxjDzZYdbVwAA lookup 16 subtable" six.dnom
Substitution2: "'numr' +UgZbUAAA in +MOkwxjDzZYdbVwAA lookup 15 subtable" six.numr
Substitution2: "'sups' +TgowZDBNZYdbVwAA in +MOkwxjDzZYdbVwAA lookup 14 subtable" uni2076
Substitution2: "'subs' +TgswZDBNZYdbVwAA in +MOkwxjDzZYdbVwAA lookup 13 subtable" uni2086
AlternateSubs2: "'aalt' +MFkweTBmMG51cE9TW1cweDBuMKIwrzC7MLkA in +MOkwxjDzZYdbVwAA lookup 1 subtable" uni2086 uni2076 six.numr six.dnom
EndChar

StartChar: seven
Encoding: 55 55 26
Width: 500
GlyphClass: 2
Flags: W
LayerCount: 2
Fore
SplineSet
345 557 m 1
 79 557.001 l 1
 79 623.001 l 1
 432 623.001 l 1
 432 584.001 l 1
 350 377.334 284 182.667 234 0 c 1
 155 0 l 1
 213 190 276.333 375.667 345 557 c 1
EndSplineSet
Substitution2: "'frac' +ZZwwgTBuUgZlcAAA in +MOkwxjDzZYdbVwAA lookup 18 subtable" seven.numr
Substitution2: "'dnom' +UgZrzQAA in +MOkwxjDzZYdbVwAA lookup 16 subtable" seven.dnom
Substitution2: "'numr' +UgZbUAAA in +MOkwxjDzZYdbVwAA lookup 15 subtable" seven.numr
Substitution2: "'sups' +TgowZDBNZYdbVwAA in +MOkwxjDzZYdbVwAA lookup 14 subtable" uni2077
Substitution2: "'subs' +TgswZDBNZYdbVwAA in +MOkwxjDzZYdbVwAA lookup 13 subtable" uni2087
AlternateSubs2: "'aalt' +MFkweTBmMG51cE9TW1cweDBuMKIwrzC7MLkA in +MOkwxjDzZYdbVwAA lookup 1 subtable" uni2087 uni2077 seven.numr seven.dnom
EndChar

StartChar: eight
Encoding: 56 56 27
Width: 500
GlyphClass: 2
Flags: W
LayerCount: 2
Fore
SplineSet
149.5 12 m 0
 120.5 26.667 98.3311 46.668 82.998 72.001 c 0
 67.665 97.334 59.998 125.667 59.998 157 c 0
 59.998 193 71.3311 226.667 93.998 258 c 0
 116.665 289.334 146.998 313.667 184.998 331 c 1
 156.331 345.667 133.331 366.167 115.998 392.5 c 0
 98.665 418.833 89.998 447 89.998 477 c 0
 89.998 521.667 104.331 558.5 132.998 587.5 c 0
 161.665 616.5 202.332 631 254.999 631 c 0
 309.666 631 350.833 617.167 378.5 589.5 c 0
 406.167 561.833 420 526.333 420 483 c 0
 420 453 411 424.5 393 397.5 c 0
 375 370.5 351 349 321 333 c 1
 357 316.333 386 292.5 408 261.5 c 0
 430 230.5 441 197 441 161 c 0
 441 129 433.167 100 417.5 74 c 0
 401.833 48 379.5 27.5 350.5 12.5 c 0
 321.5 -2.5 288 -10 250 -10 c 0
 212 -10 178.5 -2.66699 149.5 12 c 0
327.998 412.501 m 0
 343.998 434.834 351.996 457.668 351.996 481.001 c 0
 351.996 506.334 343.329 527.834 325.996 545.501 c 0
 308.663 563.168 284.33 572.001 252.997 572.001 c 0
 221.664 572.001 197.831 563.501 181.498 546.501 c 0
 165.165 529.501 156.998 508.668 156.998 484.001 c 0
 156.998 456.001 165.998 433.001 183.998 415.001 c 0
 201.998 397.001 229.665 378.001 266.998 358.001 c 1
 291.665 372.001 311.998 390.168 327.998 412.501 c 0
338.996 83.502 m 0
 359.663 103.835 369.997 129.665 369.997 160.998 c 0
 369.997 191.665 357.997 219.832 333.997 245.499 c 0
 309.997 271.166 277.664 290.333 236.997 303 c 1
 206.33 290.333 181.163 271.333 161.496 246 c 0
 141.829 220.667 131.996 193.334 131.996 164.001 c 0
 131.996 132.668 142.829 106.335 164.496 85.002 c 0
 186.163 63.6689 215.33 53.002 251.996 53.002 c 0
 289.329 53.002 318.329 63.1689 338.996 83.502 c 0
EndSplineSet
Substitution2: "'frac' +ZZwwgTBuUgZlcAAA in +MOkwxjDzZYdbVwAA lookup 18 subtable" eight.numr
Substitution2: "'dnom' +UgZrzQAA in +MOkwxjDzZYdbVwAA lookup 16 subtable" eight.dnom
Substitution2: "'numr' +UgZbUAAA in +MOkwxjDzZYdbVwAA lookup 15 subtable" eight.numr
Substitution2: "'sups' +TgowZDBNZYdbVwAA in +MOkwxjDzZYdbVwAA lookup 14 subtable" uni2078
Substitution2: "'subs' +TgswZDBNZYdbVwAA in +MOkwxjDzZYdbVwAA lookup 13 subtable" uni2088
AlternateSubs2: "'aalt' +MFkweTBmMG51cE9TW1cweDBuMKIwrzC7MLkA in +MOkwxjDzZYdbVwAA lookup 1 subtable" uni2088 uni2078 eight.numr eight.dnom
EndChar

StartChar: nine
Encoding: 57 57 28
Width: 500
GlyphClass: 2
Flags: W
LayerCount: 2
Fore
SplineSet
348.5 593.5 m 0
 377.5 571.167 399.833 540 415.5 500 c 0
 431.167 460 439 414.333 439 363 c 0
 439 240.333 420.667 147.833 384 85.5 c 0
 347.333 23.167 295.333 -8.66602 228 -9.99902 c 1
 168 -9.99902 118.333 9.00098 79 47.001 c 1
 122 96.001 l 1
 123 97.001 l 1
 124 96.001 l 1
 138 79.334 152.333 67.501 167 60.501 c 0
 181.667 53.501 200 50.001 222 50.001 c 0
 267.333 50.001 302.333 72.001 327 116.001 c 0
 351.667 160.001 366.334 215.001 371.001 281.001 c 1
 354.334 266.334 336.167 255.167 316.501 247.5 c 0
 296.834 239.833 274.334 236 249.001 236 c 0
 215.001 236 184.168 244 156.501 260 c 0
 128.834 276 107.167 298.167 91.5 326.5 c 0
 75.833 354.833 68 387.333 68 424 c 0
 68 462 76 496.5 92 527.5 c 0
 108 558.5 129.667 582.833 157 600.5 c 0
 184.333 618.167 214.333 627 247 627 c 0
 285.667 627 319.5 615.833 348.5 593.5 c 0
320.5 309 m 0
 339.5 317 356.668 330.332 372.001 348.999 c 1
 369.333 422.332 358.166 476.832 338.501 512.499 c 0
 318.834 548.166 289.334 565.999 250.001 565.999 c 0
 215.334 565.999 187.667 553.332 167 527.999 c 0
 146.333 502.666 136 468.333 136 425 c 0
 136 386.333 147 355.333 169 332 c 0
 191 308.667 218 297 250 297 c 0
 278 297 301.5 301 320.5 309 c 0
125.001 98.999 m 1
 129.001 103.999 l 1
 134.001 98.999 l 1
 134.001 94.332 131.001 94.332 125.001 98.999 c 1
125.001 98.999 m 1
 123.001 96.998 l 1
 119.001 101.665 119.668 102.332 125.001 98.999 c 1
EndSplineSet
Substitution2: "'frac' +ZZwwgTBuUgZlcAAA in +MOkwxjDzZYdbVwAA lookup 18 subtable" nine.numr
Substitution2: "'dnom' +UgZrzQAA in +MOkwxjDzZYdbVwAA lookup 16 subtable" nine.dnom
Substitution2: "'numr' +UgZbUAAA in +MOkwxjDzZYdbVwAA lookup 15 subtable" nine.numr
Substitution2: "'sups' +TgowZDBNZYdbVwAA in +MOkwxjDzZYdbVwAA lookup 14 subtable" uni2079
Substitution2: "'subs' +TgswZDBNZYdbVwAA in +MOkwxjDzZYdbVwAA lookup 13 subtable" uni2089
AlternateSubs2: "'aalt' +MFkweTBmMG51cE9TW1cweDBuMKIwrzC7MLkA in +MOkwxjDzZYdbVwAA lookup 1 subtable" uni2089 uni2079 nine.numr nine.dnom
EndChar

StartChar: colon
Encoding: 58 58 29
Width: 500
GlyphClass: 2
Flags: W
LayerCount: 2
Fore
SplineSet
197 325 m 0
 185 336.334 179 349.666 179 364.999 c 0
 179 380.999 184.833 394.666 196.5 405.999 c 0
 208.167 417.332 222 422.999 238 422.999 c 0
 254 422.999 268 417.332 280 405.999 c 0
 292 394.666 298 380.999 298 364.999 c 0
 298 349.666 292 336.333 280 325 c 0
 268 313.667 254 308 238 308 c 0
 222.667 308 209 313.667 197 325 c 0
196 5.49902 m 0
 184.667 16.499 179.001 29.998 179.001 45.998 c 0
 179.001 61.998 184.834 75.665 196.501 86.998 c 0
 208.168 98.3311 222.001 103.998 238.001 103.998 c 0
 254.001 103.998 268.001 98.3311 280.001 86.998 c 0
 292.001 75.665 298.001 61.998 298.001 45.998 c 0
 298.001 30.665 292.168 17.332 280.501 5.99902 c 0
 268.834 -5.33398 254.667 -11.001 238 -11.001 c 0
 221.333 -11.001 207.333 -5.50098 196 5.49902 c 0
EndSplineSet
EndChar

StartChar: semicolon
Encoding: 59 59 30
Width: 500
GlyphClass: 2
Flags: W
LayerCount: 2
Fore
SplineSet
197 325 m 0
 185 336.334 179 349.666 179 364.999 c 0
 179 380.999 184.833 394.666 196.5 405.999 c 0
 208.167 417.332 222 422.999 238 422.999 c 0
 254 422.999 268 417.332 280 405.999 c 0
 292 394.666 298 380.999 298 364.999 c 0
 298 349.666 292 336.333 280 325 c 0
 268 313.667 254 308 238 308 c 0
 222.667 308 209 313.667 197 325 c 0
165 -138.001 m 1
 183.667 -120.668 199.167 -102.001 211.5 -82.001 c 0
 223.833 -62.001 230 -45.668 230 -33.001 c 0
 230 -27.001 228.333 -22.001 225 -18.001 c 0
 221.667 -14.001 215.667 -8.00098 207 -0.000976562 c 0
 197.667 8.66602 190.667 15.999 186 21.999 c 0
 181.333 27.999 179 35.332 179 43.999 c 0
 179 60.666 184.5 74.666 195.5 85.999 c 0
 206.5 97.332 220.667 102.999 238 102.999 c 0
 256 102.999 271.833 95.166 285.5 79.499 c 0
 299.167 63.832 306 43.999 306 19.999 c 0
 306 -32.001 270.333 -94.668 199 -168.001 c 1
 165 -138.001 l 1
EndSplineSet
EndChar

StartChar: less
Encoding: 60 60 31
Width: 500
GlyphClass: 2
Flags: W
LayerCount: 2
Fore
SplineSet
461 47 m 1
 35 296 l 1
 35 344 l 1
 458 567 l 1
 458 496 l 1
 111 319 l 1
 461 123 l 1
 461 47 l 1
EndSplineSet
EndChar

StartChar: equal
Encoding: 61 61 32
Width: 500
GlyphClass: 2
Flags: W
LayerCount: 2
Fore
SplineSet
45 377 m 1
 45 438 l 1
 456 438 l 1
 456 377 l 1
 45 377 l 1
45 220 m 1
 45 281 l 1
 456 281 l 1
 456 220 l 1
 45 220 l 1
EndSplineSet
EndChar

StartChar: greater
Encoding: 62 62 33
Width: 500
GlyphClass: 2
Flags: W
LayerCount: 2
Fore
SplineSet
40 47 m 1
 40 123 l 1
 389 319 l 1
 42 496 l 1
 42 567 l 1
 466 344 l 1
 466 296 l 1
 40 47 l 1
EndSplineSet
EndChar

StartChar: question
Encoding: 63 63 34
Width: 500
GlyphClass: 2
Flags: W
LayerCount: 2
Fore
SplineSet
226 226 m 2
 226 258.667 232.002 284.999 244.002 304.999 c 0
 256.002 324.999 273.669 346.332 297.002 368.999 c 0
 319.669 391.666 336.669 412.333 348.002 431 c 0
 359.335 449.667 365.002 474 365.002 504 c 0
 365.002 534 354.669 558.167 334.002 576.5 c 0
 313.335 594.833 286.668 604 254.002 604 c 0
 223.335 604 197.168 599.5 175.501 590.5 c 0
 153.834 581.5 139.667 571.333 133 560 c 0
 120.333 540 114 528.667 114 526 c 0
 114 525.333 115.167 525.5 117.5 526.5 c 0
 119.833 527.5 121.333 526.667 122 524 c 1
 119 518 l 1
 110 523 l 1
 64 561 l 1
 87.333 595.667 113.666 621.667 142.999 639 c 0
 172.332 656.333 210.332 665 256.999 665 c 0
 310.333 665 353.166 651 385.499 623 c 0
 417.832 595 433.999 557 433.999 509 c 0
 433.999 471 427.332 440.667 413.999 418 c 0
 400.666 395.333 381.333 372 356 348 c 0
 334 326 317.833 306.667 307.5 290 c 0
 297.167 273.333 292 252 292 226 c 2
 292 185 l 1
 226 185 l 1
 226 226 l 2
220.002 5.99902 m 0
 208.669 17.332 203.002 30.665 203.002 45.998 c 0
 203.002 61.3311 208.669 74.6641 220.002 85.9971 c 0
 231.335 97.3301 245.002 102.997 261.002 102.997 c 0
 276.336 102.997 289.669 97.3301 301.001 85.9971 c 0
 312.334 74.6641 318.001 61.3311 318.001 45.998 c 0
 318.001 30.665 312.334 17.332 301.001 5.99902 c 0
 289.668 -5.33398 276.335 -11.001 261.002 -11.001 c 0
 245.002 -11.001 231.335 -5.33398 220.002 5.99902 c 0
EndSplineSet
EndChar

StartChar: at
Encoding: 64 64 35
Width: 500
GlyphClass: 2
Flags: W
LayerCount: 2
Fore
SplineSet
165.5 25 m 0
 125.167 49 92.666 85.333 67.999 134 c 0
 43.332 182.667 30.999 242.334 30.999 313.001 c 0
 30.999 383.001 42.666 442.001 65.999 490.001 c 0
 89.332 538.001 119.332 573.834 155.999 597.501 c 0
 192.666 621.168 230.999 633.001 270.999 633.001 c 0
 304.999 633.001 336.832 624.501 366.499 607.501 c 0
 396.166 590.501 419.999 565.001 437.999 531.001 c 0
 455.999 497.001 464.999 456.001 464.999 408.001 c 2
 464.999 175.001 l 1
 404.999 175.001 l 1
 404.999 213.001 l 1
 378.999 182.334 346.666 167.001 307.999 167.001 c 0
 269.999 167.001 238.332 179.501 212.999 204.501 c 0
 187.666 229.501 174.999 261.001 174.999 299.001 c 0
 174.999 342.334 191.999 377.501 225.999 404.501 c 0
 259.999 431.501 308.666 445.001 371.999 445.001 c 0
 385.332 445.001 395.332 444.668 401.999 444.001 c 1
 401.999 482.668 389.832 514.835 365.499 540.502 c 0
 341.166 566.169 308.666 579.002 267.999 579.002 c 0
 235.332 579.002 205.332 569.669 177.999 551.002 c 0
 150.666 532.335 128.999 503.835 112.999 465.502 c 0
 96.999 427.169 88.999 380.002 88.999 324.002 c 0
 88.999 263.335 98.999 212.168 118.999 170.501 c 0
 138.999 128.834 165.166 97.667 197.499 77 c 0
 229.832 56.333 264.332 46 300.999 46 c 0
 339.666 46 375.333 57 408 79 c 1
 435 30 l 1
 391.667 2.66699 345 -11 295 -11 c 0
 249 -11 205.833 1 165.5 25 c 0
384.499 261 m 0
 398.166 287 404.999 331.331 404.999 393.998 c 1
 388.999 395.331 377.666 395.998 370.999 395.998 c 0
 327.666 395.998 294.499 387.831 271.499 371.498 c 0
 248.499 355.165 236.999 332.332 236.999 302.999 c 0
 236.999 277.666 243.832 257.833 257.499 243.5 c 0
 271.166 229.167 290.999 222 316.999 222 c 0
 348.332 222 370.832 235 384.499 261 c 0
EndSplineSet
EndChar

StartChar: A
Encoding: 65 65 36
Width: 500
GlyphClass: 2
Flags: W
AnchorPoint: "Anchor-8" 0 0 basechar 0
AnchorPoint: "Anchor-7" 0 0 basechar 0
AnchorPoint: "Anchor-6" 250 623 basechar 0
AnchorPoint: "Anchor-5" 414 0 basechar 0
AnchorPoint: "Anchor-4" 250 0 basechar 0
LayerCount: 2
Fore
SplineSet
412 0 m 1
 349 182 l 1
 148 182 l 1
 85 0 l 1
 16 0 l 1
 246 634 l 1
 254 634 l 1
 484 0 l 1
 412 0 l 1
167 236 m 1
 331 236 l 1
 249 474 l 1
 167 236 l 1
EndSplineSet
Substitution2: "Single Substitution lookup 28 subtable" ordfeminine
Substitution2: "'aalt' +MFkweTBmMG51cE9TW1cweDBuMKIwrzC7MLkA in +MOkwxjDzZYdbVwAA lookup 0 subtable" ordfeminine
EndChar

StartChar: B
Encoding: 66 66 37
Width: 500
GlyphClass: 2
Flags: W
AnchorPoint: "Anchor-8" 0 0 basechar 0
AnchorPoint: "Anchor-7" 0 0 basechar 0
AnchorPoint: "Anchor-6" 250 623 basechar 0
AnchorPoint: "Anchor-5" 0 0 basechar 0
AnchorPoint: "Anchor-4" 250 0 basechar 0
LayerCount: 2
Fore
SplineSet
48 623 m 1
 225 623.001 l 2
 294.333 623.001 346.166 609.501 380.499 582.501 c 0
 414.832 555.501 431.999 518.668 431.999 472.001 c 0
 431.999 441.334 423.832 413.167 407.499 387.501 c 0
 391.166 361.834 368.666 344.001 339.999 334.001 c 1
 374.666 322.001 402.833 301.168 424.5 271.501 c 0
 446.167 241.834 457 209.667 457 175 c 0
 457 120.333 437.667 77.5 399 46.5 c 0
 360.333 15.5 302 0 224 0 c 2
 48 0 l 1
 48 623 l 1
215 365.001 m 2
 313 365.001 362 398.001 362 464.001 c 0
 362 494.001 351 518.168 329 536.501 c 0
 307 554.834 272.667 564.001 226 564.001 c 2
 117 564.001 l 1
 117 365.001 l 1
 215 365.001 l 2
236 61.001 m 2
 334 61.001 383 100.334 383 179.001 c 0
 383 263.668 328.333 306.001 219 306.001 c 2
 117 306.001 l 1
 117 61.001 l 1
 236 61.001 l 2
EndSplineSet
EndChar

StartChar: C
Encoding: 67 67 38
Width: 500
GlyphClass: 2
Flags: W
AnchorPoint: "Anchor-8" 0 0 basechar 0
AnchorPoint: "Anchor-7" 0 0 basechar 0
AnchorPoint: "Anchor-6" 270 623 basechar 0
AnchorPoint: "Anchor-5" 0 0 basechar 0
AnchorPoint: "Anchor-4" 280 0 basechar 0
LayerCount: 2
Fore
SplineSet
353 70.5 m 0
 375.667 84.167 393.999 102.666 407.999 125.999 c 1
 459.999 91.999 l 1
 439.332 57.999 414.999 32.499 386.999 15.499 c 0
 358.999 -1.50098 324.999 -10.001 284.999 -10.001 c 0
 238.332 -10.001 196.832 1.49902 160.499 24.499 c 0
 124.166 47.499 95.166 82.666 73.499 129.999 c 0
 51.832 177.332 40.999 236.665 40.999 307.998 c 0
 40.999 384.665 52.666 446.832 75.999 494.499 c 0
 99.332 542.167 128.999 576.334 164.999 597 c 0
 200.999 617.667 239.666 628 280.999 628 c 0
 324.999 628 363.166 617 395.499 595 c 0
 427.832 573 452.332 543 468.999 505 c 1
 408.999 477 l 2
 408.332 477 407.999 477.333 407.999 478 c 1
 407.999 478 l 1
 390.666 512.667 371.333 537 350 551 c 0
 328.667 565 305 572 279 572 c 0
 226.333 572 184.833 549.167 154.5 503.5 c 0
 124.167 457.833 109 394.333 109 313 c 0
 109 261.667 116.667 216 132 176 c 0
 147.333 136 168.166 105 194.499 83 c 0
 220.832 61 249.999 50 281.999 50 c 0
 306.666 50 330.333 56.833 353 70.5 c 0
398.999 481.999 m 2
 400.332 481.999 402.999 479.999 406.999 475.999 c 1
 399.999 472.999 l 1
 396.999 479.999 l 1
 398.999 481.999 l 2
406.999 475.999 m 1
 408.999 476.999 l 1
 411.666 470.999 410.999 470.666 406.999 475.999 c 1
EndSplineSet
EndChar

StartChar: D
Encoding: 68 68 39
Width: 500
GlyphClass: 2
Flags: W
AnchorPoint: "Anchor-8" 0 0 basechar 0
AnchorPoint: "Anchor-7" 250 312 basechar 0
AnchorPoint: "Anchor-6" 220 623 basechar 0
AnchorPoint: "Anchor-5" 0 0 basechar 0
AnchorPoint: "Anchor-4" 250 0 basechar 0
LayerCount: 2
Fore
SplineSet
54 623 m 1
 199.001 623.001 l 2
 250.334 623.001 291.001 616.168 321.001 602.501 c 0
 351.001 588.834 377.001 567.334 399.001 538.001 c 0
 439.668 483.334 460.001 406.667 460.001 308 c 1
 456.001 207.333 432.668 130.5 390.001 77.5 c 0
 347.334 24.5 279.667 -1.66699 187 -1 c 2
 54 -1 l 1
 54 623 l 1
184.001 54.001 m 2
 321.334 54.001 390.001 137.334 390.001 304.001 c 0
 389.334 388.668 373.667 453.168 343.001 497.501 c 0
 312.334 541.834 263.001 564.001 195.001 564.001 c 2
 120.001 564.001 l 1
 120.001 54.001 l 1
 184.001 54.001 l 2
EndSplineSet
EndChar

StartChar: E
Encoding: 69 69 40
Width: 500
GlyphClass: 2
Flags: W
AnchorPoint: "Anchor-8" 0 0 basechar 0
AnchorPoint: "Anchor-7" 0 0 basechar 0
AnchorPoint: "Anchor-6" 270 623 basechar 0
AnchorPoint: "Anchor-5" 450 10 basechar 0
AnchorPoint: "Anchor-4" 250 0 basechar 0
LayerCount: 2
Fore
SplineSet
59 0 m 1
 59 624 l 1
 441 624 l 1
 441 562 l 1
 125 562 l 1
 125 357 l 1
 386 357 l 1
 386 293 l 1
 125 293 l 1
 125 62 l 1
 438 62 l 1
 438 0 l 1
 59 0 l 1
EndSplineSet
EndChar

StartChar: F
Encoding: 70 70 41
Width: 500
GlyphClass: 2
Flags: W
AnchorPoint: "Anchor-8" 0 0 basechar 0
AnchorPoint: "Anchor-7" 0 0 basechar 0
AnchorPoint: "Anchor-6" 250 623 basechar 0
AnchorPoint: "Anchor-5" 0 0 basechar 0
AnchorPoint: "Anchor-4" 250 0 basechar 0
LayerCount: 2
Fore
SplineSet
78 0 m 1
 78 624 l 1
 437 624 l 1
 437 563 l 1
 148 563 l 1
 148 367 l 1
 381 367 l 1
 381 306 l 1
 148 306 l 1
 148 0 l 1
 78 0 l 1
EndSplineSet
EndChar

StartChar: G
Encoding: 71 71 42
Width: 500
GlyphClass: 2
Flags: W
AnchorPoint: "Anchor-8" 0 0 basechar 0
AnchorPoint: "Anchor-7" 0 0 basechar 0
AnchorPoint: "Anchor-6" 274 623 basechar 0
AnchorPoint: "Anchor-5" 0 0 basechar 0
AnchorPoint: "Anchor-4" 266 0 basechar 0
LayerCount: 2
Fore
SplineSet
460 299 m 1
 459.998 54.999 l 1
 400.665 11.666 339.665 -10.001 276.998 -10.001 c 0
 227.665 -10.001 184.832 2.99902 148.499 28.999 c 0
 112.166 54.999 84.333 91.666 65 138.999 c 0
 45.667 186.332 36 241.332 36 303.999 c 0
 35.333 386.666 47.333 452.166 72 500.499 c 0
 96.667 548.832 127 582.499 163 601.499 c 0
 199 620.499 235.333 629.999 272 629.999 c 0
 309.333 629.999 345.333 620.332 380 600.999 c 0
 414.667 581.663 440.667 556.33 458 524.999 c 1
 409 485.999 l 1
 408 484.999 l 1
 385.333 514.999 364.333 536.332 345 548.999 c 0
 325.667 561.666 301.667 567.999 273 567.999 c 0
 223 567.999 182.5 548.666 151.5 509.999 c 0
 120.5 471.332 105 407.665 105 318.999 c 0
 105 233.666 120.167 167.833 150.5 121.5 c 0
 180.833 75.167 223 52 277 52 c 0
 297 52 318 55.167 340 61.5 c 0
 362 67.833 380.333 77.333 395 90 c 1
 395 238 l 1
 282 238 l 1
 282 299 l 1
 460 299 l 1
405.998 483.999 m 1
 400.998 478.999 l 1
 396.998 484.999 l 1
 396.998 488.999 399.998 488.666 405.998 483.999 c 1
405.998 483.999 m 1
 407.998 484.999 l 1
 411.325 480.332 410.658 479.999 405.998 483.999 c 1
EndSplineSet
EndChar

StartChar: H
Encoding: 72 72 43
Width: 500
GlyphClass: 2
Flags: W
AnchorPoint: "Anchor-8" 0 0 basechar 0
AnchorPoint: "Anchor-7" 250 312 basechar 0
AnchorPoint: "Anchor-6" 250 623 basechar 0
AnchorPoint: "Anchor-5" 0 0 basechar 0
AnchorPoint: "Anchor-4" 250 0 basechar 0
LayerCount: 2
Fore
SplineSet
50 623 m 1
 132 623 l 1
 132 616 l 1
 128 612 125.5 607.667 124.5 603 c 0
 123.5 598.333 123 590.333 123 579 c 2
 123 357 l 1
 367 357 l 1
 367 623 l 1
 449 623 l 1
 449 616 l 1
 445 612 442.5 607.667 441.5 603 c 0
 440.5 598.333 440 590.333 440 579 c 2
 440 0 l 1
 366 0 l 1
 366 297 l 1
 123 297 l 1
 123 0 l 1
 50 0 l 1
 50 623 l 1
EndSplineSet
EndChar

StartChar: I
Encoding: 73 73 44
Width: 500
GlyphClass: 2
Flags: W
AnchorPoint: "Anchor-8" 0 0 basechar 0
AnchorPoint: "Anchor-7" 0 0 basechar 0
AnchorPoint: "Anchor-6" 239 623 basechar 0
AnchorPoint: "Anchor-5" 353 0 basechar 0
AnchorPoint: "Anchor-4" 250 0 basechar 0
LayerCount: 2
Fore
SplineSet
81 0 m 1
 81 59 l 1
 204 59 l 1
 204 564 l 1
 88 564 l 1
 88 623 l 1
 397 623 l 1
 397 564 l 1
 274 564 l 1
 274 58 l 1
 403 58 l 1
 403 0 l 1
 81 0 l 1
EndSplineSet
EndChar

StartChar: J
Encoding: 74 74 45
Width: 500
GlyphClass: 2
Flags: W
AnchorPoint: "Anchor-8" 0 0 basechar 0
AnchorPoint: "Anchor-7" 0 0 basechar 0
AnchorPoint: "Anchor-6" 330 623 basechar 0
AnchorPoint: "Anchor-5" 0 0 basechar 0
AnchorPoint: "Anchor-4" 250 0 basechar 0
LayerCount: 2
Fore
SplineSet
361 564 m 1
 360.999 209.001 l 1
 362.331 158.334 355.664 116.667 340.999 84 c 0
 326.332 51.333 306.499 27.333 281.499 12 c 0
 256.499 -3.33301 228.666 -11 197.999 -11 c 0
 136.666 -11 86.999 12 48.999 58 c 1
 88.999 108 l 1
 89.999 109 l 1
 90.999 108 l 2
 109.666 88 126.833 73.5 142.5 64.5 c 0
 158.167 55.5 176 51 196 51 c 0
 230 51 254.5 62.833 269.5 86.5 c 0
 284.5 110.167 292 150.667 292 208 c 2
 292 564 l 1
 172 564 l 1
 172 623 l 1
 457 623 l 1
 457 564 l 1
 361 564 l 1
97.999 108.501 m 0
 95.999 108.836 93.999 109.67 91.999 111.002 c 1
 95.999 116.002 l 1
 100.999 112.002 l 1
 100.999 109.334 99.999 108.167 97.999 108.501 c 0
87.999 113.002 m 0
 89.999 112.335 91.332 111.669 91.999 111.002 c 2
 89.999 109.002 l 1
 86.666 112.336 85.999 113.669 87.999 113.002 c 0
EndSplineSet
EndChar

StartChar: K
Encoding: 75 75 46
Width: 500
GlyphClass: 2
Flags: W
LayerCount: 2
Fore
SplineSet
166 312 m 1
 117 258 l 1
 117 0 l 1
 42 0 l 1
 42 623 l 1
 126 623 l 1
 126 616 l 1
 122 612 119.5 607.667 118.5 603 c 0
 117.5 598.333 117 590.333 117 579 c 2
 117 336 l 1
 377 628 l 1
 393.667 624.667 411 623 429 623 c 2
 455 623 l 1
 219 354 l 1
 471 0 l 1
 381 -4 l 1
 166 312 l 1
EndSplineSet
EndChar

StartChar: L
Encoding: 76 76 47
Width: 500
GlyphClass: 2
Flags: W
AnchorPoint: "Anchor-8" 180 457 basechar 0
AnchorPoint: "Anchor-7" 107 312 basechar 0
AnchorPoint: "Anchor-6" 200 623 basechar 0
AnchorPoint: "Anchor-5" 0 0 basechar 0
AnchorPoint: "Anchor-4" 250 0 basechar 0
LayerCount: 2
Fore
SplineSet
66 623 m 1
 148 623 l 1
 148 616 l 1
 144 612 141.5 607.667 140.5 603 c 0
 139.5 598.333 139 590.333 139 579 c 2
 139 60 l 1
 439 60 l 1
 439 0 l 1
 66 0 l 1
 66 623 l 1
EndSplineSet
EndChar

StartChar: M
Encoding: 77 77 48
Width: 500
GlyphClass: 2
Flags: W
AnchorPoint: "Anchor-8" 0 0 basechar 0
AnchorPoint: "Anchor-7" 0 0 basechar 0
AnchorPoint: "Anchor-6" 250 623 basechar 0
AnchorPoint: "Anchor-5" 0 0 basechar 0
AnchorPoint: "Anchor-4" 250 0 basechar 0
LayerCount: 2
Fore
SplineSet
41 0 m 1
 41 623 l 1
 96 623 l 1
 250 318 l 1
 407 624 l 1
 460 624 l 1
 460 0 l 1
 394 0 l 1
 394 470 l 1
 259 219 l 1
 232 219 l 1
 106 467 l 1
 106 0 l 1
 41 0 l 1
EndSplineSet
EndChar

StartChar: N
Encoding: 78 78 49
Width: 500
GlyphClass: 2
Flags: W
AnchorPoint: "Anchor-8" 0 0 basechar 0
AnchorPoint: "Anchor-7" 0 0 basechar 0
AnchorPoint: "Anchor-6" 250 623 basechar 0
AnchorPoint: "Anchor-5" 0 0 basechar 0
AnchorPoint: "Anchor-4" 250 0 basechar 0
LayerCount: 2
Fore
SplineSet
50 623 m 1
 118 623 l 1
 380 161 l 1
 380 623 l 1
 456 623 l 1
 456 616 l 1
 452 612 449.5 607.667 448.5 603 c 0
 447.5 598.333 447 590.333 447 579 c 2
 447 0 l 1
 392 0 l 1
 117 490 l 1
 117 0 l 1
 50 0 l 1
 50 623 l 1
EndSplineSet
EndChar

StartChar: O
Encoding: 79 79 50
Width: 500
GlyphClass: 2
Flags: W
AnchorPoint: "Anchor-8" 379 584 basechar 0
AnchorPoint: "Anchor-7" 250 312 basechar 0
AnchorPoint: "Anchor-6" 250 623 basechar 0
AnchorPoint: "Anchor-5" 287 10 basechar 0
AnchorPoint: "Anchor-4" 250 0 basechar 0
LayerCount: 2
Fore
SplineSet
85 72 m 0
 46.333 127.333 27 206 27 308 c 0
 27 407.333 46.5 485.333 85.5 542 c 0
 124.5 598.667 179.333 627 250 627 c 0
 320.667 627 375.5 598.667 414.5 542 c 0
 453.5 485.333 473 407.333 473 308 c 0
 473 206 453.667 127.333 415 72 c 0
 376.333 16.667 321.333 -11 250 -11 c 0
 178.667 -11 123.667 16.667 85 72 c 0
361.5 117 m 0
 387.833 161.667 401 225.333 401 308 c 0
 401 387.334 387.667 450.167 361 496.5 c 0
 334.333 542.833 297.333 566 250 566 c 0
 202.667 566 165.667 542.833 139 496.5 c 0
 112.333 450.167 99 387.334 99 308.001 c 0
 99 225.334 112.167 161.667 138.5 117 c 0
 164.833 72.333 202 50 250 50 c 0
 298 50 335.167 72.333 361.5 117 c 0
EndSplineSet
Substitution2: "Single Substitution lookup 28 subtable" ordmasculine
Substitution2: "'aalt' +MFkweTBmMG51cE9TW1cweDBuMKIwrzC7MLkA in +MOkwxjDzZYdbVwAA lookup 0 subtable" ordmasculine
EndChar

StartChar: P
Encoding: 80 80 51
Width: 500
GlyphClass: 2
Flags: W
AnchorPoint: "Anchor-8" 0 0 basechar 0
AnchorPoint: "Anchor-7" 0 0 basechar 0
AnchorPoint: "Anchor-6" 250 623 basechar 0
AnchorPoint: "Anchor-5" 0 0 basechar 0
AnchorPoint: "Anchor-4" 93 0 basechar 0
LayerCount: 2
Fore
SplineSet
59 623 m 1
 259 623 l 2
 325 623 374.333 606.667 407 574 c 0
 439.667 541.333 456 499 456 447 c 0
 456 395.667 440 354.167 408 322.5 c 0
 376 290.833 328 275 264 275 c 2
 131 275 l 1
 131 0 l 1
 59 0 l 1
 59 623 l 1
256 337 m 2
 300 337 332.333 346.5 353 365.5 c 0
 373.667 384.5 384 411 384 445 c 0
 384 477.667 373.333 504.5 352 525.5 c 0
 330.667 546.5 299 557 257 557 c 2
 131 557 l 1
 131 337 l 1
 256 337 l 2
EndSplineSet
EndChar

StartChar: Q
Encoding: 81 81 52
Width: 500
GlyphClass: 2
Flags: W
AnchorPoint: "Anchor-8" 0 0 basechar 0
AnchorPoint: "Anchor-7" 0 0 basechar 0
AnchorPoint: "Anchor-6" 250 623 basechar 0
AnchorPoint: "Anchor-5" 0 0 basechar 0
AnchorPoint: "Anchor-4" 250 0 basechar 0
LayerCount: 2
Fore
SplineSet
265 -117.5 m 0
 239 -96.5 225.999 -59.667 225.999 -7 c 1
 191.332 -2.33301 158.999 12.5 128.999 37.5 c 0
 98.999 62.5 74.832 97.833 56.499 143.5 c 0
 38.166 189.167 28.999 244 28.999 308 c 0
 28.999 385.333 40.332 448 62.999 496 c 0
 85.666 544 113.833 578.333 147.5 599 c 0
 181.167 619.667 215.667 630 251 630 c 0
 291 630 328 618.667 362 596 c 0
 396 573.333 423 538 443 490 c 0
 463 442 472.333 382.333 471 311 c 1
 471 219 455.5 146.333 424.5 93 c 0
 393.5 39.667 347.667 6.33398 287 -6.99902 c 1
 288.333 -31.666 294.5 -50.333 305.5 -63 c 0
 316.5 -75.667 335 -82 361 -82 c 1
 442 -77 l 1
 440 -145 l 1
 401 -145 l 1
 336.333 -147.667 291 -138.5 265 -117.5 c 0
326.499 79.5 m 0
 348.832 95.833 367.333 121.833 382 157.5 c 0
 396.667 193.167 404 238.667 404 294 c 0
 404 363.333 396.167 418.333 380.5 459 c 0
 364.833 499.667 345.5 528.167 322.5 544.5 c 0
 299.5 560.833 275.667 569 251 569 c 0
 201.667 569 163.667 545.167 137 497.5 c 0
 110.333 449.833 97 391.666 97 323 c 0
 97 243 111.167 178.333 139.5 129 c 0
 167.833 79.667 206.666 55 255.999 55 c 0
 280.666 55 304.166 63.167 326.499 79.5 c 0
EndSplineSet
EndChar

StartChar: R
Encoding: 82 82 53
Width: 500
GlyphClass: 2
Flags: W
AnchorPoint: "Anchor-8" 0 0 basechar 0
AnchorPoint: "Anchor-7" 0 0 basechar 0
AnchorPoint: "Anchor-6" 250 623 basechar 0
AnchorPoint: "Anchor-5" 0 0 basechar 0
AnchorPoint: "Anchor-4" 250 0 basechar 0
LayerCount: 2
Fore
SplineSet
56 623 m 1
 239.999 623 l 2
 310.666 623 362.833 607.333 396.5 576 c 0
 430.167 544.667 447 501 447 445 c 0
 447 408.333 435.167 373.666 411.5 341 c 0
 387.833 308.333 357.333 287.333 320 278 c 1
 464 0 l 1
 386 0 l 1
 248 275 l 1
 127 275 l 1
 127 0 l 1
 56 0 l 1
 56 623 l 1
247.999 337 m 2
 291.332 337 323.332 346.5 343.999 365.5 c 0
 364.666 384.5 374.999 411 374.999 445 c 0
 374.999 478.333 364.499 505.333 343.499 526 c 0
 322.499 546.667 290.666 557 247.999 557 c 2
 126.999 557 l 1
 126.999 337 l 1
 247.999 337 l 2
EndSplineSet
EndChar

StartChar: S
Encoding: 83 83 54
Width: 500
GlyphClass: 2
Flags: W
AnchorPoint: "Anchor-8" 0 0 basechar 0
AnchorPoint: "Anchor-7" 0 0 basechar 0
AnchorPoint: "Anchor-6" 261 623 basechar 0
AnchorPoint: "Anchor-5" 0 0 basechar 0
AnchorPoint: "Anchor-4" 247 0 basechar 0
LayerCount: 2
Fore
SplineSet
421 268 m 0
 443.667 242 454.999 209.332 454.999 169.999 c 0
 454.999 139.332 447.499 110.332 432.499 82.999 c 0
 417.499 55.666 394.332 33.333 362.999 16 c 0
 331.666 -1.33301 292.999 -10 246.999 -10 c 0
 166.332 -10 101.332 16.333 51.999 69 c 1
 87.999 132 l 1
 87.999 133 l 2
 88.666 133 88.999 132.667 88.999 132 c 1
 88.999 132 l 1
 106.999 108 130.166 88.833 158.499 74.5 c 0
 186.832 60.167 219.665 53 256.998 53 c 0
 293.665 53 324.332 63.333 348.999 84 c 0
 373.666 104.667 385.999 130 385.999 160 c 0
 385.999 179.333 382.166 195.5 374.499 208.5 c 0
 366.832 221.5 352.999 234.333 332.999 247 c 0
 312.999 259.667 282.999 274.667 242.999 292 c 1
 181.666 316 137.833 343.333 111.5 374 c 0
 85.167 404.667 72 439 72 477 c 0
 72 523.667 89 561 123 589 c 0
 157 617 203.333 631 262 631 c 0
 296 631 327.833 624.167 357.5 610.5 c 0
 387.167 596.833 413 577.666 435 552.999 c 1
 396 500.999 l 1
 395 499.999 l 1
 375 527.332 354.167 546.332 332.5 556.999 c 0
 310.833 567.666 283.666 572.999 251 572.999 c 0
 219 572.999 193.167 564.166 173.5 546.499 c 0
 153.833 528.832 144 507.332 144 481.999 c 0
 144 462.666 148.167 445.833 156.5 431.5 c 0
 164.833 417.167 180 403.167 202 389.5 c 0
 224 375.833 256 360.666 298 344 c 0
 357.333 319.333 398.333 294 421 268 c 0
383.999 497.999 m 2
 383.999 499.999 385.331 500.332 387.998 498.999 c 0
 390.665 497.666 392.332 496.999 392.999 496.999 c 2
 389.999 492.999 l 1
 383.999 496.999 l 1
 383.999 497.999 l 2
397.498 494.499 m 0
 395.165 496.166 393.665 496.998 392.998 496.998 c 2
 394.998 499.998 l 1
 398.998 494.665 399.831 492.832 397.498 494.499 c 0
98.998 135.998 m 2
 98.998 133.998 97.665 133.665 94.998 134.998 c 0
 92.3311 136.331 90.6641 136.998 89.998 136.998 c 2
 91.998 140.998 l 1
 98.998 136.998 l 1
 98.998 135.998 l 2
89.998 136.998 m 1
 87.998 132.999 l 1
 83.998 138.332 84.665 139.665 89.998 136.998 c 1
EndSplineSet
EndChar

StartChar: T
Encoding: 84 84 55
Width: 500
GlyphClass: 2
Flags: W
AnchorPoint: "Anchor-8" 0 0 basechar 0
AnchorPoint: "Anchor-7" 244 312 basechar 0
AnchorPoint: "Anchor-6" 250 623 basechar 0
AnchorPoint: "Anchor-5" 0 0 basechar 0
AnchorPoint: "Anchor-4" 250 0 basechar 0
LayerCount: 2
Fore
SplineSet
208 0 m 1
 208 561 l 1
 31 561 l 1
 31 624 l 1
 463 624 l 1
 463 561 l 1
 279 561 l 1
 279 0 l 1
 208 0 l 1
EndSplineSet
EndChar

StartChar: U
Encoding: 85 85 56
Width: 500
GlyphClass: 2
Flags: W
AnchorPoint: "Anchor-8" 454 623 basechar 0
AnchorPoint: "Anchor-7" 0 0 basechar 0
AnchorPoint: "Anchor-6" 250 623 basechar 0
AnchorPoint: "Anchor-5" 302 10 basechar 0
AnchorPoint: "Anchor-4" 250 0 basechar 0
LayerCount: 2
Fore
SplineSet
101 48 m 0
 67 87.333 50 143 50 215 c 2
 50 623 l 1
 128 623 l 1
 128 616 l 1
 124 612 121.5 607.667 120.5 603 c 0
 119.5 598.333 119 590.333 119 579 c 2
 119 214 l 2
 119 160.667 129.333 119.667 150 91 c 0
 170.667 62.333 204.667 48 252 48 c 0
 300 48 334.5 62.333 355.5 91 c 0
 376.5 119.667 387 161.667 387 217 c 2
 387 623 l 1
 454 623 l 1
 454 218 l 2
 454 141.333 436.167 84 400.5 46 c 0
 364.833 8 315 -11 251 -11 c 0
 185 -11 135 8.66699 101 48 c 0
EndSplineSet
EndChar

StartChar: V
Encoding: 86 86 57
Width: 500
GlyphClass: 2
Flags: W
AnchorPoint: "Anchor-8" 0 0 basechar 0
AnchorPoint: "Anchor-7" 0 0 basechar 0
AnchorPoint: "Anchor-6" 250 623 basechar 0
AnchorPoint: "Anchor-5" 0 0 basechar 0
AnchorPoint: "Anchor-4" 250 0 basechar 0
LayerCount: 2
Fore
SplineSet
237 -4 m 1
 25 624 l 1
 98 624 l 1
 258 145 l 1
 409 623 l 1
 478 623 l 1
 269 -4 l 1
 237 -4 l 1
EndSplineSet
EndChar

StartChar: W
Encoding: 87 87 58
Width: 500
GlyphClass: 2
Flags: W
AnchorPoint: "Anchor-8" 0 0 basechar 0
AnchorPoint: "Anchor-7" 0 0 basechar 0
AnchorPoint: "Anchor-6" 260 623 basechar 0
AnchorPoint: "Anchor-5" 0 0 basechar 0
AnchorPoint: "Anchor-4" 254 0 basechar 0
LayerCount: 2
Fore
SplineSet
117 0 m 1
 17 623 l 1
 82 623 l 1
 149 202 l 1
 249 577 l 1
 271 577 l 1
 372 200 l 1
 429 623 l 1
 488 623 l 1
 389 0 l 1
 362 0 l 1
 255 407 l 1
 146 0 l 1
 117 0 l 1
EndSplineSet
EndChar

StartChar: X
Encoding: 88 88 59
Width: 500
GlyphClass: 2
Flags: W
AnchorPoint: "Anchor-8" 0 0 basechar 0
AnchorPoint: "Anchor-7" 0 0 basechar 0
AnchorPoint: "Anchor-6" 250 623 basechar 0
AnchorPoint: "Anchor-5" 0 0 basechar 0
AnchorPoint: "Anchor-4" 250 0 basechar 0
LayerCount: 2
Fore
SplineSet
41 0 m 1
 211 318 l 1
 44 624 l 1
 119 624 l 1
 250 387 l 1
 379 624 l 1
 449 624 l 1
 291 319 l 1
 468 0 l 1
 389 0 l 1
 251 247 l 1
 117 0 l 1
 41 0 l 1
EndSplineSet
EndChar

StartChar: Y
Encoding: 89 89 60
Width: 500
GlyphClass: 2
Flags: W
AnchorPoint: "Anchor-8" 0 0 basechar 0
AnchorPoint: "Anchor-7" 0 0 basechar 0
AnchorPoint: "Anchor-6" 250 623 basechar 0
AnchorPoint: "Anchor-5" 0 0 basechar 0
AnchorPoint: "Anchor-4" 258 0 basechar 0
LayerCount: 2
Fore
SplineSet
220 0 m 1
 220 246 l 1
 28 623 l 1
 108 623 l 1
 261 321 l 1
 399 623 l 1
 473 623 l 1
 296 246 l 1
 296 0 l 1
 220 0 l 1
EndSplineSet
EndChar

StartChar: Z
Encoding: 90 90 61
Width: 500
GlyphClass: 2
Flags: W
AnchorPoint: "Anchor-8" 0 0 basechar 0
AnchorPoint: "Anchor-7" 0 0 basechar 0
AnchorPoint: "Anchor-6" 260 623 basechar 0
AnchorPoint: "Anchor-5" 0 0 basechar 0
AnchorPoint: "Anchor-4" 270 0 basechar 0
LayerCount: 2
Fore
SplineSet
50 49 m 1
 364 560 l 1
 62 560 l 1
 62 623 l 1
 447 623 l 1
 447 574 l 1
 138 62 l 1
 419 62 l 2
 429.667 62 437.5 62.667 442.5 64 c 0
 447.5 65.333 452 68 456 72 c 1
 463 72 l 1
 463 0 l 1
 50 0 l 1
 50 49 l 1
EndSplineSet
EndChar

StartChar: bracketleft
Encoding: 91 91 62
Width: 500
GlyphClass: 2
Flags: W
LayerCount: 2
Fore
SplineSet
131 -89 m 1
 131 670 l 1
 417 670 l 1
 417 610 l 1
 195 610 l 1
 195 -32 l 1
 418 -32 l 1
 418 -89 l 1
 131 -89 l 1
EndSplineSet
EndChar

StartChar: backslash
Encoding: 92 92 63
Width: 500
GlyphClass: 2
Flags: W
LayerCount: 2
Fore
SplineSet
378 -42 m 1
 64 634 l 1
 123 665 l 1
 437 -13 l 1
 378 -42 l 1
EndSplineSet
EndChar

StartChar: bracketright
Encoding: 93 93 64
Width: 500
GlyphClass: 2
Flags: W
LayerCount: 2
Fore
SplineSet
418 -89 m 1
 131 -89 l 1
 131 -32 l 1
 354 -32 l 1
 354 610 l 1
 132 610 l 1
 132 670 l 1
 418 670 l 1
 418 -89 l 1
EndSplineSet
EndChar

StartChar: asciicircum
Encoding: 94 94 65
Width: 500
GlyphClass: 2
Flags: W
LayerCount: 2
Fore
SplineSet
143 343 m 1
 93 367 l 1
 246 623 l 1
 268 623 l 1
 403 368 l 1
 350 343 l 1
 253 518 l 1
 143 343 l 1
EndSplineSet
Substitution2: "'ss01' +MLkwvzCkMOswuzDDMMgA-1 in +MOkwxjDzZYdbVwAA lookup 25 subtable" asciicircum.ss01
Substitution2: "'salt' +W+l/jnaEUiVbV19i in +MOkwxjDzZYdbVwAA lookup 24 subtable" asciicircum.ss01
Substitution2: "'aalt' +MFkweTBmMG51cE9TW1cweDBuMKIwrzC7MLkA in +MOkwxjDzZYdbVwAA lookup 0 subtable" asciicircum.ss01
EndChar

StartChar: underscore
Encoding: 95 95 66
Width: 500
GlyphClass: 2
Flags: W
LayerCount: 2
Fore
SplineSet
35 -80 m 1
 35 -19 l 1
 466 -19 l 1
 466 -80 l 1
 35 -80 l 1
EndSplineSet
EndChar

StartChar: grave
Encoding: 96 96 67
Width: 500
GlyphClass: 4
Flags: W
AnchorPoint: "Anchor-10" 229 609 basemark 0
LayerCount: 2
Fore
SplineSet
255 507 m 1
 154 642 l 1
 209 682 l 1
 293 533 l 1
 255 507 l 1
EndSplineSet
Substitution2: "Single Substitution lookup 28 subtable" grave.case
Substitution2: "'case' +WSdlh1tXfUQwf3UoMGuKv2V0MFcwX1tXX2IA in +MOkwxjDzZYdbVwAA lookup 22 subtable" grave.case
Substitution2: "'aalt' +MFkweTBmMG51cE9TW1cweDBuMKIwrzC7MLkA in +MOkwxjDzZYdbVwAA lookup 0 subtable" grave.case
EndChar

StartChar: a
Encoding: 97 97 68
Width: 500
GlyphClass: 2
Flags: W
AnchorPoint: "Anchor-8" 0 0 basechar 0
AnchorPoint: "Anchor-7" 0 0 basechar 0
AnchorPoint: "Anchor-6" 250 457 basechar 0
AnchorPoint: "Anchor-5" 385 0 basechar 0
AnchorPoint: "Anchor-4" 250 0 basechar 0
LayerCount: 2
Fore
SplineSet
393.5 416 m 0
 427.833 382 445.001 324.333 445.001 243 c 2
 445.001 0 l 1
 367.001 0 l 1
 367.001 70 l 1
 339.001 16 287.001 -11 211.001 -11 c 0
 160.334 -11 120.667 0.5 92 23.5 c 0
 63.333 46.5 49 77 49 115 c 0
 49 147 59.333 175 80 199 c 0
 100.667 223 128.5 241.5 163.5 254.5 c 0
 198.5 267.5 237 274 279 274 c 0
 317 274 351.333 272 382 268 c 1
 378 319.333 364.5 355.5 341.5 376.5 c 0
 318.5 397.5 284.333 408 239 408 c 0
 216.333 408 194.5 403.667 173.5 395 c 0
 152.5 386.332 133.333 373.665 116 357 c 1
 81 403 l 1
 123.667 445.667 178 467 244 467 c 0
 309.334 467 359.167 450 393.5 416 c 0
335.001 87.5 m 0
 363.668 116.5 379.334 158.333 382.001 213 c 1
 352.001 217.667 319.668 220 285.001 220 c 0
 234.334 220 194.334 211.667 165.001 195 c 0
 135.668 178.333 121.001 153 121.001 119 c 0
 121.001 69 153.334 44 218.001 44 c 0
 267.334 44 306.334 58.5 335.001 87.5 c 0
EndSplineSet
Substitution2: "Single Substitution lookup 28 subtable" ordfeminine
Substitution2: "'aalt' +MFkweTBmMG51cE9TW1cweDBuMKIwrzC7MLkA in +MOkwxjDzZYdbVwAA lookup 0 subtable" ordfeminine
EndChar

StartChar: b
Encoding: 98 98 69
Width: 500
GlyphClass: 2
Flags: W
AnchorPoint: "Anchor-8" 0 0 basechar 0
AnchorPoint: "Anchor-7" 0 0 basechar 0
AnchorPoint: "Anchor-6" 250 457 basechar 0
AnchorPoint: "Anchor-5" 0 0 basechar 0
AnchorPoint: "Anchor-4" 250 0 basechar 0
LayerCount: 2
Fore
SplineSet
190 7.5 m 0
 166.667 19.833 146.999 37.332 130.999 59.999 c 1
 105.999 -0.000976562 l 1
 59.999 -0.000976562 l 1
 59.999 664.999 l 1
 141.999 664.999 l 1
 141.999 657.999 l 1
 137.999 653.999 135.499 649.666 134.499 644.999 c 0
 133.499 640.332 132.999 632.332 132.999 620.999 c 2
 132.999 386.999 l 1
 147.666 411.666 167.499 431.333 192.499 446 c 0
 217.499 460.667 242.999 468 268.999 468 c 0
 326.332 468 371.999 448 405.999 408 c 0
 439.999 368 456.999 309.667 456.999 233 c 0
 456.999 181 447.999 136.5 429.999 99.5 c 0
 411.999 62.5 388.332 34.833 358.999 16.5 c 0
 329.666 -1.83301 298.666 -11 265.999 -11 c 0
 238.666 -11 213.333 -4.83301 190 7.5 c 0
346.999 95.499 m 0
 370.999 123.832 382.998 168.331 382.998 228.998 c 0
 382.998 287.665 371.831 331.832 349.498 361.499 c 0
 327.165 391.166 296.998 405.999 258.998 405.999 c 0
 221.665 405.999 191.332 389.332 167.999 355.999 c 0
 144.666 322.666 132.999 279.666 132.999 226.999 c 0
 132.999 110.999 174.332 52.999 256.999 52.999 c 0
 292.999 52.999 322.999 67.166 346.999 95.499 c 0
EndSplineSet
EndChar

StartChar: c
Encoding: 99 99 70
Width: 500
GlyphClass: 2
Flags: W
AnchorPoint: "Anchor-8" 0 0 basechar 0
AnchorPoint: "Anchor-7" 0 0 basechar 0
AnchorPoint: "Anchor-6" 286 457 basechar 0
AnchorPoint: "Anchor-5" 0 0 basechar 0
AnchorPoint: "Anchor-4" 286 0 basechar 0
LayerCount: 2
Fore
SplineSet
408 110 m 1
 449.999 61 l 1
 405.332 13 350.332 -11 284.999 -11 c 0
 240.999 -11 201.666 -0.666992 166.999 20 c 0
 132.332 40.667 105.165 69.167 85.498 105.5 c 0
 65.8311 141.833 55.998 182.666 55.998 227.999 c 0
 55.998 273.332 65.8311 313.999 85.498 349.999 c 0
 105.165 385.999 132.332 414.332 166.999 434.999 c 0
 201.666 455.666 240.666 465.999 283.999 465.999 c 0
 320.666 465.999 353.999 458.499 383.999 443.499 c 0
 413.999 428.499 438.332 407.666 456.999 380.999 c 1
 411.999 336.999 l 1
 410.999 335.999 l 1
 391.666 361.333 371.833 379.166 351.5 389.499 c 0
 331.167 399.832 306 404.999 276 404.999 c 0
 250 404.999 225.833 397.832 203.5 383.499 c 0
 181.166 369.166 163.333 348.999 150 322.999 c 0
 136.667 296.999 130 266.999 130 232.999 c 0
 130 198.999 136.833 168.332 150.5 140.999 c 0
 164.167 113.666 183.167 92.333 207.5 77 c 0
 231.833 61.667 259 54 289 54 c 0
 335 54 374.667 72.667 408 110 c 1
408.999 334 m 1
 404.999 330 l 1
 399.999 335 l 1
 399.999 339 402.999 338.667 408.999 334 c 1
413.499 331 m 0
 411.832 332.333 410.333 333.333 409 334 c 1
 411 336 l 1
 414.346 331.323 415.179 329.656 413.499 331 c 0
EndSplineSet
EndChar

StartChar: d
Encoding: 100 100 71
Width: 500
GlyphClass: 2
Flags: W
AnchorPoint: "Anchor-8" 470 457 basechar 0
AnchorPoint: "Anchor-7" 360 549 basechar 0
AnchorPoint: "Anchor-6" 250 457 basechar 0
AnchorPoint: "Anchor-5" 0 0 basechar 0
AnchorPoint: "Anchor-4" 250 0 basechar 0
LayerCount: 2
Fore
SplineSet
142 17.5 m 0
 113.333 35.833 90.001 63.332 72.001 99.999 c 0
 54.001 136.666 45.001 180.999 45.001 232.999 c 0
 45.001 285.666 54.334 329.666 73.001 364.999 c 0
 91.668 400.332 115.668 426.499 145.001 443.499 c 0
 174.334 460.499 205.334 468.999 238.001 468.999 c 0
 268.668 468.999 295.501 461.999 318.501 447.999 c 0
 341.501 433.999 359.001 414.666 371.001 389.999 c 1
 371.001 664.999 l 1
 447.001 664.999 l 1
 447.001 657.999 l 1
 443.001 653.999 440.501 649.666 439.501 644.999 c 0
 438.501 640.332 438.001 632.332 438.001 620.999 c 2
 439.001 70.999 l 2
 439.001 54.999 439.501 41.832 440.501 31.499 c 0
 441.501 21.166 444.334 10.666 449.001 -0.000976562 c 1
 378.001 -0.000976562 l 1
 373.334 10.666 370.501 21.166 369.501 31.499 c 0
 368.501 41.832 368.001 54.999 368.001 70.999 c 1
 353.334 45.666 334.501 25.833 311.501 11.5 c 0
 288.501 -2.83301 262.668 -10 234.001 -10 c 0
 201.334 -10 170.667 -0.833008 142 17.5 c 0
336.001 101.999 m 0
 355.334 134.666 365.001 177.666 365.001 230.999 c 0
 365.001 284.999 354.501 328.332 333.501 360.999 c 0
 312.501 393.666 281.001 409.999 239.001 409.999 c 0
 199.001 409.999 168.334 395.166 147.001 365.499 c 0
 125.668 335.832 115.001 295.332 115.001 243.999 c 0
 115.001 185.332 126.168 138.832 148.501 104.499 c 0
 170.834 70.166 203.001 52.999 245.001 52.999 c 0
 286.335 52.999 316.668 69.332 336.001 101.999 c 0
EndSplineSet
EndChar

StartChar: e
Encoding: 101 101 72
Width: 500
GlyphClass: 2
Flags: W
AnchorPoint: "Anchor-8" 0 0 basechar 0
AnchorPoint: "Anchor-7" 0 0 basechar 0
AnchorPoint: "Anchor-6" 260 457 basechar 0
AnchorPoint: "Anchor-5" 318 10 basechar 0
AnchorPoint: "Anchor-4" 280 0 basechar 0
LayerCount: 2
Fore
SplineSet
109.5 52 m 0
 69.167 93.333 48.998 151.667 48.998 227 c 0
 48.998 277 58.3311 320.167 76.998 356.5 c 0
 95.665 392.833 120.832 420.5 152.499 439.5 c 0
 184.166 458.5 219.666 468 258.999 468 c 0
 314.333 468 359.166 449.667 393.499 413 c 0
 427.832 376.333 444.999 322.333 444.999 251 c 0
 444.999 243.667 444.332 232.667 442.999 218 c 1
 117.999 218 l 1
 120.666 162 136.333 119.667 165 91 c 0
 193.667 62.333 230 48 274 48 c 0
 322 48 361.333 65 392 99 c 1
 432 60 l 1
 393.333 13.333 340 -10 272 -10 c 0
 204 -10 149.833 10.667 109.5 52 c 0
371.998 274.001 m 1
 371.998 316.668 361.165 350.501 339.498 375.501 c 0
 317.831 400.501 289.331 413.001 253.998 413.001 c 0
 220.665 413.001 191.665 401.334 166.998 378.001 c 0
 142.331 354.668 126.998 320.001 120.998 274.001 c 1
 371.998 274.001 l 1
EndSplineSet
EndChar

StartChar: f
Encoding: 102 102 73
Width: 500
GlyphClass: 2
Flags: W
LayerCount: 2
Fore
SplineSet
435 555 m 1
 434.001 554.001 l 1
 415.334 577.334 399.501 593.001 386.501 601.001 c 0
 373.501 609.001 355.334 613.001 332.001 613.001 c 0
 300.668 613.001 276.001 603.668 258.001 585.001 c 0
 240.001 566.334 231.001 536.334 231.001 495.001 c 2
 231.001 457.001 l 1
 381.001 457.001 l 1
 381.001 400.001 l 1
 231.001 400.001 l 1
 231.001 0.000976562 l 1
 162.001 0.000976562 l 1
 162.001 400.001 l 1
 63.001 400.001 l 1
 63.001 457.001 l 1
 162.001 457.001 l 1
 162.001 495.001 l 2
 162.001 553.668 177.168 597.668 207.501 627.001 c 0
 237.834 656.334 278.667 671.001 330 671.001 c 0
 359.333 671.001 386.5 665.668 411.5 655.001 c 0
 436.5 644.334 457 628.667 473 608 c 1
 435 555 l 1
423.001 552.001 m 2
 423.001 554.001 424.333 554.334 427 553.001 c 0
 429.667 551.668 431.334 551.001 432.001 551.001 c 2
 429.001 547.001 l 1
 423.001 551.001 l 1
 423.001 552.001 l 2
434 554.001 m 1
 438 548.651 438.833 546.817 436.5 548.501 c 0
 434.167 550.168 432.667 551.001 432 551.001 c 2
 434 554.001 l 1
EndSplineSet
EndChar

StartChar: g
Encoding: 103 103 74
Width: 500
GlyphClass: 2
Flags: W
AnchorPoint: "Anchor-8" 0 0 basechar 0
AnchorPoint: "Anchor-7" 0 0 basechar 0
AnchorPoint: "Anchor-6" 226 457 basechar 0
AnchorPoint: "Anchor-5" 0 0 basechar 0
AnchorPoint: "Anchor-4" 240 -162 basechar 0
LayerCount: 2
Fore
SplineSet
449 411 m 0
 417 411 390.333 403.998 369 389.998 c 1
 380.333 367.331 386 342.331 386 314.998 c 0
 386 284.998 379.5 257.831 366.5 233.498 c 0
 353.5 209.165 334.833 189.998 310.5 175.998 c 0
 286.167 161.998 258 154.998 226 154.998 c 0
 200.667 154.998 177 159.665 155 168.998 c 1
 143 154.331 137 140.331 137 126.998 c 0
 137 110.998 147.167 99.498 167.5 92.498 c 0
 187.833 85.498 224.333 81.998 277 81.998 c 0
 341.667 81.998 385.834 72.165 409.501 52.498 c 0
 433.168 32.8311 445.001 3.99805 445.001 -34.002 c 0
 445.001 -73.335 429.001 -106.168 397.001 -132.501 c 0
 365.001 -158.834 315.001 -172.001 247.001 -172.001 c 0
 181.668 -172.001 130.501 -162.001 93.501 -142.001 c 0
 56.501 -122.001 38.001 -92.668 38.001 -54.001 c 0
 38.001 -30.001 44.668 -9.33398 58.001 7.99902 c 0
 71.334 25.332 88.334 38.999 109.001 48.999 c 1
 87.001 63.666 76.001 83.999 76.001 109.999 c 0
 76.001 136.666 89.668 164.666 117.001 193.999 c 1
 100.334 208.666 87.667 226.333 79 246.999 c 0
 70.333 267.666 66 290.333 66 315 c 0
 66 344.334 72.5 371.167 85.5 395.5 c 0
 98.5 419.833 117.167 439 141.5 453 c 0
 165.833 467 194 474 226 474 c 0
 274.667 474 313.667 458.333 343 427 c 1
 359 441.667 375.5 452.5 392.5 459.5 c 0
 409.5 466.5 428.333 470 449 470 c 1
 466 469 l 1
 475 410 l 1
 469 410.667 460.333 411 449 411 c 0
297.5 243.998 m 0
 316.5 263.331 326 286.998 326 314.998 c 0
 326 342.998 316.5 366.665 297.5 385.998 c 0
 278.5 405.331 254.667 414.998 226 414.998 c 0
 197.333 414.998 173.5 405.331 154.5 385.998 c 0
 135.5 366.665 126 342.998 126 314.998 c 0
 126 286.998 135.5 263.331 154.5 243.998 c 0
 173.5 224.665 197.333 214.998 226 214.998 c 0
 254.667 214.998 278.5 224.665 297.5 243.998 c 0
370.5 -7.50195 m 0
 364.833 1.49805 353.667 8.16602 337.001 12.499 c 0
 320.334 16.832 295.334 18.999 262.001 18.999 c 0
 214.001 18.999 175.668 23.332 147.001 31.999 c 1
 131.001 21.332 119.834 10.332 113.501 -1.00098 c 0
 107.168 -12.334 104.001 -27.334 104.001 -46.001 c 0
 104.001 -68.668 116.668 -86.335 142.001 -99.002 c 0
 167.334 -111.669 202.667 -118.002 248 -118.002 c 0
 292 -118.002 324.833 -111.502 346.5 -98.502 c 0
 368.167 -85.502 379 -67.6689 379 -45.002 c 0
 379 -29.002 376.167 -16.502 370.5 -7.50195 c 0
EndSplineSet
EndChar

StartChar: h
Encoding: 104 104 75
Width: 500
GlyphClass: 2
Flags: W
AnchorPoint: "Anchor-8" 0 0 basechar 0
AnchorPoint: "Anchor-7" 130 549 basechar 0
AnchorPoint: "Anchor-6" 118 665 basechar 0
AnchorPoint: "Anchor-5" 0 0 basechar 0
AnchorPoint: "Anchor-4" 250 0 basechar 0
LayerCount: 2
Fore
SplineSet
73 665 m 1
 152 665 l 1
 152 658 l 1
 148 654 145.5 649.667 144.5 645 c 0
 143.5 640.333 143 632.333 143 621 c 2
 143 376 l 1
 161 404 183.5 426.333 210.5 443 c 0
 237.5 459.667 265 468 293 468 c 0
 336.333 468 370.333 452.667 395 422 c 0
 419.667 391.333 432 343 432 277 c 2
 432 0 l 1
 362 0 l 1
 362 275 l 2
 362 320.333 354.333 353.333 339 374 c 0
 323.667 394.667 303.334 405 278.001 405 c 0
 256.668 405 235.668 399.167 215.001 387.5 c 0
 194.334 375.833 177.167 359.166 163.5 337.5 c 0
 149.833 315.833 143 291 143 263 c 2
 143 0 l 1
 73 0 l 1
 73 665 l 1
EndSplineSet
EndChar

StartChar: i
Encoding: 105 105 76
Width: 500
GlyphClass: 2
Flags: W
AnchorPoint: "Anchor-8" 0 0 basechar 0
AnchorPoint: "Anchor-7" 0 0 basechar 0
AnchorPoint: "Anchor-6" 250 605 basechar 0
AnchorPoint: "Anchor-5" 346 0 basechar 0
AnchorPoint: "Anchor-4" 250 0 basechar 0
LayerCount: 2
Fore
SplineSet
100 0 m 1
 100 58 l 1
 217 58 l 1
 217 399 l 1
 106 399 l 1
 106 457 l 1
 289 457 l 1
 289 58 l 1
 396 58 l 1
 396 0 l 1
 100 0 l 1
213 568 m 0
 203 578 198 590 198 604 c 0
 198 618.667 202.833 631 212.5 641 c 0
 222.167 651 234.334 656 249 656 c 0
 263 656 275.167 650.833 285.5 640.5 c 0
 295.833 630.167 301 618 301 604 c 0
 301 590 295.833 578 285.5 568 c 0
 275.167 558 263 553 249 553 c 0
 235 553 223 558 213 568 c 0
EndSplineSet
Substitution2: "Single Substitution lookup 28 subtable" dotlessi
Substitution2: "'locl' +Vv0w+1cwV99W+mcJMG5bV19i in +MOkwxjDzZYdbVwAA lookup 12 subtable" i.loclTRK
Substitution2: "'locl' +Vv0w+1cwV99W+mcJMG5bV19i in +MOkwxjDzZYdbVwAA lookup 11 subtable" i.loclTRK
Substitution2: "'locl' +Vv0w+1cwV99W+mcJMG5bV19i in +MOkwxjDzZYdbVwAA lookup 10 subtable" i.loclTRK
Substitution2: "'locl' +Vv0w+1cwV99W+mcJMG5bV19i in +MOkwxjDzZYdbVwAA lookup 9 subtable" i.loclTRK
Substitution2: "'locl' +Vv0w+1cwV99W+mcJMG5bV19i in +MOkwxjDzZYdbVwAA lookup 8 subtable" i.loclTRK
AlternateSubs2: "'aalt' +MFkweTBmMG51cE9TW1cweDBuMKIwrzC7MLkA in +MOkwxjDzZYdbVwAA lookup 1 subtable" i.loclTRK dotlessi
EndChar

StartChar: j
Encoding: 106 106 77
Width: 500
GlyphClass: 2
Flags: W
AnchorPoint: "Anchor-8" 0 0 basechar 0
AnchorPoint: "Anchor-7" 0 0 basechar 0
AnchorPoint: "Anchor-6" 328 605 basechar 0
AnchorPoint: "Anchor-5" 0 0 basechar 0
AnchorPoint: "Anchor-4" 250 -190 basechar 0
LayerCount: 2
Fore
SplineSet
369 457 m 1
 368.999 22 l 2
 368.999 -44 352.666 -93.167 319.999 -125.5 c 0
 287.332 -157.833 245.332 -174 193.999 -174 c 0
 164.666 -174 137.333 -168.667 112 -158 c 0
 86.667 -147.333 65.334 -131.333 48.001 -110 c 1
 88.001 -56 l 1
 89.001 -55 l 1
 90.001 -56 l 1
 103.334 -73.333 118.167 -87 134.5 -97 c 0
 150.833 -107 170.333 -112 193 -112 c 0
 224.333 -112 249.333 -101.333 268 -80 c 0
 286.667 -58.667 296 -26 296 18 c 2
 296 398 l 1
 126 398 l 1
 126 457 l 1
 369 457 l 1
99.999 -53 m 2
 99.999 -55 98.999 -55.667 96.999 -55 c 0
 94.999 -54.333 92.999 -53.333 90.999 -52 c 1
 93.999 -48 l 1
 99.999 -52 l 1
 99.999 -53 l 2
86.999 -50 m 0
 87.666 -50 88.999 -50.667 90.999 -52 c 1
 88.999 -55 l 1
 86.999 -51.667 86.332 -50 86.999 -50 c 0
290.999 568 m 0
 280.999 578 275.998 590 275.998 604 c 0
 275.998 618.667 280.831 631 290.498 641 c 0
 300.165 651 312.332 656 326.999 656 c 0
 340.999 656 353.166 650.833 363.499 640.5 c 0
 373.832 630.167 378.999 618 378.999 604 c 0
 378.999 590 373.832 578 363.499 568 c 0
 353.166 558 340.999 553 326.999 553 c 0
 312.999 553 300.999 558 290.999 568 c 0
EndSplineSet
Substitution2: "Single Substitution lookup 28 subtable" uni0237
Substitution2: "'aalt' +MFkweTBmMG51cE9TW1cweDBuMKIwrzC7MLkA in +MOkwxjDzZYdbVwAA lookup 0 subtable" uni0237
EndChar

StartChar: k
Encoding: 107 107 78
Width: 500
GlyphClass: 2
Flags: W
AnchorPoint: "Anchor-8" 0 0 basechar 0
AnchorPoint: "Anchor-7" 0 0 basechar 0
AnchorPoint: "Anchor-6" 104 665 basechar 0
AnchorPoint: "Anchor-5" 0 0 basechar 0
AnchorPoint: "Anchor-4" 250 0 basechar 0
LayerCount: 2
Fore
SplineSet
199 229 m 1
 138.999 173 l 1
 138.999 0 l 1
 65.999 0 l 1
 65.999 665 l 1
 147.999 665 l 1
 147.999 658 l 1
 143.999 654 141.499 649.667 140.499 645 c 0
 139.499 640.333 138.999 632.333 138.999 621 c 2
 138.999 247 l 1
 367.999 459 l 1
 384.666 455.667 402.333 454 421 454 c 2
 447 454 l 1
 255 273 l 1
 479 0 l 1
 386 -4 l 1
 199 229 l 1
EndSplineSet
EndChar

StartChar: l
Encoding: 108 108 79
Width: 500
GlyphClass: 2
Flags: W
AnchorPoint: "Anchor-8" 480 457 basechar 0
AnchorPoint: "Anchor-7" 250 229 basechar 0
AnchorPoint: "Anchor-6" 250 665 basechar 0
AnchorPoint: "Anchor-5" 0 0 basechar 0
AnchorPoint: "Anchor-4" 250 0 basechar 0
LayerCount: 2
Fore
SplineSet
79 0 m 1
 79 58 l 1
 214 58 l 1
 214 607 l 1
 85 607 l 1
 85 665 l 1
 287 665 l 1
 287 58 l 1
 421 58 l 1
 421 0 l 1
 79 0 l 1
EndSplineSet
EndChar

StartChar: m
Encoding: 109 109 80
Width: 500
GlyphClass: 2
Flags: W
AnchorPoint: "Anchor-8" 0 0 basechar 0
AnchorPoint: "Anchor-7" 0 0 basechar 0
AnchorPoint: "Anchor-6" 250 457 basechar 0
AnchorPoint: "Anchor-5" 0 0 basechar 0
AnchorPoint: "Anchor-4" 250 0 basechar 0
LayerCount: 2
Fore
SplineSet
38 457 m 1
 103.997 456.999 l 1
 103.997 411.999 l 1
 114.664 428.666 128.331 442.166 144.998 452.499 c 0
 161.665 462.832 178.998 467.999 196.998 467.999 c 0
 216.998 467.999 234.498 461.666 249.498 448.999 c 0
 264.498 436.332 273.998 420.332 277.998 400.999 c 1
 286.665 420.999 300.332 437.166 318.999 449.499 c 0
 337.666 461.832 358.333 467.999 381 467.999 c 0
 411 467.999 433.5 457.166 448.5 435.499 c 0
 463.5 413.832 470.333 385.665 469 350.999 c 1
 469 -0.000976562 l 1
 403 -0.000976562 l 1
 403 323.999 l 2
 403 361.999 399.333 386.666 392 397.999 c 0
 384.667 409.332 374 414.999 360 414.999 c 0
 348 414.999 336.333 409.332 325 397.999 c 0
 313.667 386.666 304.5 372.166 297.5 354.499 c 0
 290.5 336.832 287 319.332 287 301.999 c 2
 287 -0.000976562 l 1
 220 -0.000976562 l 1
 220 317.999 l 2
 220 355.332 216.5 380.499 209.5 393.499 c 0
 202.5 406.499 189.333 412.999 170 412.999 c 0
 160 412.999 149.833 408.499 139.5 399.499 c 0
 129.167 390.499 120.667 377.832 114 361.499 c 0
 107.333 345.166 104 326.333 104 305 c 2
 104 0 l 1
 38 0 l 1
 38 457 l 1
EndSplineSet
EndChar

StartChar: n
Encoding: 110 110 81
Width: 500
GlyphClass: 2
Flags: W
AnchorPoint: "Anchor-8" 0 0 basechar 0
AnchorPoint: "Anchor-7" 0 0 basechar 0
AnchorPoint: "Anchor-6" 265 457 basechar 0
AnchorPoint: "Anchor-5" 0 0 basechar 0
AnchorPoint: "Anchor-4" 260 0 basechar 0
LayerCount: 2
Fore
SplineSet
72 457 m 1
 141.999 457 l 1
 141.999 376 l 1
 159.999 404 182.666 426.333 209.999 443 c 0
 237.332 459.667 266.332 468 296.999 468 c 0
 337.666 468 370.166 452.5 394.499 421.5 c 0
 418.832 390.5 430.999 342.333 430.999 277 c 2
 430.999 0 l 1
 360.999 0 l 1
 360.999 275 l 2
 360.999 320.333 353.332 353.333 337.999 374 c 0
 322.666 394.667 302.333 405 277 405 c 0
 256.333 405 235.5 399 214.5 387 c 0
 193.5 375 176.167 358.167 162.5 336.5 c 0
 148.833 314.833 142 290.333 142 263 c 2
 142 0 l 1
 72 0 l 1
 72 457 l 1
EndSplineSet
EndChar

StartChar: o
Encoding: 111 111 82
Width: 500
GlyphClass: 2
Flags: W
AnchorPoint: "Anchor-8" 359 436 basechar 0
AnchorPoint: "Anchor-7" 250 229 basechar 0
AnchorPoint: "Anchor-6" 250 457 basechar 0
AnchorPoint: "Anchor-5" 286 10 basechar 0
AnchorPoint: "Anchor-4" 250 0 basechar 0
LayerCount: 2
Fore
SplineSet
141 22 m 0
 109 42 84 70 66 106 c 0
 48 142 39 183 39 229 c 0
 39 275 48 316 66 352 c 0
 84 388 109 416.167 141 436.5 c 0
 173 456.833 209.333 467 250 467 c 0
 290.667 467 327 456.833 359 436.5 c 0
 391 416.167 416 388 434 352 c 0
 452 316 461 275 461 229 c 0
 461 183 452 142 434 106 c 0
 416 70 391 42 359 22 c 0
 327 2 290.667 -8 250 -8 c 0
 209.333 -8 173 2 141 22 c 0
319.5 75 m 0
 339.833 90.333 355.831 111.5 367.498 138.5 c 0
 379.165 165.5 384.998 196 384.998 230 c 0
 384.998 282 372.331 324.5 346.998 357.5 c 0
 321.665 390.5 289.332 407 249.999 407 c 0
 210.666 407 178.333 390.5 153 357.5 c 0
 127.667 324.5 115 282 115 230 c 0
 115 196 120.833 165.5 132.5 138.5 c 0
 144.167 111.5 160.167 90.333 180.5 75 c 0
 200.833 59.667 224 52 250 52 c 0
 276 52 299.167 59.667 319.5 75 c 0
EndSplineSet
Substitution2: "Single Substitution lookup 28 subtable" ordmasculine
Substitution2: "'aalt' +MFkweTBmMG51cE9TW1cweDBuMKIwrzC7MLkA in +MOkwxjDzZYdbVwAA lookup 0 subtable" ordmasculine
EndChar

StartChar: p
Encoding: 112 112 83
Width: 500
GlyphClass: 2
Flags: W
AnchorPoint: "Anchor-8" 0 0 basechar 0
AnchorPoint: "Anchor-7" 0 0 basechar 0
AnchorPoint: "Anchor-6" 270 457 basechar 0
AnchorPoint: "Anchor-5" 0 0 basechar 0
AnchorPoint: "Anchor-4" 270 0 basechar 0
LayerCount: 2
Fore
SplineSet
60 457 m 1
 133 456.999 l 1
 133 366.999 l 1
 143 400.332 160.333 425.332 185 441.999 c 0
 209.667 458.666 238.667 466.999 272 466.999 c 0
 306.667 466.999 338.5 458.166 367.5 440.499 c 0
 396.5 422.832 419.667 396.332 437 360.999 c 0
 454.333 325.666 463 282.666 463 231.999 c 0
 463 180.666 454 136.499 436 99.499 c 0
 418 62.499 394.167 34.666 364.5 15.999 c 0
 334.833 -2.66797 303.333 -12.001 270 -12.001 c 0
 242.667 -12.001 217 -5.66797 193 6.99902 c 0
 169 19.666 149.333 37.333 134 60 c 1
 134 -167 l 1
 60 -167 l 1
 60 457 l 1
350.5 93.499 m 0
 375.5 121.166 388 166.332 388 228.999 c 0
 388 285.666 377 329.166 355 359.499 c 0
 333 389.832 301.667 404.999 261 404.999 c 0
 223 404.999 192.167 389.166 168.5 357.499 c 0
 144.833 325.832 133 277.665 133 212.999 c 1
 134.333 160.332 146 120.332 168 92.999 c 0
 190 65.666 220 51.999 258 51.999 c 0
 294.667 51.999 325.5 65.832 350.5 93.499 c 0
EndSplineSet
EndChar

StartChar: q
Encoding: 113 113 84
Width: 500
GlyphClass: 2
Flags: W
LayerCount: 2
Fore
SplineSet
370 73 m 1
 356 47 336.668 26.668 312.001 12.001 c 0
 287.334 -2.66602 260.001 -9.99902 230.001 -9.99902 c 0
 195.334 -9.99902 163.667 0.167969 135 20.501 c 0
 106.333 40.834 83.666 69.167 66.999 105.5 c 0
 50.332 141.833 41.999 183.333 41.999 230 c 0
 41.999 278.667 50.999 321.167 68.999 357.5 c 0
 86.999 393.833 111.332 421.5 141.999 440.5 c 0
 172.666 459.5 206.333 469 243 469 c 0
 274.333 469 301 462.167 323 448.5 c 0
 345 434.833 362 415.333 374 390 c 1
 374 457 l 1
 442 457 l 1
 442 -167 l 1
 370 -167 l 1
 370 73 l 1
333.501 99.501 m 0
 356.501 130.501 368.001 177.667 368.001 241 c 0
 368.001 353.667 329.001 410 251.001 410 c 0
 211.001 410 178.334 395 153.001 365 c 0
 127.668 335 115.001 291 115.001 233 c 0
 115.001 177.667 126.501 133.834 149.501 101.501 c 0
 172.501 69.168 203.668 53.001 243.001 53.001 c 0
 280.334 53.001 310.501 68.501 333.501 99.501 c 0
EndSplineSet
EndChar

StartChar: r
Encoding: 114 114 85
Width: 500
GlyphClass: 2
Flags: W
AnchorPoint: "Anchor-8" 0 0 basechar 0
AnchorPoint: "Anchor-7" 0 0 basechar 0
AnchorPoint: "Anchor-6" 250 457 basechar 0
AnchorPoint: "Anchor-5" 0 0 basechar 0
AnchorPoint: "Anchor-4" 270 0 basechar 0
LayerCount: 2
Fore
SplineSet
426 362 m 1
 426 361 l 1
 406.667 379 390.5 391 377.5 397 c 0
 364.5 403 349.333 406 332 406 c 0
 308 406 285.333 400 264 388 c 0
 242.666 376 225.333 357.833 212 333.5 c 0
 198.667 309.167 192 278.667 192 242 c 2
 192 -1 l 1
 119 -1 l 1
 119 457 l 1
 194 457 l 1
 192 373 l 1
 204.667 403 224.167 426.333 250.5 443 c 0
 276.834 459.667 305.667 468 337 468 c 0
 385.667 468 426 451.333 458 418 c 1
 426 362 l 1
429.5 356 m 0
 427.167 356.667 425.332 357.333 423.999 358 c 1
 425.999 361 l 1
 430.666 357 431.833 355.333 429.5 356 c 0
414.998 357.999 m 2
 414.998 359.999 415.998 360.831 417.998 360.498 c 0
 419.998 360.165 421.998 359.332 423.998 357.999 c 1
 421.998 352.999 l 1
 414.998 356.999 l 1
 414.998 357.999 l 2
EndSplineSet
EndChar

StartChar: s
Encoding: 115 115 86
Width: 500
GlyphClass: 2
Flags: W
LayerCount: 2
Fore
SplineSet
404.5 212.5 m 0
 428.167 192.167 439.998 165.667 439.998 133 c 0
 439.998 91.667 423.831 57.5 391.498 30.5 c 0
 359.165 3.5 312.332 -10 250.999 -10 c 0
 173.666 -10 108.999 14 56.999 62 c 1
 96.999 130 l 1
 97.999 131 l 1
 98.999 130 l 1
 119.666 103.333 140.999 83.333 162.999 70 c 0
 184.999 56.667 214.999 50 252.999 50 c 0
 288.999 50 317.332 56.5 337.999 69.5 c 0
 358.666 82.5 368.999 100.333 368.999 123 c 0
 368.999 142.333 360.666 158.333 343.999 171 c 0
 327.332 183.667 297.332 197 253.999 211 c 1
 139.332 243.667 81.999 291 81.999 353 c 0
 81.999 388.333 96.499 416.333 125.499 437 c 0
 154.499 457.667 195.999 468 249.999 468 c 0
 291.333 468 326.166 462.167 354.499 450.5 c 0
 382.833 438.833 408.666 420.666 431.999 396 c 1
 390.999 346 l 1
 389.999 345 l 1
 375.999 366.334 356.166 383.167 330.499 395.5 c 0
 304.832 407.833 278.665 414 251.999 414 c 0
 223.332 414 199.832 409 181.499 399 c 0
 163.166 389 153.999 375 153.999 357 c 0
 153.999 340.333 163.332 325 181.999 311 c 0
 200.666 297 234.333 283 283 269 c 0
 340.333 251.666 380.833 232.833 404.5 212.5 c 0
386.998 342 m 1
 383.998 338 l 1
 378.998 343 l 1
 378.998 346.333 381.665 346 386.998 342 c 1
392.498 340 m 0
 392.165 339.333 391.331 339.332 389.998 339.999 c 0
 388.665 340.666 387.665 341.333 386.998 342 c 2
 389.998 345 l 1
 391.998 342.323 392.831 340.656 392.498 340 c 0
108.997 133.999 m 2
 108.997 131.332 105.997 131.332 99.9971 133.999 c 1
 102.997 138.999 l 1
 108.997 134.999 l 1
 108.997 133.999 l 2
95.9971 135.999 m 0
 96.6641 135.999 97.9971 135.332 99.9971 133.999 c 1
 97.9971 130.999 l 1
 95.9971 134.332 95.3301 135.999 95.9971 135.999 c 0
EndSplineSet
EndChar

StartChar: t
Encoding: 116 116 87
Width: 500
GlyphClass: 2
Flags: W
AnchorPoint: "Anchor-8" 310 457 basechar 0
AnchorPoint: "Anchor-7" 213 312 basechar 0
AnchorPoint: "Anchor-6" 241 587 basechar 0
AnchorPoint: "Anchor-5" 0 0 basechar 0
AnchorPoint: "Anchor-4" 250 0 basechar 0
LayerCount: 2
Fore
SplineSet
444 42 m 1
 400 9.33301 351.667 -6.99805 299 -6.99805 c 0
 248.333 -6.99805 212.5 8.33496 191.5 39.002 c 0
 170.5 69.6689 160 119.669 160 189.002 c 0
 160 200.335 160.667 220.002 162 248.002 c 2
 171 398.002 l 1
 70 398.002 l 1
 70 457.002 l 1
 175 457.002 l 1
 182 579.002 l 1
 262 592.002 l 1
 272 593.002 l 1
 273 587.002 l 1
 268.333 580.335 264.833 574.668 262.5 570.001 c 0
 260.167 565.334 258.667 558.001 258 548.001 c 2
 247 457.001 l 1
 399 457.001 l 1
 399 398.001 l 1
 243 398.001 l 1
 234 243.001 l 2
 232.667 216.334 232 198.667 232 190 c 0
 232 136.667 238.167 100.5 250.5 81.5 c 0
 262.834 62.5 282.667 53 310 53 c 0
 330 53 348.333 56.667 365 64 c 0
 381.667 71.333 400.667 83 422 99 c 1
 444 42 l 1
EndSplineSet
EndChar

StartChar: u
Encoding: 117 117 88
Width: 500
GlyphClass: 2
Flags: W
AnchorPoint: "Anchor-8" 432 457 basechar 0
AnchorPoint: "Anchor-7" 0 0 basechar 0
AnchorPoint: "Anchor-6" 250 457 basechar 0
AnchorPoint: "Anchor-5" 392 0 basechar 0
AnchorPoint: "Anchor-4" 231 0 basechar 0
LayerCount: 2
Fore
SplineSet
106 42.5 m 0
 77.333 78.167 63.332 131.332 63.999 201.999 c 2
 64.999 456.999 l 1
 134.999 456.999 l 1
 134.999 201.999 l 2
 134.999 147.332 144.499 107.832 163.499 83.499 c 0
 182.499 59.166 207.666 46.999 238.999 46.999 c 0
 273.666 46.999 302.833 60.499 326.5 87.499 c 0
 350.167 114.499 362 153.666 362 204.999 c 2
 362 456.999 l 1
 432 456.999 l 1
 432 70.999 l 2
 432 54.999 432.5 41.832 433.5 31.499 c 0
 434.5 21.166 437.333 10.666 442 -0.000976562 c 1
 373 -0.000976562 l 1
 368.333 9.99902 365.5 20.332 364.5 30.999 c 0
 363.5 41.666 363 54.666 363 69.999 c 1
 348.333 44.666 328.5 24.833 303.5 10.5 c 0
 278.5 -3.83301 251 -11 221 -11 c 0
 173 -11 134.667 6.83301 106 42.5 c 0
EndSplineSet
EndChar

StartChar: v
Encoding: 118 118 89
Width: 500
GlyphClass: 2
Flags: W
AnchorPoint: "Anchor-8" 0 0 basechar 0
AnchorPoint: "Anchor-7" 0 0 basechar 0
AnchorPoint: "Anchor-6" 250 457 basechar 0
AnchorPoint: "Anchor-5" 0 0 basechar 0
AnchorPoint: "Anchor-4" 250 0 basechar 0
LayerCount: 2
Fore
SplineSet
455 457 m 1
 444.333 403 422 336.333 388 257 c 2
 277 0 l 1
 221 0 l 1
 40 457 l 1
 112 457 l 1
 253 99 l 1
 327 268 l 2
 357.667 337.333 377.667 400.333 387 457 c 1
 455 457 l 1
EndSplineSet
EndChar

StartChar: w
Encoding: 119 119 90
Width: 500
GlyphClass: 2
Flags: W
AnchorPoint: "Anchor-8" 0 0 basechar 0
AnchorPoint: "Anchor-7" 0 0 basechar 0
AnchorPoint: "Anchor-6" 250 457 basechar 0
AnchorPoint: "Anchor-5" 0 0 basechar 0
AnchorPoint: "Anchor-4" 250 0 basechar 0
LayerCount: 2
Fore
SplineSet
16 457 m 1
 78.999 457.001 l 1
 152.999 90.001 l 1
 230.999 414.001 l 1
 274.999 414.001 l 1
 371.999 91.001 l 1
 390.666 215.668 402.333 297.501 407 336.501 c 0
 411.667 375.501 414 410.668 414 442.001 c 2
 414 457.001 l 1
 481 457.001 l 1
 461 302.334 435.667 149.667 405 -1 c 1
 337 -1 l 1
 253 295 l 1
 173 -1 l 1
 108 -1 l 1
 16 457 l 1
EndSplineSet
EndChar

StartChar: x
Encoding: 120 120 91
Width: 500
GlyphClass: 2
Flags: W
AnchorPoint: "Anchor-8" 0 0 basechar 0
AnchorPoint: "Anchor-7" 0 0 basechar 0
AnchorPoint: "Anchor-6" 250 457 basechar 0
AnchorPoint: "Anchor-5" 0 0 basechar 0
AnchorPoint: "Anchor-4" 250 0 basechar 0
LayerCount: 2
Fore
SplineSet
47 0 m 1
 208 232 l 1
 50 457 l 1
 129 457 l 1
 248 288 l 1
 362 457 l 1
 436 457 l 1
 288 235 l 1
 456 0 l 1
 374 0 l 1
 248 178 l 1
 129 0 l 1
 47 0 l 1
EndSplineSet
EndChar

StartChar: y
Encoding: 121 121 92
Width: 500
GlyphClass: 2
Flags: W
AnchorPoint: "Anchor-8" 0 0 basechar 0
AnchorPoint: "Anchor-7" 0 0 basechar 0
AnchorPoint: "Anchor-6" 253 457 basechar 0
AnchorPoint: "Anchor-5" 0 0 basechar 0
AnchorPoint: "Anchor-4" 370 0 basechar 0
LayerCount: 2
Fore
SplineSet
443 457 m 1
 439 429.667 432.832 402.667 424.499 376 c 0
 416.166 349.333 404.333 314 389 270 c 2
 275 -52 l 2
 259.667 -94.667 239.667 -125.667 215 -145 c 0
 190.333 -164.333 161 -174 127 -174 c 0
 84.333 -174 49.333 -161 22 -135 c 1
 53 -86 l 1
 54 -85 l 1
 55 -86 l 2
 65.667 -96 77 -103.333 89 -108 c 0
 101 -112.667 115 -115 131 -115 c 0
 155.667 -115 175.334 -106.333 190 -89 c 0
 204.667 -71.667 219 -43 233 -3 c 1
 46 457 l 1
 121 457 l 1
 263 91 l 1
 323 275 l 2
 337.667 321 348.5 356.167 355.5 380.5 c 0
 362.5 404.833 367.667 430.333 371 457 c 1
 443 457 l 1
64.999 -82 m 2
 64.999 -83.333 64.332 -84 62.999 -84 c 2
 54.999 -82 l 1
 58.999 -77 l 1
 64.999 -81 l 1
 64.999 -82 l 2
51.499 -81 m 0
 53.166 -81.667 54.333 -82 54.999 -82 c 2
 53.999 -85 l 1
 50.665 -81.667 49.832 -80.334 51.499 -81 c 0
EndSplineSet
EndChar

StartChar: z
Encoding: 122 122 93
Width: 500
GlyphClass: 2
Flags: W
AnchorPoint: "Anchor-8" 0 0 basechar 0
AnchorPoint: "Anchor-7" 0 0 basechar 0
AnchorPoint: "Anchor-6" 250 457 basechar 0
AnchorPoint: "Anchor-5" 0 0 basechar 0
AnchorPoint: "Anchor-4" 250 0 basechar 0
LayerCount: 2
Fore
SplineSet
50 49 m 1
 333 394 l 1
 71 394 l 1
 71 457 l 1
 426 457 l 1
 426 408 l 1
 148 62 l 1
 406 62 l 2
 416.667 62 424.5 62.667 429.5 64 c 0
 434.5 65.333 439 68 443 72 c 1
 450 72 l 1
 450 0 l 1
 50 0 l 1
 50 49 l 1
EndSplineSet
EndChar

StartChar: braceleft
Encoding: 123 123 94
Width: 500
GlyphClass: 2
Flags: W
LayerCount: 2
Fore
SplineSet
248 -144 m 0
 216.667 -134 193.502 -116.332 178.502 -90.999 c 0
 163.502 -65.666 157.002 -29.999 159.002 16.001 c 2
 163.002 116.001 l 1
 163.002 158.001 155.669 187.168 141.002 203.501 c 0
 126.335 219.834 103.668 228.001 73.001 228.001 c 2
 53.001 228.001 l 1
 53.001 284.001 l 1
 72.001 284.001 l 2
 103.334 284.001 126.667 292.501 142 309.501 c 0
 157.333 326.501 165 353.668 165 391.001 c 1
 163 463.001 l 1
 163 579.001 223.667 637.001 345 637.001 c 2
 408 637.001 l 1
 408 580.001 l 1
 326 580.001 l 2
 264 580.001 233 544.668 233 474.001 c 1
 235 404.001 l 1
 235 330.668 206 281.335 148 256.002 c 1
 204.667 237.335 233 185.668 233 101.001 c 1
 230 17.001 l 1
 230 -27.666 239.667 -58.833 259 -76.5 c 0
 278.334 -94.167 310.667 -103 356 -103 c 2
 407 -103 l 1
 407 -159 l 1
 371 -159 l 2
 320.333 -159 279.333 -154 248 -144 c 0
EndSplineSet
EndChar

StartChar: bar
Encoding: 124 124 95
Width: 500
GlyphClass: 2
Flags: W
LayerCount: 2
Fore
SplineSet
217 -151 m 1
 217 652 l 1
 284 652 l 1
 284 -151 l 1
 217 -151 l 1
EndSplineSet
EndChar

StartChar: braceright
Encoding: 125 125 96
Width: 500
GlyphClass: 2
Flags: W
LayerCount: 2
Fore
SplineSet
55 -159 m 1
 55.001 -103.002 l 1
 106.001 -103.002 l 2
 151.334 -103.002 183.667 -94.1689 203 -76.502 c 0
 222.333 -58.835 232 -27.668 232 16.999 c 1
 229 100.999 l 1
 229 185.666 257.333 237.333 314 256 c 1
 256 281.334 227 330.667 227 404 c 1
 229 474 l 1
 229 544.667 198 580 136 580 c 2
 54 580 l 1
 54 637 l 1
 117 637 l 2
 238.333 637 299 579 299 463 c 1
 297 391 l 1
 297 353.667 304.667 326.5 320 309.5 c 0
 335.334 292.5 358.667 284 390 284 c 2
 409 284 l 1
 409 228 l 1
 389 228 l 2
 358.333 228 335.666 219.833 321 203.5 c 0
 306.333 187.167 299 158 299 116 c 1
 303 16 l 2
 305 -30 298.5 -65.667 283.5 -91 c 0
 268.5 -116.333 245.333 -134 214 -144 c 0
 182.667 -154 141.667 -159 91 -159 c 2
 55 -159 l 1
EndSplineSet
EndChar

StartChar: asciitilde
Encoding: 126 126 97
Width: 500
GlyphClass: 2
Flags: W
LayerCount: 2
Fore
SplineSet
303.5 274 m 0
 290.5 279.334 276.333 286.667 261 295.999 c 0
 246.333 303.999 234.5 309.999 225.5 313.999 c 0
 216.5 317.999 206.667 319.999 196 319.999 c 0
 180 319.999 166 316.499 154 309.499 c 0
 142 302.499 130.667 290.332 120 272.999 c 1
 71 294.999 l 1
 82.333 318.999 98.333 338.332 119 352.999 c 0
 139.667 367.666 164.667 374.999 194 374.999 c 0
 210 374.999 223.833 372.499 235.5 367.499 c 0
 247.167 362.499 261 355.332 277 345.999 c 0
 290.333 337.332 302 330.999 312 326.999 c 0
 322 322.999 332.667 320.999 344 320.999 c 0
 358.667 320.999 370.834 324.332 380.501 330.999 c 0
 390.168 337.666 401.668 350.333 415.001 369 c 1
 461.001 341 l 1
 443.668 313 426.668 293.5 410.001 282.5 c 0
 393.334 271.5 372.667 266 348 266 c 0
 331.333 266 316.5 268.667 303.5 274 c 0
EndSplineSet
Substitution2: "'ss01' +MLkwvzCkMOswuzDDMMgA-1 in +MOkwxjDzZYdbVwAA lookup 25 subtable" asciitilde.ss01
Substitution2: "'salt' +W+l/jnaEUiVbV19i in +MOkwxjDzZYdbVwAA lookup 24 subtable" asciitilde.ss01
Substitution2: "'aalt' +MFkweTBmMG51cE9TW1cweDBuMKIwrzC7MLkA in +MOkwxjDzZYdbVwAA lookup 0 subtable" asciitilde.ss01
EndChar

StartChar: exclamdown
Encoding: 161 161 99
Width: 500
GlyphClass: 2
Flags: W
LayerCount: 2
Fore
SplineSet
281 580.5 m 0
 293 568.833 299 555.333 299 540 c 0
 299 524 293 510 281 498 c 0
 269 486 255 480 239 480 c 0
 223 480 209.167 486 197.5 498 c 0
 185.833 510 180 524 180 540 c 0
 180 556 185.833 569.667 197.5 581 c 0
 209.167 592.333 223 598 239 598 c 0
 255 598 269 592.167 281 580.5 c 0
265 393 m 1
 292 3 l 1
 292 -53 275 -81 241 -81 c 0
 225 -81 212.5 -74.5 203.5 -61.5 c 0
 194.5 -48.5 190 -30.333 190 -7 c 1
 215 393 l 1
 265 393 l 1
EndSplineSet
EndChar

StartChar: cent
Encoding: 162 162 100
Width: 500
GlyphClass: 2
Flags: W
AnchorPoint: "Anchor-3" 0 0 basechar 0
AnchorPoint: "Anchor-2" 0 0 basechar 0
AnchorPoint: "Anchor-1" 286 500 basechar 0
AnchorPoint: "Anchor-0" 286 43 basechar 0
LayerCount: 2
Fore
SplineSet
408 153 m 1
 449.999 104.001 l 1
 405.332 56.001 350.332 32.001 284.999 32.001 c 0
 273.666 32.001 265.333 32.334 260 33.001 c 1
 246 -72.999 l 1
 194 -72.999 l 1
 210 44.001 l 1
 163.333 59.334 126 87.334 98 128.001 c 0
 70 168.668 56 216.335 56 271.002 c 0
 56 315.002 65.333 354.669 84 390.002 c 0
 102.667 425.336 128.5 453.669 161.5 475.001 c 0
 194.5 496.336 231.667 507.669 273 509 c 1
 289 623 l 1
 338 623 l 1
 323 506 l 1
 351 501.333 376.667 492 400 478 c 0
 423.333 464 442.333 446 457 424 c 1
 412 380 l 1
 411 379 l 1
 395.667 399 380.5 414.167 365.5 424.5 c 0
 350.5 434.837 333.333 441.67 314 445 c 1
 269 98 l 1
 273 97.333 279.667 97 289 97 c 0
 335 97 374.667 115.667 408 153 c 1
153.999 177.001 m 0
 169.999 148.334 191.666 127.001 218.999 113.001 c 1
 264.999 448.001 l 1
 240.999 446.001 218.666 437.668 197.999 423.001 c 0
 177.332 408.334 160.832 388.167 148.499 362.501 c 0
 136.166 336.834 129.999 308.001 129.999 276.001 c 0
 129.999 238.668 137.999 205.668 153.999 177.001 c 0
408.999 377.001 m 1
 404.999 373.001 l 1
 399.999 378.001 l 1
 399.999 382.001 402.999 381.668 408.999 377.001 c 1
413.499 374.001 m 0
 411.832 375.334 410.333 376.334 409 377.001 c 1
 411 379.001 l 1
 414.346 374.323 415.179 372.656 413.499 374.001 c 0
EndSplineSet
EndChar

StartChar: sterling
Encoding: 163 163 101
Width: 500
GlyphClass: 2
Flags: W
LayerCount: 2
Fore
SplineSet
39 49 m 1
 80.333 69 108.83 91.167 124.497 115.5 c 0
 140.164 139.833 147.997 175.333 147.997 222 c 0
 147.997 247.333 142.997 280.333 132.997 321 c 1
 66.9971 321 l 1
 66.9971 378 l 1
 118.997 378 l 1
 114.33 399.334 111.997 420.667 111.997 442 c 0
 111.997 477.333 119.83 508.833 135.497 536.5 c 0
 151.164 564.167 172.497 585.5 199.497 600.5 c 0
 226.497 615.5 255.997 623 287.997 623 c 0
 337.997 623 381.33 606 417.997 572 c 1
 373.997 517 l 1
 359.997 533.667 345.997 546 331.997 554 c 0
 317.997 562 297.33 566 269.997 566 c 0
 242.664 566 220.664 555 203.997 533 c 0
 187.33 511 178.997 481 178.997 443 c 0
 178.997 428.333 181.664 406.666 186.997 378 c 1
 316.997 378 l 1
 316.997 321 l 1
 200.997 321 l 1
 209.664 285.667 213.997 253.334 213.997 224.001 c 0
 213.997 174.001 201.997 129.334 177.997 90.001 c 1
 181.997 90.668 187.664 91.001 194.997 91.001 c 0
 210.33 91.001 225.497 89.168 240.497 85.501 c 0
 255.497 81.834 272.997 76.334 292.997 69.001 c 0
 312.997 62.334 328.497 57.667 339.497 55 c 0
 350.497 52.333 361.664 51 372.997 51 c 0
 397.664 51 421.331 60.333 443.998 79 c 1
 469.998 27 l 1
 435.331 -1 400.664 -15 365.998 -15 c 0
 354.665 -15 329.332 -8.66699 289.999 4 c 0
 261.999 12.667 239.999 19.167 223.999 23.5 c 0
 207.999 27.833 193.332 30 179.999 30 c 0
 150.666 30 112.333 17.333 65 -8 c 1
 39 49 l 1
EndSplineSet
EndChar

StartChar: currency
Encoding: 164 164 102
Width: 500
GlyphClass: 2
Flags: W
LayerCount: 2
Fore
SplineSet
68 199 m 1
 124.001 255.998 l 1
 105.334 282.665 96.001 312.332 96.001 344.999 c 0
 96.001 378.999 105.668 408.999 125.001 434.999 c 1
 68.001 491.999 l 1
 104.001 526.999 l 1
 160.001 470.999 l 1
 187.334 490.332 217.667 499.999 251 499.999 c 0
 283 499.999 312.667 490.666 340 471.999 c 1
 396 526.999 l 1
 432 491.999 l 1
 376 436.999 l 1
 396 408.999 406 378.332 406 344.999 c 0
 406 311.666 396.333 281.333 377 254 c 1
 432 199 l 1
 396 164 l 1
 341 219 l 1
 315 199.667 285 190 251 190 c 0
 217.667 190 187 200 159 220 c 1
 104 164 l 1
 68 199 l 1
324.001 273.998 m 0
 342.001 293.331 351.001 316.998 351.001 344.998 c 0
 351.001 373.665 342.001 397.665 324.001 416.998 c 0
 306.001 436.331 281.334 445.998 250.001 445.998 c 0
 219.334 445.998 195.001 436.331 177.001 416.998 c 0
 159.001 397.665 150.001 373.665 150.001 344.998 c 0
 150.001 316.998 159.001 293.331 177.001 273.998 c 0
 195.001 254.665 219.334 244.998 250.001 244.998 c 0
 281.334 244.998 306.001 254.665 324.001 273.998 c 0
EndSplineSet
EndChar

StartChar: yen
Encoding: 165 165 103
Width: 500
GlyphClass: 2
Flags: W
LayerCount: 2
Fore
SplineSet
292 295 m 1
 292 274 l 1
 426 274 l 1
 426 217 l 1
 292 217 l 1
 292 154 l 1
 426 154 l 1
 426 98 l 1
 292 98 l 1
 292 0 l 1
 224 0 l 1
 224 98 l 1
 84 98 l 1
 84 154 l 1
 224 154 l 1
 224 217 l 1
 84 217 l 1
 84 274 l 1
 224 274 l 1
 224 295 l 1
 36 624 l 1
 114 624 l 1
 259 363 l 1
 392 623 l 1
 466 623 l 1
 292 295 l 1
EndSplineSet
EndChar

StartChar: brokenbar
Encoding: 166 166 104
Width: 500
GlyphClass: 2
Flags: W
LayerCount: 2
Fore
SplineSet
217 295 m 1
 217 652 l 1
 284 652 l 1
 284 295 l 1
 217 295 l 1
217 -151 m 1
 217 196 l 1
 284 196 l 1
 284 -151 l 1
 217 -151 l 1
EndSplineSet
EndChar

StartChar: section
Encoding: 167 167 105
Width: 500
GlyphClass: 2
Flags: W
LayerCount: 2
Fore
SplineSet
140.5 -32 m 0
 110.167 -17.333 84.999 3.66699 64.999 31 c 1
 116.999 92 l 1
 121.666 90.667 124.499 87.5 125.499 82.5 c 0
 126.499 77.5 128.666 72 131.999 66 c 0
 135.332 60 142.665 51.667 153.998 41 c 0
 175.331 21.667 201.998 12 233.998 12 c 0
 265.331 12 290.331 19.5 308.998 34.5 c 0
 327.665 49.5 336.998 68.333 336.998 91 c 0
 336.998 114.333 328.831 133 312.498 147 c 0
 296.165 161 265.332 174.667 219.999 188 c 1
 168.666 204.667 132.333 222.667 111 242 c 0
 89.667 261.333 79 286 79 316 c 0
 79 338 86.5 358.167 101.5 376.5 c 0
 116.5 394.833 136.333 408.333 161 417 c 1
 116.333 443.667 94 481.334 94 530.001 c 0
 94 555.334 101.167 578.834 115.5 600.501 c 0
 129.833 622.168 149.5 639.501 174.5 652.501 c 0
 199.5 665.501 227 672.001 257 672.001 c 0
 289.667 672.001 319.834 664.168 347.501 648.501 c 0
 375.168 632.834 397.001 611.001 413.001 583.001 c 1
 356.001 533.001 l 1
 353.334 535.676 351.334 539.343 350.001 544.001 c 0
 347.334 562.001 337.001 578.001 319.001 592.001 c 0
 301.001 606.001 280.001 613.001 256.001 613.001 c 0
 231.334 613.001 210.334 605.501 193.001 590.501 c 0
 175.668 575.501 167.001 557.334 167.001 536.001 c 0
 167.001 518.001 171.501 503.334 180.501 492.001 c 0
 189.501 480.668 202.668 470.668 220.001 462.001 c 0
 237.334 453.334 264.667 442.001 302 428.001 c 2
 326 419.001 l 1
 387.333 389.668 418 351.668 418 305.001 c 0
 418 285.001 411.167 266.168 397.5 248.501 c 0
 383.833 230.834 366 217.667 344 209 c 1
 386.667 180.333 408 143.333 408 98 c 0
 408 69.333 400.667 43.333 386 20 c 0
 371.333 -3.33301 351 -21.5 325 -34.5 c 0
 299 -47.5 270 -54 238 -54 c 0
 203.333 -54 170.833 -46.667 140.5 -32 c 0
342.999 292 m 0
 342.999 313.333 335.166 330.833 319.499 344.5 c 0
 303.832 358.167 277.332 371.334 239.999 384.001 c 2
 196.999 399.001 l 1
 183.665 394.334 172.832 386.334 164.499 375.001 c 0
 156.166 363.668 151.999 350.668 151.999 336.001 c 0
 151.999 314.001 160.166 295.834 176.499 281.501 c 0
 192.832 267.168 219.332 254.668 255.999 244.001 c 2
 275.999 238.001 l 2
 293.999 232.666 304.332 229.333 306.999 228.001 c 1
 330.999 241.334 342.999 262.667 342.999 292 c 0
EndSplineSet
EndChar

StartChar: dieresis
Encoding: 168 168 106
Width: 500
GlyphClass: 2
Flags: W
LayerCount: 2
Fore
SplineSet
127 579 m 0
 117 589 112 600.668 112 614.001 c 0
 112 627.334 117 639.167 127 649.5 c 0
 137 659.833 149 665 163 665 c 0
 176.333 665 188 660 198 650 c 0
 208 640 213 628 213 614 c 0
 213 600.667 208 589 198 579 c 0
 188 569 176.333 564 163 564 c 0
 149 564 137 569 127 579 c 0
305.5 578.501 m 0
 295.833 588.168 291 600.001 291 614.001 c 0
 291 628.001 295.833 640.001 305.5 650.001 c 0
 315.167 660.001 327 665.001 341 665.001 c 0
 354.333 665.001 366 660.001 376 650.001 c 0
 386 640.001 391 628.001 391 614.001 c 0
 391 600.668 386 589.001 376 579.001 c 0
 366 569.001 354.333 564.001 341 564.001 c 0
 327 564.001 315.167 568.834 305.5 578.501 c 0
EndSplineSet
Substitution2: "Single Substitution lookup 28 subtable" dieresis.case
Substitution2: "'case' +WSdlh1tXfUQwf3UoMGuKv2V0MFcwX1tXX2IA in +MOkwxjDzZYdbVwAA lookup 22 subtable" dieresis.case
Substitution2: "'aalt' +MFkweTBmMG51cE9TW1cweDBuMKIwrzC7MLkA in +MOkwxjDzZYdbVwAA lookup 0 subtable" dieresis.case
EndChar

StartChar: copyright
Encoding: 169 169 107
Width: 500
GlyphClass: 2
Flags: W
LayerCount: 2
Fore
SplineSet
134.5 53.5 m 0
 97.5 76.5 68.168 107.5 46.501 146.5 c 0
 24.834 185.5 14.001 228 14.001 274 c 0
 14.001 320 24.834 362.667 46.501 402 c 0
 68.168 441.333 97.668 472.5 135.001 495.5 c 0
 172.334 518.5 212.667 530 256 530 c 0
 299.333 530 339.5 518.5 376.5 495.5 c 0
 413.5 472.5 443 441.333 465 402 c 0
 487 362.667 498 320 498 274 c 0
 498 203.333 474 143 426 93 c 0
 378.667 43.667 321.667 19 255 19 c 0
 211.667 19 171.5 30.5 134.5 53.5 c 0
355.501 91 m 0
 385.834 110.333 410.001 136.333 428.001 169 c 0
 446.001 201.667 455.001 237 455.001 275 c 0
 455.001 313 446.168 348.333 428.501 381 c 0
 410.834 413.667 386.834 439.667 356.501 459 c 0
 326.168 478.333 293.001 488 257.001 488 c 0
 221.001 488 187.834 478.5 157.501 459.5 c 0
 127.168 440.5 103.168 414.667 85.501 382 c 0
 67.834 349.333 59.001 313.333 59.001 274 c 0
 59.001 235.333 67.834 199.833 85.501 167.5 c 0
 103.168 135.167 127.168 109.5 157.501 90.5 c 0
 187.834 71.5 221.001 62 257.001 62 c 0
 292.335 62 325.168 71.667 355.501 91 c 0
187.501 143 m 0
 165.168 157 147.501 175.834 134.501 199.501 c 0
 121.501 223.168 115.001 248.668 115.001 276.001 c 0
 115.001 303.334 121.668 328.334 135.001 351.001 c 0
 148.334 373.668 165.834 391.501 187.501 404.501 c 0
 209.168 417.501 231.335 424.001 254.001 424.001 c 0
 289.335 424.001 318.668 415.668 342.001 399.001 c 0
 365.334 382.334 380.334 359.667 387.001 331.001 c 1
 335.001 312.001 l 1
 332.334 316.001 330.834 321.001 330.501 327.001 c 0
 330.168 333.001 328.501 338.501 325.501 343.501 c 0
 322.501 348.501 314.668 355.334 302.001 364.001 c 0
 291.334 370.668 278.001 374.001 262.001 374.001 c 0
 240.001 374.001 219.334 366.168 200.001 350.501 c 0
 180.668 334.834 171.001 311.667 171.001 281 c 0
 171.001 251.667 180.168 226.5 198.501 205.5 c 0
 216.834 184.5 239.001 174 265.001 174 c 0
 281.001 174 295.668 178 309.001 186 c 0
 322.335 194 332.668 205 340.001 219 c 1
 384.001 190 l 1
 370.001 168.667 352.001 152 330.001 140 c 0
 308.001 128 285.001 122 261.001 122 c 0
 234.334 122 209.834 129 187.501 143 c 0
EndSplineSet
EndChar

StartChar: ordfeminine
Encoding: 170 170 108
Width: 500
GlyphClass: 2
Flags: W
LayerCount: 2
Fore
SplineSet
136 287.5 m 0
 113.333 307.833 101.998 332.667 101.998 362 c 0
 101.998 439.333 159.998 478 275.998 478 c 0
 285.998 478 302.331 477.333 324.998 476 c 1
 324.998 508.667 319.331 532.334 307.998 547.001 c 0
 296.665 561.668 277.665 569.001 250.998 569.001 c 0
 209.665 569.001 178.332 554.334 156.999 525.001 c 1
 122.999 566.001 l 1
 156.332 603.334 200.999 622.001 256.999 622.001 c 1
 303.666 620.668 337.333 608.668 358 586.001 c 0
 378.667 563.334 389 529.667 389 485 c 2
 389 267 l 1
 326 267 l 1
 326 300 l 1
 295.333 271.333 261.333 257 224 257 c 0
 188 257 158.667 267.167 136 287.5 c 0
302.498 340.001 m 0
 319.498 359.334 327.998 387.333 327.998 424 c 1
 315.998 425.333 299.331 426 277.998 426 c 0
 239.998 426 211.831 420.833 193.498 410.5 c 0
 175.165 400.167 165.998 384.334 165.998 363.001 c 0
 165.998 349.001 171.831 336.834 183.498 326.501 c 0
 195.165 316.168 210.998 311.001 230.998 311.001 c 0
 261.665 311.001 285.498 320.668 302.498 340.001 c 0
75.998 152 m 1
 75.998 206 l 1
 424.998 206 l 1
 424.998 152 l 1
 75.998 152 l 1
EndSplineSet
EndChar

StartChar: guillemotleft
Encoding: 171 171 109
Width: 500
GlyphClass: 2
Flags: W
LayerCount: 2
Fore
SplineSet
225 61 m 1
 67 230 l 1
 67 253 l 1
 219 400 l 1
 258 359 l 1
 137 241 l 1
 265 101 l 1
 225 61 l 1
406 61 m 1
 249 230 l 1
 249 253 l 1
 400 400 l 1
 439 359 l 1
 318 241 l 1
 446 101 l 1
 406 61 l 1
EndSplineSet
EndChar

StartChar: logicalnot
Encoding: 172 172 110
Width: 500
GlyphClass: 2
Flags: W
LayerCount: 2
Fore
SplineSet
350 157 m 1
 350 284 l 1
 91 284 l 1
 91 347 l 1
 414 347 l 1
 414 157 l 1
 350 157 l 1
EndSplineSet
EndChar

StartChar: uni00AD
Encoding: 173 173 111
Width: 500
GlyphClass: 2
Flags: W
LayerCount: 2
Fore
SplineSet
71 281 m 1
 71 348 l 1
 431 348 l 1
 431 281 l 1
 71 281 l 1
EndSplineSet
EndChar

StartChar: registered
Encoding: 174 174 112
Width: 500
GlyphClass: 2
Flags: W
LayerCount: 2
Fore
SplineSet
134.5 53.5 m 0
 97.5 76.5 68.168 107.5 46.501 146.5 c 0
 24.834 185.5 14.001 228 14.001 274 c 0
 14.001 320 24.834 362.667 46.501 402 c 0
 68.168 441.333 97.668 472.5 135.001 495.5 c 0
 172.334 518.5 212.667 530 256 530 c 0
 299.333 530 339.5 518.5 376.5 495.5 c 0
 413.5 472.5 443 441.333 465 402 c 0
 487 362.667 498 320 498 274 c 0
 498 203.333 474 143 426 93 c 0
 378.667 43.667 321.667 19 255 19 c 0
 211.667 19 171.5 30.5 134.5 53.5 c 0
355.501 91 m 0
 385.834 110.333 410.001 136.333 428.001 169 c 0
 446.001 201.667 455.001 237 455.001 275 c 0
 455.001 313 446.168 348.333 428.501 381 c 0
 410.834 413.667 386.834 439.667 356.501 459 c 0
 326.168 478.333 293.001 488 257.001 488 c 0
 221.001 488 187.834 478.5 157.501 459.5 c 0
 127.168 440.5 103.168 414.667 85.501 382 c 0
 67.834 349.333 59.001 313.333 59.001 274 c 0
 59.001 235.333 67.834 199.833 85.501 167.5 c 0
 103.168 135.167 127.168 109.5 157.501 90.5 c 0
 187.834 71.5 221.001 62 257.001 62 c 0
 292.335 62 325.168 71.667 355.501 91 c 0
267.001 256 m 1
 201.001 255.998 l 1
 201.001 132.998 l 1
 155.001 132.998 l 1
 155.001 424.998 l 1
 249.001 424.998 l 2
 290.335 424.998 320.668 417.331 340.001 401.998 c 0
 359.334 386.665 369.001 365.998 369.001 339.998 c 0
 369.001 322.665 364.001 306.832 354.001 292.499 c 0
 344.001 278.166 330.001 268.333 312.001 263 c 1
 376.001 138 l 1
 329.001 131 l 1
 267.001 256 l 1
253.001 295.998 m 2
 300.334 295.998 324.001 310.665 324.001 339.998 c 0
 324.001 369.331 299.334 383.998 250.001 383.998 c 2
 201.001 383.998 l 1
 201.001 295.998 l 1
 253.001 295.998 l 2
EndSplineSet
EndChar

StartChar: macron
Encoding: 175 175 113
Width: 500
GlyphClass: 2
Flags: W
LayerCount: 2
Fore
SplineSet
123 565 m 1
 123 621 l 1
 377 621 l 1
 377 565 l 1
 123 565 l 1
EndSplineSet
EndChar

StartChar: degree
Encoding: 176 176 114
Width: 500
GlyphClass: 2
Flags: W
LayerCount: 2
Fore
SplineSet
188 388 m 0
 167.333 400 151.001 416.165 139.001 436.498 c 0
 127.001 456.831 121.001 479.331 121.001 503.998 c 0
 121.001 528.667 127.168 551.334 139.501 571.999 c 0
 151.834 592.666 168.334 608.999 189.001 620.999 c 0
 209.668 632.999 232.001 638.999 256.001 638.999 c 0
 280.001 638.999 302.334 632.832 323.001 620.499 c 0
 343.668 608.166 360.168 591.666 372.501 570.999 c 0
 384.834 550.332 391.001 527.999 391.001 503.999 c 0
 391.001 479.999 385.001 457.832 373.001 437.499 c 0
 361.001 417.166 344.668 400.833 324.001 388.5 c 0
 303.334 376.167 280.667 370 256.001 370 c 0
 231.334 370 208.667 376 188 388 c 0
309.501 448.498 m 0
 323.834 464.165 331.002 482.998 331.002 504.998 c 0
 331.002 526.331 323.835 545.164 309.502 561.497 c 0
 295.169 577.83 277.669 585.997 257.002 585.997 c 0
 236.335 585.997 218.668 577.83 204.001 561.497 c 0
 189.334 545.162 182.001 526.329 182.001 504.998 c 0
 182.001 483.665 189.168 464.998 203.501 448.998 c 0
 217.834 432.998 235.334 424.998 256.001 424.998 c 0
 277.335 424.998 295.168 432.831 309.501 448.498 c 0
EndSplineSet
EndChar

StartChar: plusminus
Encoding: 177 177 115
Width: 500
GlyphClass: 2
Flags: W
LayerCount: 2
Fore
SplineSet
222 155 m 1
 222 343 l 1
 45 343 l 1
 45 404 l 1
 222 404 l 1
 222 575 l 1
 285 575 l 1
 285 404 l 1
 456 404 l 1
 456 343 l 1
 285 343 l 1
 285 155 l 1
 222 155 l 1
46 17 m 1
 46 80 l 1
 457 80 l 1
 457 17 l 1
 46 17 l 1
EndSplineSet
EndChar

StartChar: uni00B2
Encoding: 178 178 116
Width: 500
GlyphClass: 2
Flags: W
LayerCount: 2
Fore
SplineSet
400 317 m 1
 400.002 253.001 l 1
 121.002 253.001 l 1
 121.002 307.001 l 1
 173.669 350.334 213.669 384.501 241.002 409.501 c 0
 268.336 434.501 288.669 456.168 302.002 474.501 c 0
 315.335 492.835 322.002 509.668 322.002 525 c 0
 322.002 543.669 317.002 557.836 307.002 567.5 c 0
 297.002 577.167 283.335 582 266.002 582 c 0
 246.002 582 226.669 578.667 208.002 572 c 0
 189.335 565.333 178.668 559 176.001 553 c 0
 164.001 529.667 158.001 517.667 158.001 517 c 0
 158.001 516.333 158.334 516 159.001 516 c 0
 159.668 516 161.001 516.5 163.001 517.5 c 0
 165.001 518.5 166.334 517.667 167.001 515 c 1
 164.001 509 l 1
 155.001 514 l 1
 111.001 554 l 1
 127.001 580.667 148.501 601.667 175.501 617 c 0
 202.501 632.333 233.001 640 267.001 640 c 0
 305.668 640 335.501 629.333 356.501 608 c 0
 377.501 586.667 388.001 559 388.001 525 c 0
 388.001 503.667 381.834 483.5 369.501 464.5 c 0
 357.168 445.5 341.668 427.667 323.001 411 c 0
 304.334 394.333 277.667 372.666 243.001 345.999 c 0
 235.668 339.999 227.668 333.832 219.001 327.499 c 0
 210.334 321.166 201.667 314.333 193 307 c 1
 356 307 l 2
 366.667 307 374.5 307.667 379.5 309 c 0
 384.5 310.333 389 313 393 317 c 1
 400 317 l 1
EndSplineSet
EndChar

StartChar: uni00B3
Encoding: 179 179 117
Width: 500
GlyphClass: 2
Flags: W
LayerCount: 2
Fore
SplineSet
387.5 425 m 0
 400.5 409 406.998 389.666 406.998 366.999 c 0
 406.998 344.999 400.331 324.832 386.998 306.499 c 0
 373.665 288.166 355.665 273.666 332.998 262.999 c 0
 310.331 252.332 285.664 246.999 258.998 246.999 c 0
 198.998 246.999 149.998 269.999 111.998 315.999 c 1
 152.998 362.999 l 1
 153.998 363.999 l 1
 167.998 341.999 182.665 326.166 197.998 316.499 c 0
 213.331 306.832 233.998 301.999 259.998 301.999 c 0
 284.665 301.999 304.665 307.499 319.998 318.499 c 0
 335.331 329.499 342.998 343.999 342.998 361.999 c 0
 342.998 382.666 334.998 398.333 318.998 409 c 0
 302.998 419.667 281.998 425 255.998 425 c 0
 250.665 425 240.665 424.333 225.998 423 c 1
 225.998 478 l 1
 230.666 477.333 237.333 477 245.999 477 c 0
 272.666 477 291.833 481.667 303.5 491 c 0
 315.167 500.333 321 514 321 532 c 0
 321 566 299.667 583 257 583 c 0
 220.333 583 189 567 163 535 c 1
 123 579 l 1
 157.667 619.667 202.667 640 258 640 c 0
 295.334 640 325.667 631.333 349 614 c 0
 372.333 596.664 384 573.331 384 544 c 0
 384 523.333 380 506 372 492 c 0
 364 478 351.667 466.333 335 457 c 1
 357 451.667 374.5 441 387.5 425 c 0
156.998 366.999 m 1
 159.998 370.999 l 1
 164.998 365.999 l 1
 164.998 362.666 162.331 362.999 156.998 366.999 c 1
151.498 368.999 m 0
 151.831 369.666 152.665 369.665 153.998 368.998 c 0
 155.331 368.331 156.331 367.664 156.998 366.998 c 2
 153.998 363.998 l 1
 151.998 366.665 151.165 368.332 151.498 368.999 c 0
EndSplineSet
EndChar

StartChar: acute
Encoding: 180 180 118
Width: 500
GlyphClass: 2
Flags: W
LayerCount: 2
Fore
SplineSet
254 522 m 1
 216 548 l 1
 300 697 l 1
 355 657 l 1
 254 522 l 1
EndSplineSet
Substitution2: "Single Substitution lookup 28 subtable" acute.case
Substitution2: "'case' +WSdlh1tXfUQwf3UoMGuKv2V0MFcwX1tXX2IA in +MOkwxjDzZYdbVwAA lookup 22 subtable" acute.case
Substitution2: "'aalt' +MFkweTBmMG51cE9TW1cweDBuMKIwrzC7MLkA in +MOkwxjDzZYdbVwAA lookup 0 subtable" acute.case
EndChar

StartChar: uni00B5
Encoding: 181 181 119
Width: 500
GlyphClass: 2
Flags: W
LayerCount: 2
Fore
SplineSet
33 -1 m 0
 40.333 116.333 43.998 184 43.998 202 c 2
 43.998 457 l 1
 109.998 457 l 1
 109.998 186 l 2
 109.998 135.333 118.665 99.5 135.998 78.5 c 0
 153.331 57.5 176.998 45.667 206.998 43 c 1
 239.665 45.667 264.665 59.834 281.998 85.501 c 0
 299.331 111.168 307.998 146.668 307.998 192.001 c 2
 307.998 457.001 l 1
 371.998 457.001 l 1
 371.998 116.001 l 2
 371.998 70.001 385.331 47.001 411.998 47.001 c 0
 421.331 47.001 430.831 50.834 440.498 58.501 c 0
 450.165 66.168 456.998 74.668 460.998 84.001 c 2
 466.998 96.001 l 1
 493.998 45.001 l 1
 469.331 8.33398 439.998 -9.99902 405.998 -9.99902 c 0
 384.665 -9.99902 366.332 -2.66602 350.999 12.001 c 0
 335.666 26.668 326.666 45.001 323.999 67.001 c 1
 312.666 42.334 295.833 23.334 273.5 10.001 c 0
 251.167 -3.33203 227 -9.99902 201 -9.99902 c 0
 175.667 -9.99902 152.667 -3.99902 132 8.00098 c 0
 111.333 20.001 96.333 37.334 87 60.001 c 1
 87 -40.666 86.667 -116.333 86 -167 c 1
 24 -167 l 1
 24 -143 27 -87.667 33 -1 c 0
EndSplineSet
EndChar

StartChar: paragraph
Encoding: 182 182 120
Width: 500
GlyphClass: 2
Flags: W
LayerCount: 2
Fore
SplineSet
243 322 m 1
 210.333 323.333 180.333 332.333 153 349 c 0
 125.667 365.667 104 387.5 88 414.5 c 0
 72 441.5 64 470.667 64 502 c 0
 64 550 83.667 589.167 123 619.5 c 0
 162.333 649.833 225 665 311 665 c 2
 436 665 l 1
 436 -68 l 1
 378 -68 l 1
 378 608 l 1
 302 608 l 1
 302 -68 l 1
 243 -68 l 1
 243 322 l 1
EndSplineSet
EndChar

StartChar: periodcentered
Encoding: 183 183 121
Width: 500
GlyphClass: 2
Flags: W
LayerCount: 2
Fore
SplineSet
196 290.5 m 0
 184.667 301.5 179.002 314.998 179.002 330.998 c 0
 179.002 346.998 184.835 360.498 196.502 371.498 c 0
 208.169 382.498 222.002 387.998 238.002 387.998 c 0
 253.335 387.998 267.168 382.331 279.501 370.998 c 0
 291.834 359.665 298.001 346.332 298.001 330.999 c 0
 298.001 315.666 292.168 302.333 280.501 291 c 0
 268.834 279.667 254.667 274 238 274 c 0
 221.333 274 207.333 279.5 196 290.5 c 0
EndSplineSet
Substitution2: "Single Substitution lookup 28 subtable" periodcentered.loclCAT
Substitution2: "'aalt' +MFkweTBmMG51cE9TW1cweDBuMKIwrzC7MLkA in +MOkwxjDzZYdbVwAA lookup 0 subtable" periodcentered.loclCAT
EndChar

StartChar: cedilla
Encoding: 184 184 122
Width: 500
GlyphClass: 2
Flags: W
LayerCount: 2
Fore
SplineSet
169 -166 m 1
 194 -124.001 l 1
 219.333 -144.001 248.333 -154.001 281 -154.001 c 0
 314.333 -154.001 331 -142.001 331 -118.001 c 0
 331 -107.334 326.5 -99.167 317.5 -93.5 c 0
 308.5 -87.833 296 -85 280 -85 c 2
 250 -85 l 1
 261 0 l 1
 305 0 l 1
 299 -47 l 1
 327 -49.667 348.167 -57.167 362.5 -69.5 c 0
 376.833 -81.833 384 -96 384 -112 c 0
 384 -136 374 -156.167 354 -172.5 c 0
 334 -188.833 305.333 -197 268 -197 c 0
 232.667 -197 199.667 -186.667 169 -166 c 1
EndSplineSet
EndChar

StartChar: uni00B9
Encoding: 185 185 123
Width: 500
GlyphClass: 2
Flags: W
LayerCount: 2
Fore
SplineSet
235 253 m 1
 235 563 l 1
 138 528 l 1
 122 559 l 1
 255 633 l 1
 299 633 l 1
 299 253 l 1
 235 253 l 1
EndSplineSet
EndChar

StartChar: ordmasculine
Encoding: 186 186 124
Width: 500
GlyphClass: 2
Flags: W
LayerCount: 2
Fore
SplineSet
170 278.5 m 0
 147.333 293.5 129.334 314.5 116.001 341.5 c 0
 102.668 368.5 96.001 399.333 96.001 434 c 0
 96.001 470 103.001 502.333 117.001 531 c 0
 131.001 559.667 149.668 582 173.001 598 c 0
 196.334 614 221.667 622 249 622 c 0
 291.667 622 327 605.833 355 573.5 c 0
 383 541.167 397 497 397 441 c 0
 397 403.667 390 371 376 343 c 0
 362 315 343.5 293.5 320.5 278.5 c 0
 297.5 263.5 272.333 256 245 256 c 0
 217.667 256 192.667 263.5 170 278.5 c 0
311.001 346.5 m 0
 328.334 368.167 337.001 398.333 337.001 437 c 0
 337.001 476.334 328.334 507.667 311.001 531 c 0
 293.668 554.333 272.335 566 247.002 566 c 0
 221.669 566 200.169 554.333 182.502 531 c 0
 164.835 507.667 156.002 476.667 156.002 438 c 0
 156.002 399.333 164.669 369 182.002 347 c 0
 199.335 325 220.668 314 246.001 314 c 0
 272.001 314 293.668 324.833 311.001 346.5 c 0
76.001 151.999 m 1
 76.001 205.999 l 1
 425.001 205.999 l 1
 425.001 151.999 l 1
 76.001 151.999 l 1
EndSplineSet
EndChar

StartChar: guillemotright
Encoding: 187 187 125
Width: 500
GlyphClass: 2
Flags: W
LayerCount: 2
Fore
SplineSet
112 61 m 1
 72 101 l 1
 200 241 l 1
 79 359 l 1
 118 400 l 1
 269 253 l 1
 269 230 l 1
 112 61 l 1
293 61 m 1
 253 101 l 1
 381 241 l 1
 260 359 l 1
 299 400 l 1
 451 253 l 1
 451 230 l 1
 293 61 l 1
EndSplineSet
EndChar

StartChar: onequarter
Encoding: 188 188 126
Width: 500
GlyphClass: 2
Flags: W
LayerCount: 2
Fore
SplineSet
95 374 m 1
 95 614 l 1
 18 594 l 1
 5 619 l 1
 112 677 l 1
 146 677 l 1
 146 374 l 1
 95 374 l 1
123 -42 m 1
 76 -16 l 1
 389 665 l 1
 437 638 l 1
 123 -42 l 1
381 -70 m 1
 381 8 l 1
 236 8 l 1
 236 37 l 1
 396 242 l 1
 427 242 l 1
 427 45 l 1
 477 45 l 1
 477 8 l 1
 427 8 l 1
 427 -70 l 1
 381 -70 l 1
288 45 m 1
 382 45 l 1
 382 164 l 1
 288 45 l 1
EndSplineSet
EndChar

StartChar: onehalf
Encoding: 189 189 127
Width: 500
GlyphClass: 2
Flags: W
LayerCount: 2
Fore
SplineSet
95 374 m 1
 95 614 l 1
 18 594 l 1
 5 619 l 1
 112 677 l 1
 146 677 l 1
 146 374 l 1
 95 374 l 1
123 -42 m 1
 76 -16 l 1
 389 665 l 1
 437 638 l 1
 123 -42 l 1
270 -38 m 1
 298 -0.666992 332.998 33.667 374.998 65 c 0
 400.331 85 417.331 99.833 425.998 109.5 c 0
 434.665 119.167 438.998 129.334 438.998 140.001 c 0
 438.998 156.668 433.498 169.835 422.498 179.501 c 0
 411.498 189.168 396.998 194.001 378.998 194.001 c 0
 348.331 194.001 324.664 182.668 307.998 160.001 c 0
 306.665 158.668 305.332 156.001 303.999 152.001 c 0
 302.666 148.001 301.333 145.001 300 143.001 c 1
 263 168.001 l 1
 289 212.668 331 235.001 389 235.001 c 0
 416.333 235.001 439.5 225.834 458.5 207.501 c 0
 477.5 189.168 487 167.668 487 143.001 c 0
 487 128.334 484.833 116.001 480.5 106.001 c 0
 476.167 96.001 468 85.668 456 75.001 c 0
 444 64.334 424.667 49.667 398 31 c 0
 368.667 9.66699 345.667 -10.333 329 -29 c 1
 475 -29 l 2
 476.337 -29 479.17 -27.833 483.5 -25.5 c 0
 487.833 -23.167 491.333 -22 494 -22 c 1
 494 -73 l 1
 270 -73 l 1
 270 -38 l 1
EndSplineSet
EndChar

StartChar: threequarters
Encoding: 190 190 128
Width: 500
GlyphClass: 2
Flags: W
LayerCount: 2
Fore
SplineSet
11 426 m 1
 48.999 467.999 l 1
 50.332 466.666 51.999 462.999 53.999 456.999 c 0
 55.999 450.999 57.999 446.999 59.999 444.999 c 0
 77.332 427.666 98.332 418.999 122.999 418.999 c 0
 142.332 418.999 159.499 423.832 174.499 433.499 c 0
 189.499 443.166 196.999 454.333 196.999 467 c 0
 196.999 483 191.499 495 180.499 503 c 0
 169.499 511 151.332 515 125.999 515 c 0
 115.332 515 107.332 514.667 101.999 514 c 1
 101.999 554 l 1
 105.999 552.667 108.999 552 110.999 552 c 2
 123.999 553 l 1
 143.999 553 159.166 557 169.499 565 c 0
 179.832 573 184.999 582.667 184.999 594 c 0
 184.999 606 179.332 617 167.999 627 c 0
 156.666 637 142.333 642 125 642 c 0
 95 642 70.333 629.333 51 604 c 1
 22 634 l 1
 50 667.333 85.333 684 128 684 c 0
 157.333 684 182 675.667 202 659 c 0
 222 642.333 232 622 232 598 c 0
 232 583.333 227.833 570.333 219.5 559 c 0
 211.166 547.667 200.333 539.667 187 535 c 1
 204.333 532.333 218.5 524.5 229.5 511.5 c 0
 240.5 498.5 246 483.667 246 467 c 0
 246 441 234 419 210 401 c 0
 186 383 157.667 374 125 374 c 0
 79.667 374 41.667 391.333 11 426 c 1
127.999 -42.001 m 1
 80.999 -16.001 l 1
 393.999 664.999 l 1
 441.999 637.999 l 1
 127.999 -42.001 l 1
380.999 -70.001 m 1
 380.999 7.99902 l 1
 235.999 7.99902 l 1
 235.999 36.999 l 1
 395.999 241.999 l 1
 426.999 241.999 l 1
 426.999 44.999 l 1
 476.999 44.999 l 1
 476.999 7.99902 l 1
 426.999 7.99902 l 1
 426.999 -70.001 l 1
 380.999 -70.001 l 1
287.999 44.999 m 1
 381.999 44.999 l 1
 381.999 163.999 l 1
 287.999 44.999 l 1
EndSplineSet
EndChar

StartChar: questiondown
Encoding: 191 191 129
Width: 500
GlyphClass: 2
Flags: W
LayerCount: 2
Fore
SplineSet
278 536 m 0
 289.333 524.667 295.001 511.334 295.001 496.001 c 0
 295.001 480.668 289.334 467.335 278.001 456.002 c 0
 266.668 444.669 253.001 439.002 237.001 439.002 c 0
 221.667 439.002 208.334 444.669 197.001 456.002 c 0
 185.668 467.336 180.001 480.669 180.001 496.001 c 0
 180.001 511.334 185.668 524.667 197.001 536 c 0
 208.334 547.333 221.667 553 237 553 c 0
 253 553 266.667 547.333 278 536 c 0
272.001 316 m 2
 272.001 283.333 265.998 257.001 253.998 237.001 c 0
 241.998 217.001 224.331 195.668 200.998 173.001 c 0
 178.331 150.334 161.331 129.667 149.998 111 c 0
 138.665 92.333 132.998 68 132.998 38 c 0
 132.998 8 143.331 -16.167 163.998 -34.5 c 0
 184.665 -52.833 211.332 -62 243.998 -62 c 0
 274.665 -62 300.832 -57.5 322.499 -48.5 c 0
 344.166 -39.5 358.333 -29.333 365 -18 c 0
 377.667 2 384 13.333 384 16 c 0
 384 16.667 382.833 16.5 380.5 15.5 c 0
 378.167 14.5 376.667 15.333 376 18 c 1
 379 24 l 1
 388 19 l 1
 434 -19 l 1
 410.667 -53.667 384.334 -79.667 355.001 -97 c 0
 325.668 -114.333 287.668 -123 241.001 -123 c 0
 187.668 -123 144.835 -109 112.502 -81 c 0
 80.1689 -53 64.002 -15 64.002 33 c 0
 64.002 71 70.6689 101.333 84.002 124 c 0
 97.335 146.667 116.668 170 142.001 194 c 0
 164.001 216 180.168 235.333 190.501 252 c 0
 200.834 268.667 206.001 290 206.001 316 c 2
 206.001 357 l 1
 272.001 357 l 1
 272.001 316 l 2
EndSplineSet
EndChar

StartChar: Agrave
Encoding: 192 192 130
Width: 500
GlyphClass: 2
Flags: W
AnchorPoint: "Anchor-8" 0 0 basechar 0
AnchorPoint: "Anchor-7" 0 0 basechar 0
AnchorPoint: "Anchor-6" 231 791 basechar 0
AnchorPoint: "Anchor-5" 414 0 basechar 0
AnchorPoint: "Anchor-4" 250 0 basechar 0
LayerCount: 2
Fore
SplineSet
412 0 m 1
 349 182 l 1
 148 182 l 1
 85 0 l 1
 16 0 l 1
 246 634 l 1
 254 634 l 1
 484 0 l 1
 412 0 l 1
167 236 m 1
 331 236 l 1
 249 474 l 1
 167 236 l 1
293 660 m 1
 123 721 l 1
 163 791 l 1
 316 702 l 1
 293 660 l 1
EndSplineSet
EndChar

StartChar: Aacute
Encoding: 193 193 131
Width: 500
GlyphClass: 2
Flags: W
AnchorPoint: "Anchor-8" 0 0 basechar 0
AnchorPoint: "Anchor-7" 0 0 basechar 0
AnchorPoint: "Anchor-6" 250 741 basechar 0
AnchorPoint: "Anchor-5" 414 0 basechar 0
AnchorPoint: "Anchor-4" 250 0 basechar 0
LayerCount: 2
Fore
SplineSet
412 0 m 1
 349 182 l 1
 148 182 l 1
 85 0 l 1
 16 0 l 1
 246 634 l 1
 254 634 l 1
 484 0 l 1
 412 0 l 1
167 236 m 1
 331 236 l 1
 249 474 l 1
 167 236 l 1
177 660 m 1
 154 702 l 1
 306 791 l 1
 346 721 l 1
 177 660 l 1
EndSplineSet
EndChar

StartChar: Acircumflex
Encoding: 194 194 132
Width: 500
GlyphClass: 2
Flags: W
AnchorPoint: "Anchor-8" 0 0 basechar 0
AnchorPoint: "Anchor-7" 0 0 basechar 0
AnchorPoint: "Anchor-6" 402 730 basechar 0
AnchorPoint: "Anchor-5" 414 0 basechar 0
AnchorPoint: "Anchor-4" 250 0 basechar 0
LayerCount: 2
Fore
SplineSet
412 0 m 1
 349 182 l 1
 148 182 l 1
 85 0 l 1
 16 0 l 1
 246 634 l 1
 254 634 l 1
 484 0 l 1
 412 0 l 1
167 236 m 1
 331 236 l 1
 249 474 l 1
 167 236 l 1
125 655 m 1
 92 693 l 1
 235 791 l 1
 257 791 l 1
 408 692 l 1
 378 656 l 1
 248 726 l 1
 125 655 l 1
EndSplineSet
EndChar

StartChar: Atilde
Encoding: 195 195 133
Width: 500
GlyphClass: 2
Flags: W
AnchorPoint: "Anchor-8" 0 0 basechar 0
AnchorPoint: "Anchor-7" 0 0 basechar 0
AnchorPoint: "Anchor-6" 250 778 basechar 0
AnchorPoint: "Anchor-5" 414 0 basechar 0
AnchorPoint: "Anchor-4" 250 0 basechar 0
LayerCount: 2
Fore
SplineSet
412 0 m 1
 349 182 l 1
 148 182 l 1
 85 0 l 1
 16 0 l 1
 246 634 l 1
 254 634 l 1
 484 0 l 1
 412 0 l 1
167 236 m 1
 331 236 l 1
 249 474 l 1
 167 236 l 1
425 763 m 1
 410.332 735 396.166 715.499 382.501 704.499 c 0
 368.834 693.499 352.001 687.999 332.001 687.999 c 0
 318.001 687.999 305.501 690.499 294.501 695.499 c 0
 283.501 700.499 270.668 707.999 256.001 717.999 c 0
 243.334 725.999 233.167 731.999 225.5 735.999 c 0
 217.833 739.999 209.333 741.999 200 741.999 c 0
 188 741.999 177.667 738.499 169 731.499 c 0
 160.333 724.499 152 712.332 144 694.999 c 1
 95 716.999 l 1
 105 740.999 118.5 760.332 135.5 774.999 c 0
 152.5 789.666 173.333 796.999 198 796.999 c 0
 212 796.999 224 794.499 234 789.499 c 0
 244 784.499 256 777.332 270 767.999 c 0
 281.333 759.332 291.333 752.999 300 748.999 c 0
 308.667 744.999 318 742.999 328 742.999 c 0
 338.667 742.999 347.5 746.332 354.5 752.999 c 0
 361.5 759.669 369.667 772.336 379 791 c 1
 425 763 l 1
EndSplineSet
EndChar

StartChar: Adieresis
Encoding: 196 196 134
Width: 500
GlyphClass: 2
Flags: W
AnchorPoint: "Anchor-8" 0 0 basechar 0
AnchorPoint: "Anchor-7" 0 0 basechar 0
AnchorPoint: "Anchor-6" 248 765 basechar 0
AnchorPoint: "Anchor-5" 414 0 basechar 0
AnchorPoint: "Anchor-4" 250 0 basechar 0
LayerCount: 2
Fore
SplineSet
412 0 m 1
 349 182 l 1
 148 182 l 1
 85 0 l 1
 16 0 l 1
 246 634 l 1
 254 634 l 1
 484 0 l 1
 412 0 l 1
167 236 m 1
 331 236 l 1
 249 474 l 1
 167 236 l 1
125 703 m 0
 115 713 110 724.668 110 738.001 c 0
 110 751.334 115 763.167 125 773.5 c 0
 135 783.833 146.667 789 160 789 c 0
 174 789 186 784 196 774 c 0
 206 764 211 752 211 738 c 0
 211 724.667 206 713 196 703 c 0
 186 693 174 688 160 688 c 0
 146.667 688 135 693 125 703 c 0
303.5 702.501 m 0
 293.833 712.168 289 724.001 289 738.001 c 0
 289 752.001 293.833 764.001 303.5 774.001 c 0
 313.167 784.001 324.667 789.001 338 789.001 c 0
 352 789.001 364 784.001 374 774.001 c 0
 384 764.001 389 752.001 389 738.001 c 0
 389 724.668 384 713.001 374 703.001 c 0
 364 693.001 352 688.001 338 688.001 c 0
 324.667 688.001 313.167 692.834 303.5 702.501 c 0
EndSplineSet
EndChar

StartChar: Aring
Encoding: 197 197 135
Width: 500
GlyphClass: 2
Flags: W
AnchorPoint: "Anchor-8" 0 0 basechar 0
AnchorPoint: "Anchor-7" 0 0 basechar 0
AnchorPoint: "Anchor-6" 250 795 basechar 0
AnchorPoint: "Anchor-5" 414 0 basechar 0
AnchorPoint: "Anchor-4" 250 0 basechar 0
LayerCount: 2
Fore
SplineSet
349 182 m 1
 148 182 l 1
 85 0 l 1
 16 0 l 1
 241 619 l 1
 217.667 621.672 198 631.339 182 648.001 c 0
 166 664.67 158 684.337 158 707.001 c 0
 158 731.001 167.167 751.668 185.5 769.001 c 0
 203.833 786.334 225.333 795.001 250 795.001 c 0
 274.667 795.001 296 786.334 314 769.001 c 0
 332 751.668 341 730.668 341 706.001 c 0
 341 684.001 333.167 664.668 317.5 648.001 c 0
 301.833 631.334 282.333 621.667 259 619 c 1
 484 0 l 1
 412 0 l 1
 349 182 l 1
221.5 675 m 0
 229.833 666.333 239.667 662.001 251 662.001 c 0
 262.333 662.001 272 666.334 280 675.001 c 0
 288 683.669 292 694.336 292 707.001 c 0
 292 720.334 288 731.334 280 740.001 c 0
 272 748.668 262.333 753.001 251 753.001 c 0
 239 753.001 229 748.668 221 740.001 c 0
 213 731.334 209 720.334 209 707.001 c 0
 209 694.334 213.167 683.667 221.5 675 c 0
167.001 236.001 m 1
 331.001 236.001 l 1
 249.001 474.001 l 1
 167.001 236.001 l 1
EndSplineSet
EndChar

StartChar: AE
Encoding: 198 198 136
Width: 500
GlyphClass: 2
Flags: W
LayerCount: 2
Fore
SplineSet
15 0 m 1
 211 624 l 1
 495 624 l 1
 495 562 l 1
 324 562 l 1
 324 357 l 1
 469 357 l 1
 469 293 l 1
 324 293 l 1
 324 62 l 1
 493 62 l 1
 493 0 l 1
 263 0 l 1
 263 169 l 1
 133 169 l 1
 79 0 l 1
 15 0 l 1
147 227 m 1
 263 227 l 1
 263 562 l 1
 252 562 l 1
 147 227 l 1
EndSplineSet
EndChar

StartChar: Ccedilla
Encoding: 199 199 137
Width: 500
GlyphClass: 2
Flags: W
AnchorPoint: "Anchor-8" 0 0 basechar 0
AnchorPoint: "Anchor-7" 0 0 basechar 0
AnchorPoint: "Anchor-6" 270 623 basechar 0
AnchorPoint: "Anchor-5" 0 0 basechar 0
AnchorPoint: "Anchor-4" 280 -177 basechar 0
LayerCount: 2
Fore
SplineSet
353 70.5 m 0
 375.667 84.167 394 102.665 408 125.998 c 1
 460 91.998 l 1
 442 61.998 421.167 38.665 397.5 21.998 c 0
 373.833 5.33105 345.666 -5.00195 313 -9.00195 c 1
 308 -47.002 l 1
 336 -49.6689 357.167 -57.1689 371.5 -69.502 c 0
 385.833 -81.835 393 -96.002 393 -112.002 c 0
 393 -136.002 383 -156.169 363 -172.502 c 0
 343 -188.835 314.333 -197.002 277 -197.002 c 0
 241.667 -197.002 208.667 -186.669 178 -166.002 c 1
 203 -124.002 l 1
 228.333 -144.002 257.333 -154.002 290 -154.002 c 0
 323.333 -154.002 340 -142.002 340 -118.002 c 0
 340 -107.335 335.5 -99.168 326.5 -93.501 c 0
 317.5 -87.834 305 -85.001 289 -85.001 c 2
 259 -85.001 l 1
 269 -10.001 l 1
 201 -6.00098 146.167 22.666 104.5 75.999 c 0
 62.833 129.332 41.666 206.665 40.999 307.998 c 0
 40.999 384.665 52.666 446.832 75.999 494.499 c 0
 99.332 542.167 128.999 576.334 164.999 597 c 0
 200.999 617.667 239.666 628 280.999 628 c 0
 324.999 628 363.166 617 395.499 595 c 0
 427.832 573 452.332 543 468.999 505 c 1
 408.999 477 l 2
 408.332 477 407.999 477.333 407.999 478 c 1
 407.999 478 l 1
 390.666 512.667 371.333 537 350 551 c 0
 328.667 565 305 572 279 572 c 0
 226.333 572 184.833 549.167 154.5 503.5 c 0
 124.167 457.833 109 394.333 109 313 c 0
 109 261.667 116.667 216 132 176 c 0
 147.333 136 168.166 105 194.499 83 c 0
 220.832 61 249.999 50 281.999 50 c 0
 306.666 50 330.333 56.833 353 70.5 c 0
399 481.998 m 2
 400.333 481.998 403 479.998 407 475.998 c 1
 400 472.998 l 1
 397 479.998 l 1
 399 481.998 l 2
407 475.998 m 1
 409 476.998 l 1
 411.667 470.998 411 470.665 407 475.998 c 1
EndSplineSet
EndChar

StartChar: Egrave
Encoding: 200 200 138
Width: 500
GlyphClass: 2
Flags: W
AnchorPoint: "Anchor-8" 0 0 basechar 0
AnchorPoint: "Anchor-7" 0 0 basechar 0
AnchorPoint: "Anchor-6" 251 791 basechar 0
AnchorPoint: "Anchor-5" 450 10 basechar 0
AnchorPoint: "Anchor-4" 250 0 basechar 0
LayerCount: 2
Fore
SplineSet
59 0 m 1
 59 624 l 1
 441 624 l 1
 441 562 l 1
 125 562 l 1
 125 357 l 1
 386 357 l 1
 386 293 l 1
 125 293 l 1
 125 62 l 1
 438 62 l 1
 438 0 l 1
 59 0 l 1
313 660 m 1
 143 721 l 1
 183 791 l 1
 336 702 l 1
 313 660 l 1
EndSplineSet
EndChar

StartChar: Eacute
Encoding: 201 201 139
Width: 500
GlyphClass: 2
Flags: W
AnchorPoint: "Anchor-8" 0 0 basechar 0
AnchorPoint: "Anchor-7" 0 0 basechar 0
AnchorPoint: "Anchor-6" 270 741 basechar 0
AnchorPoint: "Anchor-5" 450 10 basechar 0
AnchorPoint: "Anchor-4" 250 0 basechar 0
LayerCount: 2
Fore
SplineSet
59 0 m 1
 59 624 l 1
 441 624 l 1
 441 562 l 1
 125 562 l 1
 125 357 l 1
 386 357 l 1
 386 293 l 1
 125 293 l 1
 125 62 l 1
 438 62 l 1
 438 0 l 1
 59 0 l 1
197 660 m 1
 174 702 l 1
 326 791 l 1
 366 721 l 1
 197 660 l 1
EndSplineSet
EndChar

StartChar: Ecircumflex
Encoding: 202 202 140
Width: 500
GlyphClass: 2
Flags: W
AnchorPoint: "Anchor-8" 0 0 basechar 0
AnchorPoint: "Anchor-7" 0 0 basechar 0
AnchorPoint: "Anchor-6" 422 730 basechar 0
AnchorPoint: "Anchor-5" 450 10 basechar 0
AnchorPoint: "Anchor-4" 250 0 basechar 0
LayerCount: 2
Fore
SplineSet
59 0 m 1
 59 624 l 1
 441 624 l 1
 441 562 l 1
 125 562 l 1
 125 357 l 1
 386 357 l 1
 386 293 l 1
 125 293 l 1
 125 62 l 1
 438 62 l 1
 438 0 l 1
 59 0 l 1
145 655 m 1
 112 693 l 1
 255 791 l 1
 277 791 l 1
 428 692 l 1
 398 656 l 1
 268 726 l 1
 145 655 l 1
EndSplineSet
EndChar

StartChar: Edieresis
Encoding: 203 203 141
Width: 500
GlyphClass: 2
Flags: W
AnchorPoint: "Anchor-8" 0 0 basechar 0
AnchorPoint: "Anchor-7" 0 0 basechar 0
AnchorPoint: "Anchor-6" 268 765 basechar 0
AnchorPoint: "Anchor-5" 450 10 basechar 0
AnchorPoint: "Anchor-4" 250 0 basechar 0
LayerCount: 2
Fore
SplineSet
59 0 m 1
 59 624 l 1
 441 624 l 1
 441 562 l 1
 125 562 l 1
 125 357 l 1
 386 357 l 1
 386 293 l 1
 125 293 l 1
 125 62 l 1
 438 62 l 1
 438 0 l 1
 59 0 l 1
145 703 m 0
 135 713 130 724.668 130 738.001 c 0
 130 751.334 135 763.167 145 773.5 c 0
 155 783.833 166.667 789 180 789 c 0
 194 789 206 784 216 774 c 0
 226 764 231 752 231 738 c 0
 231 724.667 226 713 216 703 c 0
 206 693 194 688 180 688 c 0
 166.667 688 155 693 145 703 c 0
323.5 702.501 m 0
 313.833 712.168 309 724.001 309 738.001 c 0
 309 752.001 313.833 764.001 323.5 774.001 c 0
 333.167 784.001 344.667 789.001 358 789.001 c 0
 372 789.001 384 784.001 394 774.001 c 0
 404 764.001 409 752.001 409 738.001 c 0
 409 724.668 404 713.001 394 703.001 c 0
 384 693.001 372 688.001 358 688.001 c 0
 344.667 688.001 333.167 692.834 323.5 702.501 c 0
EndSplineSet
EndChar

StartChar: Igrave
Encoding: 204 204 142
Width: 500
GlyphClass: 2
Flags: W
AnchorPoint: "Anchor-8" 0 0 basechar 0
AnchorPoint: "Anchor-7" 0 0 basechar 0
AnchorPoint: "Anchor-6" 220 791 basechar 0
AnchorPoint: "Anchor-5" 353 0 basechar 0
AnchorPoint: "Anchor-4" 250 0 basechar 0
LayerCount: 2
Fore
SplineSet
81 0 m 1
 81 59 l 1
 204 59 l 1
 204 564 l 1
 88 564 l 1
 88 623 l 1
 397 623 l 1
 397 564 l 1
 274 564 l 1
 274 58 l 1
 403 58 l 1
 403 0 l 1
 81 0 l 1
282 660 m 1
 112 721 l 1
 152 791 l 1
 305 702 l 1
 282 660 l 1
EndSplineSet
EndChar

StartChar: Iacute
Encoding: 205 205 143
Width: 500
GlyphClass: 2
Flags: W
AnchorPoint: "Anchor-8" 0 0 basechar 0
AnchorPoint: "Anchor-7" 0 0 basechar 0
AnchorPoint: "Anchor-6" 239 741 basechar 0
AnchorPoint: "Anchor-5" 353 0 basechar 0
AnchorPoint: "Anchor-4" 250 0 basechar 0
LayerCount: 2
Fore
SplineSet
81 0 m 1
 81 59 l 1
 204 59 l 1
 204 564 l 1
 88 564 l 1
 88 623 l 1
 397 623 l 1
 397 564 l 1
 274 564 l 1
 274 58 l 1
 403 58 l 1
 403 0 l 1
 81 0 l 1
166 660 m 1
 143 702 l 1
 295 791 l 1
 335 721 l 1
 166 660 l 1
EndSplineSet
EndChar

StartChar: Icircumflex
Encoding: 206 206 144
Width: 500
GlyphClass: 2
Flags: W
AnchorPoint: "Anchor-8" 0 0 basechar 0
AnchorPoint: "Anchor-7" 0 0 basechar 0
AnchorPoint: "Anchor-6" 391 730 basechar 0
AnchorPoint: "Anchor-5" 353 0 basechar 0
AnchorPoint: "Anchor-4" 250 0 basechar 0
LayerCount: 2
Fore
SplineSet
81 0 m 1
 81 59 l 1
 204 59 l 1
 204 564 l 1
 88 564 l 1
 88 623 l 1
 397 623 l 1
 397 564 l 1
 274 564 l 1
 274 58 l 1
 403 58 l 1
 403 0 l 1
 81 0 l 1
114 655 m 1
 81 693 l 1
 224 791 l 1
 246 791 l 1
 397 692 l 1
 367 656 l 1
 237 726 l 1
 114 655 l 1
EndSplineSet
EndChar

StartChar: Idieresis
Encoding: 207 207 145
Width: 500
GlyphClass: 2
Flags: W
AnchorPoint: "Anchor-8" 0 0 basechar 0
AnchorPoint: "Anchor-7" 0 0 basechar 0
AnchorPoint: "Anchor-6" 237 765 basechar 0
AnchorPoint: "Anchor-5" 353 0 basechar 0
AnchorPoint: "Anchor-4" 250 0 basechar 0
LayerCount: 2
Fore
SplineSet
81 0 m 1
 81 59 l 1
 204 59 l 1
 204 564 l 1
 88 564 l 1
 88 623 l 1
 397 623 l 1
 397 564 l 1
 274 564 l 1
 274 58 l 1
 403 58 l 1
 403 0 l 1
 81 0 l 1
114 703 m 0
 104 713 99 724.668 99 738.001 c 0
 99 751.334 104 763.167 114 773.5 c 0
 124 783.833 135.667 789 149 789 c 0
 163 789 175 784 185 774 c 0
 195 764 200 752 200 738 c 0
 200 724.667 195 713 185 703 c 0
 175 693 163 688 149 688 c 0
 135.667 688 124 693 114 703 c 0
292.5 702.501 m 0
 282.833 712.168 278 724.001 278 738.001 c 0
 278 752.001 282.833 764.001 292.5 774.001 c 0
 302.167 784.001 313.667 789.001 327 789.001 c 0
 341 789.001 353 784.001 363 774.001 c 0
 373 764.001 378 752.001 378 738.001 c 0
 378 724.668 373 713.001 363 703.001 c 0
 353 693.001 341 688.001 327 688.001 c 0
 313.667 688.001 302.167 692.834 292.5 702.501 c 0
EndSplineSet
EndChar

StartChar: Eth
Encoding: 208 208 146
Width: 500
GlyphClass: 2
Flags: W
LayerCount: 2
Fore
SplineSet
79 301 m 1
 29.999 301.001 l 1
 29.999 359.001 l 1
 78.999 359.001 l 1
 78.999 623.001 l 1
 217.999 623.001 l 2
 303.332 623.001 365.999 595.001 405.999 539.001 c 0
 445.999 483.001 465.999 405.334 465.999 306.001 c 0
 465.999 244.001 452.832 185.668 426.499 131.001 c 0
 400.166 76.334 364.333 38.667 319 18 c 1
 293.667 5.33301 256 -1 206 -1 c 2
 79 -1 l 1
 79 301 l 1
202.999 57.001 m 2
 266.332 57.001 314.832 78.668 348.499 122.001 c 0
 382.166 165.334 398.999 226.667 398.999 306 c 0
 398.999 388.667 383.832 452.334 353.499 497.001 c 0
 323.166 541.668 276.666 564.001 213.999 564.001 c 2
 142.999 564.001 l 1
 142.999 359.001 l 1
 247.999 359.001 l 1
 247.999 301.001 l 1
 142.999 301.001 l 1
 142.999 57.001 l 1
 202.999 57.001 l 2
EndSplineSet
EndChar

StartChar: Ntilde
Encoding: 209 209 147
Width: 500
GlyphClass: 2
Flags: W
AnchorPoint: "Anchor-8" 0 0 basechar 0
AnchorPoint: "Anchor-7" 0 0 basechar 0
AnchorPoint: "Anchor-6" 250 778 basechar 0
AnchorPoint: "Anchor-5" 0 0 basechar 0
AnchorPoint: "Anchor-4" 250 0 basechar 0
LayerCount: 2
Fore
SplineSet
50 623 m 1
 118 623 l 1
 380 161 l 1
 380 623 l 1
 456 623 l 1
 456 616 l 1
 452 612 449.5 607.667 448.5 603 c 0
 447.5 598.333 447 590.333 447 579 c 2
 447 0 l 1
 392 0 l 1
 117 490 l 1
 117 0 l 1
 50 0 l 1
 50 623 l 1
425 763 m 1
 410.332 735 396.166 715.499 382.501 704.499 c 0
 368.834 693.499 352.001 687.999 332.001 687.999 c 0
 318.001 687.999 305.501 690.499 294.501 695.499 c 0
 283.501 700.499 270.668 707.999 256.001 717.999 c 0
 243.334 725.999 233.167 731.999 225.5 735.999 c 0
 217.833 739.999 209.333 741.999 200 741.999 c 0
 188 741.999 177.667 738.499 169 731.499 c 0
 160.333 724.499 152 712.332 144 694.999 c 1
 95 716.999 l 1
 105 740.999 118.5 760.332 135.5 774.999 c 0
 152.5 789.666 173.333 796.999 198 796.999 c 0
 212 796.999 224 794.499 234 789.499 c 0
 244 784.499 256 777.332 270 767.999 c 0
 281.333 759.332 291.333 752.999 300 748.999 c 0
 308.667 744.999 318 742.999 328 742.999 c 0
 338.667 742.999 347.5 746.332 354.5 752.999 c 0
 361.5 759.669 369.667 772.336 379 791 c 1
 425 763 l 1
EndSplineSet
EndChar

StartChar: Ograve
Encoding: 210 210 148
Width: 500
GlyphClass: 2
Flags: W
AnchorPoint: "Anchor-8" 379 584 basechar 0
AnchorPoint: "Anchor-7" 250 312 basechar 0
AnchorPoint: "Anchor-6" 231 791 basechar 0
AnchorPoint: "Anchor-5" 287 10 basechar 0
AnchorPoint: "Anchor-4" 250 0 basechar 0
LayerCount: 2
Fore
SplineSet
85 72 m 0
 46.333 127.333 27 206 27 308 c 0
 27 407.333 46.5 485.333 85.5 542 c 0
 124.5 598.667 179.333 627 250 627 c 0
 320.667 627 375.5 598.667 414.5 542 c 0
 453.5 485.333 473 407.333 473 308 c 0
 473 206 453.667 127.333 415 72 c 0
 376.333 16.667 321.333 -11 250 -11 c 0
 178.667 -11 123.667 16.667 85 72 c 0
361.5 117 m 0
 387.833 161.667 401 225.333 401 308 c 0
 401 387.334 387.667 450.167 361 496.5 c 0
 334.333 542.833 297.333 566 250 566 c 0
 202.667 566 165.667 542.833 139 496.5 c 0
 112.333 450.167 99 387.334 99 308.001 c 0
 99 225.334 112.167 161.667 138.5 117 c 0
 164.833 72.333 202 50 250 50 c 0
 298 50 335.167 72.333 361.5 117 c 0
293 659.999 m 1
 123 720.999 l 1
 163 790.999 l 1
 316 701.999 l 1
 293 659.999 l 1
EndSplineSet
EndChar

StartChar: Oacute
Encoding: 211 211 149
Width: 500
GlyphClass: 2
Flags: W
AnchorPoint: "Anchor-8" 379 584 basechar 0
AnchorPoint: "Anchor-7" 250 312 basechar 0
AnchorPoint: "Anchor-6" 250 741 basechar 0
AnchorPoint: "Anchor-5" 287 10 basechar 0
AnchorPoint: "Anchor-4" 250 0 basechar 0
LayerCount: 2
Fore
SplineSet
85 72 m 0
 46.333 127.333 27 206 27 308 c 0
 27 407.333 46.5 485.333 85.5 542 c 0
 124.5 598.667 179.333 627 250 627 c 0
 320.667 627 375.5 598.667 414.5 542 c 0
 453.5 485.333 473 407.333 473 308 c 0
 473 206 453.667 127.333 415 72 c 0
 376.333 16.667 321.333 -11 250 -11 c 0
 178.667 -11 123.667 16.667 85 72 c 0
361.5 117 m 0
 387.833 161.667 401 225.333 401 308 c 0
 401 387.334 387.667 450.167 361 496.5 c 0
 334.333 542.833 297.333 566 250 566 c 0
 202.667 566 165.667 542.833 139 496.5 c 0
 112.333 450.167 99 387.334 99 308.001 c 0
 99 225.334 112.167 161.667 138.5 117 c 0
 164.833 72.333 202 50 250 50 c 0
 298 50 335.167 72.333 361.5 117 c 0
177 659.999 m 1
 154 701.999 l 1
 306 790.999 l 1
 346 720.999 l 1
 177 659.999 l 1
EndSplineSet
EndChar

StartChar: Ocircumflex
Encoding: 212 212 150
Width: 500
GlyphClass: 2
Flags: W
AnchorPoint: "Anchor-8" 379 584 basechar 0
AnchorPoint: "Anchor-7" 250 312 basechar 0
AnchorPoint: "Anchor-6" 402 730 basechar 0
AnchorPoint: "Anchor-5" 287 10 basechar 0
AnchorPoint: "Anchor-4" 250 0 basechar 0
LayerCount: 2
Fore
SplineSet
85 72 m 0
 46.333 127.333 27 206 27 308 c 0
 27 407.333 46.5 485.333 85.5 542 c 0
 124.5 598.667 179.333 627 250 627 c 0
 320.667 627 375.5 598.667 414.5 542 c 0
 453.5 485.333 473 407.333 473 308 c 0
 473 206 453.667 127.333 415 72 c 0
 376.333 16.667 321.333 -11 250 -11 c 0
 178.667 -11 123.667 16.667 85 72 c 0
361.5 117 m 0
 387.833 161.667 401 225.333 401 308 c 0
 401 387.334 387.667 450.167 361 496.5 c 0
 334.333 542.833 297.333 566 250 566 c 0
 202.667 566 165.667 542.833 139 496.5 c 0
 112.333 450.167 99 387.334 99 308.001 c 0
 99 225.334 112.167 161.667 138.5 117 c 0
 164.833 72.333 202 50 250 50 c 0
 298 50 335.167 72.333 361.5 117 c 0
125 654.999 m 1
 92 692.999 l 1
 235 790.999 l 1
 257 790.999 l 1
 408 691.999 l 1
 378 655.999 l 1
 248 725.999 l 1
 125 654.999 l 1
EndSplineSet
EndChar

StartChar: Otilde
Encoding: 213 213 151
Width: 500
GlyphClass: 2
Flags: W
AnchorPoint: "Anchor-8" 379 584 basechar 0
AnchorPoint: "Anchor-7" 250 312 basechar 0
AnchorPoint: "Anchor-6" 250 778 basechar 0
AnchorPoint: "Anchor-5" 287 10 basechar 0
AnchorPoint: "Anchor-4" 250 0 basechar 0
LayerCount: 2
Fore
SplineSet
85 72 m 0
 46.333 127.333 27 206 27 308 c 0
 27 407.333 46.5 485.333 85.5 542 c 0
 124.5 598.667 179.333 627 250 627 c 0
 320.667 627 375.5 598.667 414.5 542 c 0
 453.5 485.333 473 407.333 473 308 c 0
 473 206 453.667 127.333 415 72 c 0
 376.333 16.667 321.333 -11 250 -11 c 0
 178.667 -11 123.667 16.667 85 72 c 0
361.5 117 m 0
 387.833 161.667 401 225.333 401 308 c 0
 401 387.334 387.667 450.167 361 496.5 c 0
 334.333 542.833 297.333 566 250 566 c 0
 202.667 566 165.667 542.833 139 496.5 c 0
 112.333 450.167 99 387.334 99 308.001 c 0
 99 225.334 112.167 161.667 138.5 117 c 0
 164.833 72.333 202 50 250 50 c 0
 298 50 335.167 72.333 361.5 117 c 0
425 762.999 m 1
 410.332 734.999 396.166 715.498 382.501 704.498 c 0
 368.834 693.498 352.001 687.998 332.001 687.998 c 0
 318.001 687.998 305.501 690.498 294.501 695.498 c 0
 283.501 700.498 270.668 707.998 256.001 717.998 c 0
 243.334 725.998 233.167 731.998 225.5 735.998 c 0
 217.833 739.998 209.333 741.998 200 741.998 c 0
 188 741.998 177.667 738.498 169 731.498 c 0
 160.333 724.498 152 712.331 144 694.998 c 1
 95 716.998 l 1
 105 740.998 118.5 760.331 135.5 774.998 c 0
 152.5 789.665 173.333 796.998 198 796.998 c 0
 212 796.998 224 794.498 234 789.498 c 0
 244 784.498 256 777.331 270 767.998 c 0
 281.333 759.331 291.333 752.998 300 748.998 c 0
 308.667 744.998 318 742.998 328 742.998 c 0
 338.667 742.998 347.5 746.331 354.5 752.998 c 0
 361.5 759.668 369.667 772.335 379 790.999 c 1
 425 762.999 l 1
EndSplineSet
EndChar

StartChar: Odieresis
Encoding: 214 214 152
Width: 500
GlyphClass: 2
Flags: W
AnchorPoint: "Anchor-8" 379 584 basechar 0
AnchorPoint: "Anchor-7" 250 312 basechar 0
AnchorPoint: "Anchor-6" 248 765 basechar 0
AnchorPoint: "Anchor-5" 287 10 basechar 0
AnchorPoint: "Anchor-4" 250 0 basechar 0
LayerCount: 2
Fore
SplineSet
85 72 m 0
 46.333 127.333 27 206 27 308 c 0
 27 407.333 46.5 485.333 85.5 542 c 0
 124.5 598.667 179.333 627 250 627 c 0
 320.667 627 375.5 598.667 414.5 542 c 0
 453.5 485.333 473 407.333 473 308 c 0
 473 206 453.667 127.333 415 72 c 0
 376.333 16.667 321.333 -11 250 -11 c 0
 178.667 -11 123.667 16.667 85 72 c 0
361.5 117 m 0
 387.833 161.667 401 225.333 401 308 c 0
 401 387.334 387.667 450.167 361 496.5 c 0
 334.333 542.833 297.333 566 250 566 c 0
 202.667 566 165.667 542.833 139 496.5 c 0
 112.333 450.167 99 387.334 99 308.001 c 0
 99 225.334 112.167 161.667 138.5 117 c 0
 164.833 72.333 202 50 250 50 c 0
 298 50 335.167 72.333 361.5 117 c 0
125 702.999 m 0
 115 712.999 110 724.667 110 738 c 0
 110 751.333 115 763.166 125 773.499 c 0
 135 783.832 146.667 788.999 160 788.999 c 0
 174 788.999 186 783.999 196 773.999 c 0
 206 763.999 211 751.999 211 737.999 c 0
 211 724.666 206 712.999 196 702.999 c 0
 186 692.999 174 687.999 160 687.999 c 0
 146.667 687.999 135 692.999 125 702.999 c 0
303.5 702.5 m 0
 293.833 712.167 289 724 289 738 c 0
 289 752 293.833 764 303.5 774 c 0
 313.167 784 324.667 789 338 789 c 0
 352 789 364 784 374 774 c 0
 384 764 389 752 389 738 c 0
 389 724.667 384 713 374 703 c 0
 364 693 352 688 338 688 c 0
 324.667 688 313.167 692.833 303.5 702.5 c 0
EndSplineSet
EndChar

StartChar: multiply
Encoding: 215 215 153
Width: 500
GlyphClass: 2
Flags: W
LayerCount: 2
Fore
SplineSet
381 145 m 1
 254 278 l 1
 129 149 l 1
 85 193 l 1
 211 324 l 1
 85 457 l 1
 132 503 l 1
 256 372 l 1
 382 503 l 1
 430 459 l 1
 300 325 l 1
 427 191 l 1
 381 145 l 1
EndSplineSet
EndChar

StartChar: Oslash
Encoding: 216 216 154
Width: 500
GlyphClass: 2
Flags: W
AnchorPoint: "Anchor-8" 379 584 basechar 0
AnchorPoint: "Anchor-7" 250 312 basechar 0
AnchorPoint: "Anchor-6" 250 623 basechar 0
AnchorPoint: "Anchor-5" 287 10 basechar 0
AnchorPoint: "Anchor-4" 250 0 basechar 0
LayerCount: 2
Fore
SplineSet
455 452.5 m 0
 467 410.167 473 361.999 473 307.999 c 0
 473 205.999 453.667 127.332 415 71.999 c 0
 376.333 16.666 321.333 -11.001 250 -11.001 c 0
 200 -11.001 157.667 2.66602 123 29.999 c 1
 85 -42.001 l 1
 41 -22.001 l 1
 88 66.999 l 1
 47.333 121.666 27 201.999 27 307.999 c 0
 27 407.332 46.5 485.332 85.5 541.999 c 0
 124.5 598.666 179.333 626.999 250 626.999 c 0
 294 626.999 333.333 614.999 368 590.999 c 1
 416 681.999 l 1
 458 659.999 l 1
 403 556.999 l 1
 425.667 529.666 443 494.833 455 452.5 c 0
127 139.999 m 1
 335 529.998 l 1
 311 553.998 282.667 565.998 250 565.998 c 0
 202.667 565.998 165.667 542.831 139 496.498 c 0
 112.333 450.165 99 387.332 99 307.999 c 0
 99 239.332 108.333 183.332 127 139.999 c 1
361.5 116.998 m 0
 387.833 161.665 401.001 225.33 401.001 307.997 c 0
 401.001 382.664 389.334 442.331 366.001 486.998 c 1
 156.001 91.998 l 1
 181.334 63.998 212.667 49.998 250 49.998 c 0
 298 49.998 335.167 72.3311 361.5 116.998 c 0
EndSplineSet
EndChar

StartChar: Ugrave
Encoding: 217 217 155
Width: 500
GlyphClass: 2
Flags: W
AnchorPoint: "Anchor-8" 454 623 basechar 0
AnchorPoint: "Anchor-7" 0 0 basechar 0
AnchorPoint: "Anchor-6" 231 791 basechar 0
AnchorPoint: "Anchor-5" 302 10 basechar 0
AnchorPoint: "Anchor-4" 250 0 basechar 0
LayerCount: 2
Fore
SplineSet
101 48 m 0
 67 87.333 50 143 50 215 c 2
 50 623 l 1
 128 623 l 1
 128 616 l 1
 124 612 121.5 607.667 120.5 603 c 0
 119.5 598.333 119 590.333 119 579 c 2
 119 214 l 2
 119 160.667 129.333 119.667 150 91 c 0
 170.667 62.333 204.667 48 252 48 c 0
 300 48 334.5 62.333 355.5 91 c 0
 376.5 119.667 387 161.667 387 217 c 2
 387 623 l 1
 454 623 l 1
 454 218 l 2
 454 141.333 436.167 84 400.5 46 c 0
 364.833 8 315 -11 251 -11 c 0
 185 -11 135 8.66699 101 48 c 0
293 660 m 1
 123 721 l 1
 163 791 l 1
 316 702 l 1
 293 660 l 1
EndSplineSet
EndChar

StartChar: Uacute
Encoding: 218 218 156
Width: 500
GlyphClass: 2
Flags: W
AnchorPoint: "Anchor-8" 454 623 basechar 0
AnchorPoint: "Anchor-7" 0 0 basechar 0
AnchorPoint: "Anchor-6" 250 741 basechar 0
AnchorPoint: "Anchor-5" 302 10 basechar 0
AnchorPoint: "Anchor-4" 250 0 basechar 0
LayerCount: 2
Fore
SplineSet
101 48 m 0
 67 87.333 50 143 50 215 c 2
 50 623 l 1
 128 623 l 1
 128 616 l 1
 124 612 121.5 607.667 120.5 603 c 0
 119.5 598.333 119 590.333 119 579 c 2
 119 214 l 2
 119 160.667 129.333 119.667 150 91 c 0
 170.667 62.333 204.667 48 252 48 c 0
 300 48 334.5 62.333 355.5 91 c 0
 376.5 119.667 387 161.667 387 217 c 2
 387 623 l 1
 454 623 l 1
 454 218 l 2
 454 141.333 436.167 84 400.5 46 c 0
 364.833 8 315 -11 251 -11 c 0
 185 -11 135 8.66699 101 48 c 0
177 660 m 1
 154 702 l 1
 306 791 l 1
 346 721 l 1
 177 660 l 1
EndSplineSet
EndChar

StartChar: Ucircumflex
Encoding: 219 219 157
Width: 500
GlyphClass: 2
Flags: W
AnchorPoint: "Anchor-8" 454 623 basechar 0
AnchorPoint: "Anchor-7" 0 0 basechar 0
AnchorPoint: "Anchor-6" 402 730 basechar 0
AnchorPoint: "Anchor-5" 302 10 basechar 0
AnchorPoint: "Anchor-4" 250 0 basechar 0
LayerCount: 2
Fore
SplineSet
101 48 m 0
 67 87.333 50 143 50 215 c 2
 50 623 l 1
 128 623 l 1
 128 616 l 1
 124 612 121.5 607.667 120.5 603 c 0
 119.5 598.333 119 590.333 119 579 c 2
 119 214 l 2
 119 160.667 129.333 119.667 150 91 c 0
 170.667 62.333 204.667 48 252 48 c 0
 300 48 334.5 62.333 355.5 91 c 0
 376.5 119.667 387 161.667 387 217 c 2
 387 623 l 1
 454 623 l 1
 454 218 l 2
 454 141.333 436.167 84 400.5 46 c 0
 364.833 8 315 -11 251 -11 c 0
 185 -11 135 8.66699 101 48 c 0
125 655 m 1
 92 693 l 1
 235 791 l 1
 257 791 l 1
 408 692 l 1
 378 656 l 1
 248 726 l 1
 125 655 l 1
EndSplineSet
EndChar

StartChar: Udieresis
Encoding: 220 220 158
Width: 500
GlyphClass: 2
Flags: W
AnchorPoint: "Anchor-8" 454 623 basechar 0
AnchorPoint: "Anchor-7" 0 0 basechar 0
AnchorPoint: "Anchor-6" 248 765 basechar 0
AnchorPoint: "Anchor-5" 302 10 basechar 0
AnchorPoint: "Anchor-4" 250 0 basechar 0
LayerCount: 2
Fore
SplineSet
101 48 m 0
 67 87.333 50 143 50 215 c 2
 50 623 l 1
 128 623 l 1
 128 616 l 1
 124 612 121.5 607.667 120.5 603 c 0
 119.5 598.333 119 590.333 119 579 c 2
 119 214 l 2
 119 160.667 129.333 119.667 150 91 c 0
 170.667 62.333 204.667 48 252 48 c 0
 300 48 334.5 62.333 355.5 91 c 0
 376.5 119.667 387 161.667 387 217 c 2
 387 623 l 1
 454 623 l 1
 454 218 l 2
 454 141.333 436.167 84 400.5 46 c 0
 364.833 8 315 -11 251 -11 c 0
 185 -11 135 8.66699 101 48 c 0
125 703 m 0
 115 713 110 724.668 110 738.001 c 0
 110 751.334 115 763.167 125 773.5 c 0
 135 783.833 146.667 789 160 789 c 0
 174 789 186 784 196 774 c 0
 206 764 211 752 211 738 c 0
 211 724.667 206 713 196 703 c 0
 186 693 174 688 160 688 c 0
 146.667 688 135 693 125 703 c 0
303.5 702.501 m 0
 293.833 712.168 289 724.001 289 738.001 c 0
 289 752.001 293.833 764.001 303.5 774.001 c 0
 313.167 784.001 324.667 789.001 338 789.001 c 0
 352 789.001 364 784.001 374 774.001 c 0
 384 764.001 389 752.001 389 738.001 c 0
 389 724.668 384 713.001 374 703.001 c 0
 364 693.001 352 688.001 338 688.001 c 0
 324.667 688.001 313.167 692.834 303.5 702.501 c 0
EndSplineSet
EndChar

StartChar: Yacute
Encoding: 221 221 159
Width: 500
GlyphClass: 2
Flags: W
AnchorPoint: "Anchor-8" 0 0 basechar 0
AnchorPoint: "Anchor-7" 0 0 basechar 0
AnchorPoint: "Anchor-6" 250 741 basechar 0
AnchorPoint: "Anchor-5" 0 0 basechar 0
AnchorPoint: "Anchor-4" 258 0 basechar 0
LayerCount: 2
Fore
SplineSet
220 0 m 1
 220 246 l 1
 28 623 l 1
 108 623 l 1
 261 321 l 1
 399 623 l 1
 473 623 l 1
 296 246 l 1
 296 0 l 1
 220 0 l 1
177 660 m 1
 154 702 l 1
 306 791 l 1
 346 721 l 1
 177 660 l 1
EndSplineSet
EndChar

StartChar: Thorn
Encoding: 222 222 160
Width: 500
GlyphClass: 2
Flags: W
LayerCount: 2
Fore
SplineSet
59 623 m 1
 137 623 l 1
 138.333 621.667 139 620.667 139 620 c 0
 139 618.647 137.667 615.314 135 610 c 0
 132.333 604.667 130.333 599.667 129 595 c 1
 129 506 l 1
 259 506 l 2
 324.333 506 372.833 489.833 404.5 457.5 c 0
 436.167 425.167 453.334 382.667 456.001 330 c 1
 453.333 278 436.666 236.333 406 205 c 0
 375.333 173.667 328 158 264 158 c 2
 129 158 l 1
 129 0 l 1
 59 0 l 1
 59 623 l 1
264 219 m 2
 338 219 377.999 255.333 383.999 328 c 1
 381.332 361.333 369.832 388.333 349.499 409 c 0
 329.166 429.667 298.333 440 257 440 c 2
 129 440 l 1
 129 219 l 1
 264 219 l 2
EndSplineSet
EndChar

StartChar: germandbls
Encoding: 223 223 161
Width: 500
GlyphClass: 2
Flags: W
LayerCount: 2
Fore
SplineSet
177 21 m 1
 211.997 77.002 l 1
 231.997 61.002 256.33 53.002 284.997 53.002 c 0
 303.664 53.002 321.831 59.1689 339.498 71.502 c 0
 357.165 83.835 371.332 100.668 381.999 122.001 c 0
 392.666 143.334 397.999 167.001 397.999 193.001 c 0
 397.999 231.668 385.166 263.001 359.499 287.001 c 0
 333.832 311.001 295.332 323.001 243.999 323.001 c 2
 213.999 323.001 l 1
 213.999 380.001 l 1
 249.999 380.001 l 2
 276.666 380.001 300.333 389.834 321 409.501 c 0
 341.667 429.168 352 456.001 352 490.001 c 0
 352 524.001 341.333 552.668 320 576.001 c 0
 298.667 599.334 272.334 611.001 241.001 611.001 c 0
 203.668 611.001 174.668 594.168 154.001 560.501 c 0
 133.334 526.834 123.001 481.667 123.001 425 c 2
 123.001 0 l 1
 55.001 0 l 1
 55.001 423 l 2
 55.001 503 70.834 564 102.501 606 c 0
 134.168 648 177.001 669 231.001 669 c 0
 265.668 669 297.501 660.833 326.501 644.5 c 0
 355.501 628.167 378.334 606.5 395.001 579.5 c 0
 411.668 552.5 420.001 523.667 420.001 493 c 0
 420.001 464.333 413.001 438 399.001 414 c 0
 385.001 390 365.668 371.667 341.001 359 c 1
 379.001 347 409.001 324.833 431.001 292.5 c 0
 453.001 260.167 464.001 223 464.001 181 c 0
 464.001 145.667 456.501 113.5 441.501 84.5 c 0
 426.501 55.5 405.168 32.5 377.501 15.5 c 0
 349.834 -1.5 317.667 -10 281.001 -10 c 0
 242.334 -10 207.667 0.333008 177 21 c 1
EndSplineSet
EndChar

StartChar: agrave
Encoding: 224 224 162
Width: 500
GlyphClass: 2
Flags: W
AnchorPoint: "Anchor-8" 0 0 basechar 0
AnchorPoint: "Anchor-7" 0 0 basechar 0
AnchorPoint: "Anchor-6" 212 671 basechar 0
AnchorPoint: "Anchor-5" 385 0 basechar 0
AnchorPoint: "Anchor-4" 250 0 basechar 0
LayerCount: 2
Fore
SplineSet
393.5 416 m 0
 427.833 382 445.001 324.333 445.001 243 c 2
 445.001 0 l 1
 367.001 0 l 1
 367.001 70 l 1
 339.001 16 287.001 -11 211.001 -11 c 0
 160.334 -11 120.667 0.5 92 23.5 c 0
 63.333 46.5 49 77 49 115 c 0
 49 147 59.333 175 80 199 c 0
 100.667 223 128.5 241.5 163.5 254.5 c 0
 198.5 267.5 237 274 279 274 c 0
 317 274 351.333 272 382 268 c 1
 378 319.333 364.5 355.5 341.5 376.5 c 0
 318.5 397.5 284.333 408 239 408 c 0
 216.333 408 194.5 403.667 173.5 395 c 0
 152.5 386.332 133.333 373.665 116 357 c 1
 81 403 l 1
 123.667 445.667 178 467 244 467 c 0
 309.334 467 359.167 450 393.5 416 c 0
335.001 87.5 m 0
 363.668 116.5 379.334 158.333 382.001 213 c 1
 352.001 217.667 319.668 220 285.001 220 c 0
 234.334 220 194.334 211.667 165.001 195 c 0
 135.668 178.333 121.001 153 121.001 119 c 0
 121.001 69 153.334 44 218.001 44 c 0
 267.334 44 306.334 58.5 335.001 87.5 c 0
244 507 m 1
 143 642 l 1
 198 682 l 1
 282 533 l 1
 244 507 l 1
EndSplineSet
EndChar

StartChar: aacute
Encoding: 225 225 163
Width: 500
GlyphClass: 2
Flags: W
AnchorPoint: "Anchor-8" 0 0 basechar 0
AnchorPoint: "Anchor-7" 0 0 basechar 0
AnchorPoint: "Anchor-6" 269 609 basechar 0
AnchorPoint: "Anchor-5" 385 0 basechar 0
AnchorPoint: "Anchor-4" 250 0 basechar 0
LayerCount: 2
Fore
SplineSet
393.5 416 m 0
 427.833 382 445.001 324.333 445.001 243 c 2
 445.001 0 l 1
 367.001 0 l 1
 367.001 70 l 1
 339.001 16 287.001 -11 211.001 -11 c 0
 160.334 -11 120.667 0.5 92 23.5 c 0
 63.333 46.5 49 77 49 115 c 0
 49 147 59.333 175 80 199 c 0
 100.667 223 128.5 241.5 163.5 254.5 c 0
 198.5 267.5 237 274 279 274 c 0
 317 274 351.333 272 382 268 c 1
 378 319.333 364.5 355.5 341.5 376.5 c 0
 318.5 397.5 284.333 408 239 408 c 0
 216.333 408 194.5 403.667 173.5 395 c 0
 152.5 386.332 133.333 373.665 116 357 c 1
 81 403 l 1
 123.667 445.667 178 467 244 467 c 0
 309.334 467 359.167 450 393.5 416 c 0
335.001 87.5 m 0
 363.668 116.5 379.334 158.333 382.001 213 c 1
 352.001 217.667 319.668 220 285.001 220 c 0
 234.334 220 194.334 211.667 165.001 195 c 0
 135.668 178.333 121.001 153 121.001 119 c 0
 121.001 69 153.334 44 218.001 44 c 0
 267.334 44 306.334 58.5 335.001 87.5 c 0
243 507 m 1
 205 533 l 1
 289 682 l 1
 344 642 l 1
 243 507 l 1
EndSplineSet
EndChar

StartChar: acircumflex
Encoding: 226 226 164
Width: 500
GlyphClass: 2
Flags: W
AnchorPoint: "Anchor-8" 0 0 basechar 0
AnchorPoint: "Anchor-7" 0 0 basechar 0
AnchorPoint: "Anchor-6" 395 568 basechar 0
AnchorPoint: "Anchor-5" 385 0 basechar 0
AnchorPoint: "Anchor-4" 250 0 basechar 0
LayerCount: 2
Fore
SplineSet
393.5 416 m 0
 427.833 382 445.001 324.333 445.001 243 c 2
 445.001 0 l 1
 367.001 0 l 1
 367.001 70 l 1
 339.001 16 287.001 -11 211.001 -11 c 0
 160.334 -11 120.667 0.5 92 23.5 c 0
 63.333 46.5 49 77 49 115 c 0
 49 147 59.333 175 80 199 c 0
 100.667 223 128.5 241.5 163.5 254.5 c 0
 198.5 267.5 237 274 279 274 c 0
 317 274 351.333 272 382 268 c 1
 378 319.333 364.5 355.5 341.5 376.5 c 0
 318.5 397.5 284.333 408 239 408 c 0
 216.333 408 194.5 403.667 173.5 395 c 0
 152.5 386.332 133.333 373.665 116 357 c 1
 81 403 l 1
 123.667 445.667 178 467 244 467 c 0
 309.334 467 359.167 450 393.5 416 c 0
335.001 87.5 m 0
 363.668 116.5 379.334 158.333 382.001 213 c 1
 352.001 217.667 319.668 220 285.001 220 c 0
 234.334 220 194.334 211.667 165.001 195 c 0
 135.668 178.333 121.001 153 121.001 119 c 0
 121.001 69 153.334 44 218.001 44 c 0
 267.334 44 306.334 58.5 335.001 87.5 c 0
139 511 m 1
 99 545 l 1
 238 685 l 1
 262 685 l 1
 401 545 l 1
 361 511 l 1
 250 621 l 1
 139 511 l 1
EndSplineSet
EndChar

StartChar: atilde
Encoding: 227 227 165
Width: 500
GlyphClass: 2
Flags: W
AnchorPoint: "Anchor-8" 0 0 basechar 0
AnchorPoint: "Anchor-7" 0 0 basechar 0
AnchorPoint: "Anchor-6" 250 636 basechar 0
AnchorPoint: "Anchor-5" 385 0 basechar 0
AnchorPoint: "Anchor-4" 250 0 basechar 0
LayerCount: 2
Fore
SplineSet
393.5 416 m 0
 427.833 382 445.001 324.333 445.001 243 c 2
 445.001 0 l 1
 367.001 0 l 1
 367.001 70 l 1
 339.001 16 287.001 -11 211.001 -11 c 0
 160.334 -11 120.667 0.5 92 23.5 c 0
 63.333 46.5 49 77 49 115 c 0
 49 147 59.333 175 80 199 c 0
 100.667 223 128.5 241.5 163.5 254.5 c 0
 198.5 267.5 237 274 279 274 c 0
 317 274 351.333 272 382 268 c 1
 378 319.333 364.5 355.5 341.5 376.5 c 0
 318.5 397.5 284.333 408 239 408 c 0
 216.333 408 194.5 403.667 173.5 395 c 0
 152.5 386.332 133.333 373.665 116 357 c 1
 81 403 l 1
 123.667 445.667 178 467 244 467 c 0
 309.334 467 359.167 450 393.5 416 c 0
335.001 87.5 m 0
 363.668 116.5 379.334 158.333 382.001 213 c 1
 352.001 217.667 319.668 220 285.001 220 c 0
 234.334 220 194.334 211.667 165.001 195 c 0
 135.668 178.333 121.001 153 121.001 119 c 0
 121.001 69 153.334 44 218.001 44 c 0
 267.334 44 306.334 58.5 335.001 87.5 c 0
421 649 m 1
 406.333 621 392.167 601.499 378.501 590.499 c 0
 364.834 579.499 348.001 573.999 328.001 573.999 c 0
 314.001 573.999 301.501 576.499 290.501 581.499 c 0
 279.501 586.499 266.668 593.999 252.001 603.999 c 0
 239.334 611.999 229.167 617.999 221.5 621.999 c 0
 213.833 625.999 205.333 627.999 196 627.999 c 0
 184 627.999 173.667 624.499 165 617.499 c 0
 156.333 610.499 148 598.332 140 580.999 c 1
 91 602.999 l 1
 101 626.999 114.5 646.332 131.5 660.999 c 0
 148.5 675.666 169.333 682.999 194 682.999 c 0
 208 682.999 220 680.499 230 675.499 c 0
 240 670.499 252 663.332 266 653.999 c 0
 277.333 645.332 287.333 638.999 296 634.999 c 0
 304.667 630.999 314 628.999 324 628.999 c 0
 334.667 628.999 343.5 632.332 350.5 638.999 c 0
 357.5 645.671 365.667 658.338 375 677 c 1
 421 649 l 1
EndSplineSet
EndChar

StartChar: adieresis
Encoding: 228 228 166
Width: 500
GlyphClass: 2
Flags: W
AnchorPoint: "Anchor-8" 0 0 basechar 0
AnchorPoint: "Anchor-7" 0 0 basechar 0
AnchorPoint: "Anchor-6" 251 605 basechar 0
AnchorPoint: "Anchor-5" 385 0 basechar 0
AnchorPoint: "Anchor-4" 250 0 basechar 0
LayerCount: 2
Fore
SplineSet
393.5 416 m 0
 427.833 382 445.001 324.333 445.001 243 c 2
 445.001 0 l 1
 367.001 0 l 1
 367.001 70 l 1
 339.001 16 287.001 -11 211.001 -11 c 0
 160.334 -11 120.667 0.5 92 23.5 c 0
 63.333 46.5 49 77 49 115 c 0
 49 147 59.333 175 80 199 c 0
 100.667 223 128.5 241.5 163.5 254.5 c 0
 198.5 267.5 237 274 279 274 c 0
 317 274 351.333 272 382 268 c 1
 378 319.333 364.5 355.5 341.5 376.5 c 0
 318.5 397.5 284.333 408 239 408 c 0
 216.333 408 194.5 403.667 173.5 395 c 0
 152.5 386.332 133.333 373.665 116 357 c 1
 81 403 l 1
 123.667 445.667 178 467 244 467 c 0
 309.334 467 359.167 450 393.5 416 c 0
335.001 87.5 m 0
 363.668 116.5 379.334 158.333 382.001 213 c 1
 352.001 217.667 319.668 220 285.001 220 c 0
 234.334 220 194.334 211.667 165.001 195 c 0
 135.668 178.333 121.001 153 121.001 119 c 0
 121.001 69 153.334 44 218.001 44 c 0
 267.334 44 306.334 58.5 335.001 87.5 c 0
126 579 m 0
 116 589 111 600.668 111 614.001 c 0
 111 627.334 116 639.167 126 649.5 c 0
 136 659.833 148 665 162 665 c 0
 175.333 665 187 660 197 650 c 0
 207 640 212 628 212 614 c 0
 212 600.667 207 589 197 579 c 0
 187 569 175.333 564 162 564 c 0
 148 564 136 569 126 579 c 0
304.5 578.501 m 0
 294.833 588.168 290 600.001 290 614.001 c 0
 290 628.001 294.833 640.001 304.5 650.001 c 0
 314.167 660.001 326 665.001 340 665.001 c 0
 353.333 665.001 365 660.001 375 650.001 c 0
 385 640.001 390 628.001 390 614.001 c 0
 390 600.668 385 589.001 375 579.001 c 0
 365 569.001 353.333 564.001 340 564.001 c 0
 326 564.001 314.167 568.834 304.5 578.501 c 0
EndSplineSet
EndChar

StartChar: aring
Encoding: 229 229 167
Width: 500
GlyphClass: 2
Flags: W
AnchorPoint: "Anchor-8" 0 0 basechar 0
AnchorPoint: "Anchor-7" 0 0 basechar 0
AnchorPoint: "Anchor-6" 250 693 basechar 0
AnchorPoint: "Anchor-5" 385 0 basechar 0
AnchorPoint: "Anchor-4" 250 0 basechar 0
LayerCount: 2
Fore
SplineSet
393.5 416 m 0
 427.833 382 445.001 324.333 445.001 243 c 2
 445.001 0 l 1
 367.001 0 l 1
 367.001 70 l 1
 339.001 16 287.001 -11 211.001 -11 c 0
 160.334 -11 120.667 0.5 92 23.5 c 0
 63.333 46.5 49 77 49 115 c 0
 49 147 59.333 175 80 199 c 0
 100.667 223 128.5 241.5 163.5 254.5 c 0
 198.5 267.5 237 274 279 274 c 0
 317 274 351.333 272 382 268 c 1
 378 319.333 364.5 355.5 341.5 376.5 c 0
 318.5 397.5 284.333 408 239 408 c 0
 216.333 408 194.5 403.667 173.5 395 c 0
 152.5 386.332 133.333 373.665 116 357 c 1
 81 403 l 1
 123.667 445.667 178 467 244 467 c 0
 309.334 467 359.167 450 393.5 416 c 0
335.001 87.5 m 0
 363.668 116.5 379.334 158.333 382.001 213 c 1
 352.001 217.667 319.668 220 285.001 220 c 0
 234.334 220 194.334 211.667 165.001 195 c 0
 135.668 178.333 121.001 153 121.001 119 c 0
 121.001 69 153.334 44 218.001 44 c 0
 267.334 44 306.334 58.5 335.001 87.5 c 0
185.5 543 m 0
 167.167 560.333 158 581 158 605 c 0
 158 629 167.167 649.667 185.5 667 c 0
 203.833 684.333 225 693 249 693 c 0
 274.333 693 296 684.5 314 667.5 c 0
 332 650.5 341 629.667 341 605 c 0
 341 581 331.833 560.333 313.5 543 c 0
 295.167 525.667 273.667 517 249 517 c 0
 225 517 203.833 525.667 185.5 543 c 0
279.5 573.5 m 0
 287.833 582.5 292 593.333 292 606 c 0
 292 618.667 287.833 629.5 279.5 638.5 c 0
 271.167 647.5 261.334 652 250.001 652 c 0
 238.668 652 229.001 647.5 221.001 638.5 c 0
 213.001 629.5 209.001 618.667 209.001 606 c 0
 209.001 593.333 213.001 582.5 221.001 573.5 c 0
 229.001 564.5 238.668 560 250.001 560 c 0
 261.335 560 271.168 564.5 279.5 573.5 c 0
EndSplineSet
EndChar

StartChar: ae
Encoding: 230 230 168
Width: 500
GlyphClass: 2
Flags: W
LayerCount: 2
Fore
SplineSet
42.5 26 m 0
 20.833 50.667 9.99707 82.999 9.99707 122.999 c 0
 9.99707 171.666 27.6641 209.166 62.9971 235.499 c 0
 98.3301 261.832 150.997 276.332 220.997 278.999 c 1
 220.997 323.666 214.664 356.833 201.997 378.5 c 0
 189.33 400.167 169.33 411 141.997 411 c 0
 111.997 411 86.6641 396.667 65.9971 368 c 1
 30.9971 412 l 1
 59.6641 448.667 98.3311 467 146.998 467 c 0
 170.998 467 192.831 461.5 212.498 450.5 c 0
 232.165 439.5 247.332 424.333 257.999 405 c 1
 269.332 424.333 284.499 439.5 303.499 450.5 c 0
 322.499 461.5 341.999 467 361.999 467 c 0
 447.332 467 489.999 400.667 489.999 268 c 2
 489.999 230 l 1
 281.999 223 l 1
 281.999 175 l 2
 281.999 136.333 291.332 105.333 309.999 82 c 0
 328.666 58.667 353.999 47 385.999 47 c 0
 416.666 47 440.999 59.333 458.999 84 c 1
 493.999 42 l 1
 464.666 6.66699 426.666 -11 379.999 -11 c 0
 354.666 -11 330.833 -4.83301 308.5 7.5 c 0
 286.167 19.833 268.334 36.666 255.001 57.999 c 1
 243.668 36.666 228.001 19.833 208.001 7.5 c 0
 188.001 -4.83301 166.001 -11 142.001 -11 c 0
 97.334 -11 64.167 1.33301 42.5 26 c 0
431.997 283.999 m 1
 431.997 326.666 426.497 358.499 415.497 379.499 c 0
 404.497 400.499 386.664 410.999 361.997 410.999 c 0
 336.664 410.999 316.997 399.499 302.997 376.499 c 0
 288.997 353.499 281.997 320.999 281.997 278.999 c 1
 431.997 283.999 l 1
206.497 92.499 m 0
 216.164 120.832 220.998 163.002 220.998 219.002 c 1
 166.331 216.335 128.164 208.168 106.497 194.501 c 0
 84.8301 180.834 73.9971 156.667 73.9971 122 c 0
 73.9971 95.333 79.6641 76.666 90.9971 65.999 c 0
 102.33 55.332 119.997 49.999 143.997 49.999 c 0
 175.997 49.999 196.83 64.166 206.497 92.499 c 0
EndSplineSet
EndChar

StartChar: ccedilla
Encoding: 231 231 169
Width: 500
GlyphClass: 2
Flags: W
AnchorPoint: "Anchor-8" 0 0 basechar 0
AnchorPoint: "Anchor-7" 0 0 basechar 0
AnchorPoint: "Anchor-6" 286 457 basechar 0
AnchorPoint: "Anchor-5" 0 0 basechar 0
AnchorPoint: "Anchor-4" 286 -177 basechar 0
LayerCount: 2
Fore
SplineSet
408 110 m 1
 449.998 60.999 l 1
 411.998 20.999 368.331 -2.33398 318.998 -9.00098 c 1
 313.998 -47.001 l 1
 341.998 -49.668 363.165 -57.168 377.498 -69.501 c 0
 391.831 -81.834 398.998 -96.001 398.998 -112.001 c 0
 398.998 -136.001 388.998 -156.168 368.998 -172.501 c 0
 348.998 -188.834 320.331 -197.001 282.998 -197.001 c 0
 247.665 -197.001 214.665 -186.668 183.998 -166.001 c 1
 208.998 -124.001 l 1
 234.331 -144.001 263.331 -154.001 295.998 -154.001 c 0
 329.331 -154.001 345.998 -142.001 345.998 -118.001 c 0
 345.998 -107.334 341.498 -99.167 332.498 -93.5 c 0
 323.498 -87.833 310.998 -85 294.998 -85 c 2
 264.998 -85 l 1
 274.998 -11 l 1
 232.998 -9.66699 195.331 1.66602 161.998 22.999 c 0
 128.665 44.332 102.665 72.832 83.998 108.499 c 0
 65.3311 144.166 55.998 183.999 55.998 227.999 c 0
 55.998 273.332 65.8311 313.999 85.498 349.999 c 0
 105.165 385.999 132.332 414.332 166.999 434.999 c 0
 201.666 455.666 240.666 465.999 283.999 465.999 c 0
 320.666 465.999 353.999 458.499 383.999 443.499 c 0
 413.999 428.499 438.332 407.666 456.999 380.999 c 1
 411.999 336.999 l 1
 410.999 335.999 l 1
 391.666 361.333 371.833 379.166 351.5 389.499 c 0
 331.167 399.832 306 404.999 276 404.999 c 0
 250 404.999 225.833 397.832 203.5 383.499 c 0
 181.166 369.166 163.333 348.999 150 322.999 c 0
 136.667 296.999 130 266.999 130 232.999 c 0
 130 198.999 136.833 168.332 150.5 140.999 c 0
 164.167 113.666 183.167 92.333 207.5 77 c 0
 231.833 61.667 259 54 289 54 c 0
 335 54 374.667 72.667 408 110 c 1
408.998 333.999 m 1
 404.998 329.999 l 1
 399.998 334.999 l 1
 399.998 338.999 402.998 338.666 408.998 333.999 c 1
413.498 330.999 m 0
 411.831 332.332 410.332 333.332 408.999 333.999 c 1
 410.999 335.999 l 1
 414.345 331.322 415.178 329.655 413.498 330.999 c 0
EndSplineSet
EndChar

StartChar: egrave
Encoding: 232 232 170
Width: 500
GlyphClass: 2
Flags: W
AnchorPoint: "Anchor-8" 0 0 basechar 0
AnchorPoint: "Anchor-7" 0 0 basechar 0
AnchorPoint: "Anchor-6" 222 671 basechar 0
AnchorPoint: "Anchor-5" 318 10 basechar 0
AnchorPoint: "Anchor-4" 280 0 basechar 0
LayerCount: 2
Fore
SplineSet
109.5 52 m 0
 69.167 93.333 48.998 151.667 48.998 227 c 0
 48.998 277 58.3311 320.167 76.998 356.5 c 0
 95.665 392.833 120.832 420.5 152.499 439.5 c 0
 184.166 458.5 219.666 468 258.999 468 c 0
 314.333 468 359.166 449.667 393.499 413 c 0
 427.832 376.333 444.999 322.333 444.999 251 c 0
 444.999 243.667 444.332 232.667 442.999 218 c 1
 117.999 218 l 1
 120.666 162 136.333 119.667 165 91 c 0
 193.667 62.333 230 48 274 48 c 0
 322 48 361.333 65 392 99 c 1
 432 60 l 1
 393.333 13.333 340 -10 272 -10 c 0
 204 -10 149.833 10.667 109.5 52 c 0
371.998 274.001 m 1
 371.998 316.668 361.165 350.501 339.498 375.501 c 0
 317.831 400.501 289.331 413.001 253.998 413.001 c 0
 220.665 413.001 191.665 401.334 166.998 378.001 c 0
 142.331 354.668 126.998 320.001 120.998 274.001 c 1
 371.998 274.001 l 1
253.998 507.001 m 1
 152.998 642.001 l 1
 207.998 682.001 l 1
 291.998 533.001 l 1
 253.998 507.001 l 1
EndSplineSet
EndChar

StartChar: eacute
Encoding: 233 233 171
Width: 500
GlyphClass: 2
Flags: W
AnchorPoint: "Anchor-8" 0 0 basechar 0
AnchorPoint: "Anchor-7" 0 0 basechar 0
AnchorPoint: "Anchor-6" 279 609 basechar 0
AnchorPoint: "Anchor-5" 318 10 basechar 0
AnchorPoint: "Anchor-4" 280 0 basechar 0
LayerCount: 2
Fore
SplineSet
109.5 52 m 0
 69.167 93.333 48.998 151.667 48.998 227 c 0
 48.998 277 58.3311 320.167 76.998 356.5 c 0
 95.665 392.833 120.832 420.5 152.499 439.5 c 0
 184.166 458.5 219.666 468 258.999 468 c 0
 314.333 468 359.166 449.667 393.499 413 c 0
 427.832 376.333 444.999 322.333 444.999 251 c 0
 444.999 243.667 444.332 232.667 442.999 218 c 1
 117.999 218 l 1
 120.666 162 136.333 119.667 165 91 c 0
 193.667 62.333 230 48 274 48 c 0
 322 48 361.333 65 392 99 c 1
 432 60 l 1
 393.333 13.333 340 -10 272 -10 c 0
 204 -10 149.833 10.667 109.5 52 c 0
371.998 274.001 m 1
 371.998 316.668 361.165 350.501 339.498 375.501 c 0
 317.831 400.501 289.331 413.001 253.998 413.001 c 0
 220.665 413.001 191.665 401.334 166.998 378.001 c 0
 142.331 354.668 126.998 320.001 120.998 274.001 c 1
 371.998 274.001 l 1
252.998 507.001 m 1
 214.998 533.001 l 1
 298.998 682.001 l 1
 353.998 642.001 l 1
 252.998 507.001 l 1
EndSplineSet
EndChar

StartChar: ecircumflex
Encoding: 234 234 172
Width: 500
GlyphClass: 2
Flags: W
AnchorPoint: "Anchor-8" 0 0 basechar 0
AnchorPoint: "Anchor-7" 0 0 basechar 0
AnchorPoint: "Anchor-6" 405 568 basechar 0
AnchorPoint: "Anchor-5" 318 10 basechar 0
AnchorPoint: "Anchor-4" 280 0 basechar 0
LayerCount: 2
Fore
SplineSet
109.5 52 m 0
 69.167 93.333 48.998 151.667 48.998 227 c 0
 48.998 277 58.3311 320.167 76.998 356.5 c 0
 95.665 392.833 120.832 420.5 152.499 439.5 c 0
 184.166 458.5 219.666 468 258.999 468 c 0
 314.333 468 359.166 449.667 393.499 413 c 0
 427.832 376.333 444.999 322.333 444.999 251 c 0
 444.999 243.667 444.332 232.667 442.999 218 c 1
 117.999 218 l 1
 120.666 162 136.333 119.667 165 91 c 0
 193.667 62.333 230 48 274 48 c 0
 322 48 361.333 65 392 99 c 1
 432 60 l 1
 393.333 13.333 340 -10 272 -10 c 0
 204 -10 149.833 10.667 109.5 52 c 0
371.998 274.001 m 1
 371.998 316.668 361.165 350.501 339.498 375.501 c 0
 317.831 400.501 289.331 413.001 253.998 413.001 c 0
 220.665 413.001 191.665 401.334 166.998 378.001 c 0
 142.331 354.668 126.998 320.001 120.998 274.001 c 1
 371.998 274.001 l 1
148.998 511.001 m 1
 108.998 545.001 l 1
 247.998 685.001 l 1
 271.998 685.001 l 1
 410.998 545.001 l 1
 370.998 511.001 l 1
 259.998 621.001 l 1
 148.998 511.001 l 1
EndSplineSet
EndChar

StartChar: edieresis
Encoding: 235 235 173
Width: 500
GlyphClass: 2
Flags: W
AnchorPoint: "Anchor-8" 0 0 basechar 0
AnchorPoint: "Anchor-7" 0 0 basechar 0
AnchorPoint: "Anchor-6" 261 605 basechar 0
AnchorPoint: "Anchor-5" 318 10 basechar 0
AnchorPoint: "Anchor-4" 280 0 basechar 0
LayerCount: 2
Fore
SplineSet
109.5 52 m 0
 69.167 93.333 48.998 151.667 48.998 227 c 0
 48.998 277 58.3311 320.167 76.998 356.5 c 0
 95.665 392.833 120.832 420.5 152.499 439.5 c 0
 184.166 458.5 219.666 468 258.999 468 c 0
 314.333 468 359.166 449.667 393.499 413 c 0
 427.832 376.333 444.999 322.333 444.999 251 c 0
 444.999 243.667 444.332 232.667 442.999 218 c 1
 117.999 218 l 1
 120.666 162 136.333 119.667 165 91 c 0
 193.667 62.333 230 48 274 48 c 0
 322 48 361.333 65 392 99 c 1
 432 60 l 1
 393.333 13.333 340 -10 272 -10 c 0
 204 -10 149.833 10.667 109.5 52 c 0
371.998 274.001 m 1
 371.998 316.668 361.165 350.501 339.498 375.501 c 0
 317.831 400.501 289.331 413.001 253.998 413.001 c 0
 220.665 413.001 191.665 401.334 166.998 378.001 c 0
 142.331 354.668 126.998 320.001 120.998 274.001 c 1
 371.998 274.001 l 1
135.998 579.001 m 0
 125.998 589.001 120.998 600.669 120.998 614.002 c 0
 120.998 627.335 125.998 639.168 135.998 649.501 c 0
 145.998 659.834 157.998 665.001 171.998 665.001 c 0
 185.331 665.001 196.998 660.001 206.998 650.001 c 0
 216.998 640.001 221.998 628.001 221.998 614.001 c 0
 221.998 600.668 216.998 589.001 206.998 579.001 c 0
 196.998 569.001 185.331 564.001 171.998 564.001 c 0
 157.998 564.001 145.998 569.001 135.998 579.001 c 0
314.498 578.502 m 0
 304.831 588.169 299.998 600.002 299.998 614.002 c 0
 299.998 628.002 304.831 640.002 314.498 650.002 c 0
 324.165 660.002 335.998 665.002 349.998 665.002 c 0
 363.331 665.002 374.998 660.002 384.998 650.002 c 0
 394.998 640.002 399.998 628.002 399.998 614.002 c 0
 399.998 600.669 394.998 589.002 384.998 579.002 c 0
 374.998 569.002 363.331 564.002 349.998 564.002 c 0
 335.998 564.002 324.165 568.835 314.498 578.502 c 0
EndSplineSet
EndChar

StartChar: igrave
Encoding: 236 236 174
Width: 500
GlyphClass: 2
Flags: W
AnchorPoint: "Anchor-8" 0 0 basechar 0
AnchorPoint: "Anchor-7" 0 0 basechar 0
AnchorPoint: "Anchor-6" 250 457 basechar 0
AnchorPoint: "Anchor-5" 346 0 basechar 0
AnchorPoint: "Anchor-4" 250 0 basechar 0
LayerCount: 2
Fore
SplineSet
100 0 m 1
 100 58 l 1
 217 58 l 1
 217 399 l 1
 106 399 l 1
 106 457 l 1
 289 457 l 1
 289 58 l 1
 396 58 l 1
 396 0 l 1
 100 0 l 1
231 522 m 1
 130 657 l 1
 193 699 l 1
 281 552 l 1
 231 522 l 1
EndSplineSet
EndChar

StartChar: iacute
Encoding: 237 237 175
Width: 500
GlyphClass: 2
Flags: W
AnchorPoint: "Anchor-8" 0 0 basechar 0
AnchorPoint: "Anchor-7" 0 0 basechar 0
AnchorPoint: "Anchor-6" 250 457 basechar 0
AnchorPoint: "Anchor-5" 346 0 basechar 0
AnchorPoint: "Anchor-4" 250 0 basechar 0
LayerCount: 2
Fore
SplineSet
100 0 m 1
 100 58 l 1
 217 58 l 1
 217 399 l 1
 106 399 l 1
 106 457 l 1
 289 457 l 1
 289 58 l 1
 396 58 l 1
 396 0 l 1
 100 0 l 1
246 522 m 1
 208 548 l 1
 292 697 l 1
 347 657 l 1
 246 522 l 1
EndSplineSet
EndChar

StartChar: icircumflex
Encoding: 238 238 176
Width: 500
GlyphClass: 2
Flags: W
AnchorPoint: "Anchor-8" 0 0 basechar 0
AnchorPoint: "Anchor-7" 0 0 basechar 0
AnchorPoint: "Anchor-6" 250 457 basechar 0
AnchorPoint: "Anchor-5" 346 0 basechar 0
AnchorPoint: "Anchor-4" 250 0 basechar 0
LayerCount: 2
Fore
SplineSet
100 0 m 1
 100 58 l 1
 217 58 l 1
 217 399 l 1
 106 399 l 1
 106 457 l 1
 289 457 l 1
 289 58 l 1
 396 58 l 1
 396 0 l 1
 100 0 l 1
323 518 m 1
 235 621 l 1
 140 515 l 1
 104 545 l 1
 225 685 l 1
 247 685 l 1
 367 544 l 1
 323 518 l 1
EndSplineSet
EndChar

StartChar: idieresis
Encoding: 239 239 177
Width: 500
GlyphClass: 2
Flags: W
AnchorPoint: "Anchor-8" 0 0 basechar 0
AnchorPoint: "Anchor-7" 0 0 basechar 0
AnchorPoint: "Anchor-6" 250 457 basechar 0
AnchorPoint: "Anchor-5" 346 0 basechar 0
AnchorPoint: "Anchor-4" 250 0 basechar 0
LayerCount: 2
Fore
SplineSet
100 0 m 1
 100 58 l 1
 217 58 l 1
 217 399 l 1
 106 399 l 1
 106 457 l 1
 289 457 l 1
 289 58 l 1
 396 58 l 1
 396 0 l 1
 100 0 l 1
119 579 m 0
 109 589 104 600.668 104 614.001 c 0
 104 627.334 109 639.167 119 649.5 c 0
 129 659.833 141 665 155 665 c 0
 168.333 665 180 660 190 650 c 0
 200 640 205 628 205 614 c 0
 205 600.667 200 589 190 579 c 0
 180 569 168.333 564 155 564 c 0
 141 564 129 569 119 579 c 0
297.5 578.501 m 0
 287.833 588.168 283 600.001 283 614.001 c 0
 283 628.001 287.833 640.001 297.5 650.001 c 0
 307.167 660.001 319 665.001 333 665.001 c 0
 346.333 665.001 358 660.001 368 650.001 c 0
 378 640.001 383 628.001 383 614.001 c 0
 383 600.668 378 589.001 368 579.001 c 0
 358 569.001 346.333 564.001 333 564.001 c 0
 319 564.001 307.167 568.834 297.5 578.501 c 0
EndSplineSet
EndChar

StartChar: eth
Encoding: 240 240 178
Width: 500
GlyphClass: 2
Flags: W
LayerCount: 2
Fore
SplineSet
148.5 18.5 m 0
 115.5 38.833 89.167 67 69.5 103 c 0
 49.833 139 40 179 40 223 c 0
 40 266.333 49.667 306.666 69 343.999 c 0
 88.333 381.333 113.5 411.166 144.5 433.499 c 0
 175.5 455.832 208 466.999 242 466.999 c 0
 294 466.999 336.333 449.666 369 414.999 c 1
 347 467.666 318.333 513.333 283 552 c 1
 155 516 l 1
 137 564 l 1
 241 592 l 1
 209 618.667 175 640 139 656 c 1
 220 672 l 1
 252 654 281 633.333 307 610 c 1
 415 639 l 1
 432 595 l 1
 347 570 l 1
 422.333 484.667 460 379 460 253 c 0
 460 171.667 442.167 107.167 406.5 59.5 c 0
 370.833 11.833 320.666 -12 256 -12 c 0
 217.333 -12 181.5 -1.83301 148.5 18.5 c 0
349 96 m 0
 374.333 126.667 387.003 171.999 387.003 231.999 c 0
 387.003 291.333 373.67 335.166 347.003 363.499 c 0
 320.336 391.832 289.003 405.999 253.003 405.999 c 0
 230.336 405.999 208.669 399.332 188.002 385.999 c 0
 167.335 372.666 150.335 352.833 137.002 326.5 c 0
 123.669 300.167 117.002 268.667 117.002 232 c 0
 117.002 196.667 123.169 165.167 135.502 137.5 c 0
 147.835 109.833 164.668 88.333 186.001 73 c 0
 207.334 57.667 230.667 50 256 50 c 0
 292.667 50 323.667 65.333 349 96 c 0
EndSplineSet
EndChar

StartChar: ntilde
Encoding: 241 241 179
Width: 500
GlyphClass: 2
Flags: W
AnchorPoint: "Anchor-8" 0 0 basechar 0
AnchorPoint: "Anchor-7" 0 0 basechar 0
AnchorPoint: "Anchor-6" 265 636 basechar 0
AnchorPoint: "Anchor-5" 0 0 basechar 0
AnchorPoint: "Anchor-4" 260 0 basechar 0
LayerCount: 2
Fore
SplineSet
72 457 m 1
 141.999 457 l 1
 141.999 376 l 1
 159.999 404 182.666 426.333 209.999 443 c 0
 237.332 459.667 266.332 468 296.999 468 c 0
 337.666 468 370.166 452.5 394.499 421.5 c 0
 418.832 390.5 430.999 342.333 430.999 277 c 2
 430.999 0 l 1
 360.999 0 l 1
 360.999 275 l 2
 360.999 320.333 353.332 353.333 337.999 374 c 0
 322.666 394.667 302.333 405 277 405 c 0
 256.333 405 235.5 399 214.5 387 c 0
 193.5 375 176.167 358.167 162.5 336.5 c 0
 148.833 314.833 142 290.333 142 263 c 2
 142 0 l 1
 72 0 l 1
 72 457 l 1
435.999 649 m 1
 421.332 621 407.166 601.499 393.5 590.499 c 0
 379.833 579.499 363 573.999 343 573.999 c 0
 329 573.999 316.5 576.499 305.5 581.499 c 0
 294.5 586.499 281.667 593.999 267 603.999 c 0
 254.333 611.999 244.166 617.999 236.499 621.999 c 0
 228.832 625.999 220.332 627.999 210.999 627.999 c 0
 198.999 627.999 188.666 624.499 179.999 617.499 c 0
 171.332 610.499 162.999 598.332 154.999 580.999 c 1
 105.999 602.999 l 1
 115.999 626.999 129.499 646.332 146.499 660.999 c 0
 163.499 675.666 184.332 682.999 208.999 682.999 c 0
 222.999 682.999 234.999 680.499 244.999 675.499 c 0
 254.999 670.499 266.999 663.332 280.999 653.999 c 0
 292.332 645.332 302.332 638.999 310.999 634.999 c 0
 319.666 630.999 328.999 628.999 338.999 628.999 c 0
 349.666 628.999 358.499 632.332 365.499 638.999 c 0
 372.499 645.671 380.666 658.338 389.999 677 c 1
 435.999 649 l 1
EndSplineSet
EndChar

StartChar: ograve
Encoding: 242 242 180
Width: 500
GlyphClass: 2
Flags: W
AnchorPoint: "Anchor-8" 359 436 basechar 0
AnchorPoint: "Anchor-7" 250 229 basechar 0
AnchorPoint: "Anchor-6" 212 671 basechar 0
AnchorPoint: "Anchor-5" 286 10 basechar 0
AnchorPoint: "Anchor-4" 250 0 basechar 0
LayerCount: 2
Fore
SplineSet
141 22 m 0
 109 42 84 70 66 106 c 0
 48 142 39 183 39 229 c 0
 39 275 48 316 66 352 c 0
 84 388 109 416.167 141 436.5 c 0
 173 456.833 209.333 467 250 467 c 0
 290.667 467 327 456.833 359 436.5 c 0
 391 416.167 416 388 434 352 c 0
 452 316 461 275 461 229 c 0
 461 183 452 142 434 106 c 0
 416 70 391 42 359 22 c 0
 327 2 290.667 -8 250 -8 c 0
 209.333 -8 173 2 141 22 c 0
319.5 75 m 0
 339.833 90.333 355.831 111.5 367.498 138.5 c 0
 379.165 165.5 384.998 196 384.998 230 c 0
 384.998 282 372.331 324.5 346.998 357.5 c 0
 321.665 390.5 289.332 407 249.999 407 c 0
 210.666 407 178.333 390.5 153 357.5 c 0
 127.667 324.5 115 282 115 230 c 0
 115 196 120.833 165.5 132.5 138.5 c 0
 144.167 111.5 160.167 90.333 180.5 75 c 0
 200.833 59.667 224 52 250 52 c 0
 276 52 299.167 59.667 319.5 75 c 0
243.998 507 m 1
 142.998 642 l 1
 197.998 682 l 1
 281.998 533 l 1
 243.998 507 l 1
EndSplineSet
EndChar

StartChar: oacute
Encoding: 243 243 181
Width: 500
GlyphClass: 2
Flags: W
AnchorPoint: "Anchor-8" 359 436 basechar 0
AnchorPoint: "Anchor-7" 250 229 basechar 0
AnchorPoint: "Anchor-6" 269 609 basechar 0
AnchorPoint: "Anchor-5" 286 10 basechar 0
AnchorPoint: "Anchor-4" 250 0 basechar 0
LayerCount: 2
Fore
SplineSet
141 22 m 0
 109 42 84 70 66 106 c 0
 48 142 39 183 39 229 c 0
 39 275 48 316 66 352 c 0
 84 388 109 416.167 141 436.5 c 0
 173 456.833 209.333 467 250 467 c 0
 290.667 467 327 456.833 359 436.5 c 0
 391 416.167 416 388 434 352 c 0
 452 316 461 275 461 229 c 0
 461 183 452 142 434 106 c 0
 416 70 391 42 359 22 c 0
 327 2 290.667 -8 250 -8 c 0
 209.333 -8 173 2 141 22 c 0
319.5 75 m 0
 339.833 90.333 355.831 111.5 367.498 138.5 c 0
 379.165 165.5 384.998 196 384.998 230 c 0
 384.998 282 372.331 324.5 346.998 357.5 c 0
 321.665 390.5 289.332 407 249.999 407 c 0
 210.666 407 178.333 390.5 153 357.5 c 0
 127.667 324.5 115 282 115 230 c 0
 115 196 120.833 165.5 132.5 138.5 c 0
 144.167 111.5 160.167 90.333 180.5 75 c 0
 200.833 59.667 224 52 250 52 c 0
 276 52 299.167 59.667 319.5 75 c 0
242.998 507 m 1
 204.998 533 l 1
 288.998 682 l 1
 343.998 642 l 1
 242.998 507 l 1
EndSplineSet
EndChar

StartChar: ocircumflex
Encoding: 244 244 182
Width: 500
GlyphClass: 2
Flags: W
AnchorPoint: "Anchor-8" 359 436 basechar 0
AnchorPoint: "Anchor-7" 250 229 basechar 0
AnchorPoint: "Anchor-6" 395 568 basechar 0
AnchorPoint: "Anchor-5" 286 10 basechar 0
AnchorPoint: "Anchor-4" 250 0 basechar 0
LayerCount: 2
Fore
SplineSet
141 22 m 0
 109 42 84 70 66 106 c 0
 48 142 39 183 39 229 c 0
 39 275 48 316 66 352 c 0
 84 388 109 416.167 141 436.5 c 0
 173 456.833 209.333 467 250 467 c 0
 290.667 467 327 456.833 359 436.5 c 0
 391 416.167 416 388 434 352 c 0
 452 316 461 275 461 229 c 0
 461 183 452 142 434 106 c 0
 416 70 391 42 359 22 c 0
 327 2 290.667 -8 250 -8 c 0
 209.333 -8 173 2 141 22 c 0
319.5 75 m 0
 339.833 90.333 355.831 111.5 367.498 138.5 c 0
 379.165 165.5 384.998 196 384.998 230 c 0
 384.998 282 372.331 324.5 346.998 357.5 c 0
 321.665 390.5 289.332 407 249.999 407 c 0
 210.666 407 178.333 390.5 153 357.5 c 0
 127.667 324.5 115 282 115 230 c 0
 115 196 120.833 165.5 132.5 138.5 c 0
 144.167 111.5 160.167 90.333 180.5 75 c 0
 200.833 59.667 224 52 250 52 c 0
 276 52 299.167 59.667 319.5 75 c 0
138.998 511 m 1
 98.998 545 l 1
 237.998 685 l 1
 261.998 685 l 1
 400.998 545 l 1
 360.998 511 l 1
 249.998 621 l 1
 138.998 511 l 1
EndSplineSet
EndChar

StartChar: otilde
Encoding: 245 245 183
Width: 500
GlyphClass: 2
Flags: W
AnchorPoint: "Anchor-8" 359 436 basechar 0
AnchorPoint: "Anchor-7" 250 229 basechar 0
AnchorPoint: "Anchor-6" 250 636 basechar 0
AnchorPoint: "Anchor-5" 286 10 basechar 0
AnchorPoint: "Anchor-4" 250 0 basechar 0
LayerCount: 2
Fore
SplineSet
141 22 m 0
 109 42 84 70 66 106 c 0
 48 142 39 183 39 229 c 0
 39 275 48 316 66 352 c 0
 84 388 109 416.167 141 436.5 c 0
 173 456.833 209.333 467 250 467 c 0
 290.667 467 327 456.833 359 436.5 c 0
 391 416.167 416 388 434 352 c 0
 452 316 461 275 461 229 c 0
 461 183 452 142 434 106 c 0
 416 70 391 42 359 22 c 0
 327 2 290.667 -8 250 -8 c 0
 209.333 -8 173 2 141 22 c 0
319.5 75 m 0
 339.833 90.333 355.831 111.5 367.498 138.5 c 0
 379.165 165.5 384.998 196 384.998 230 c 0
 384.998 282 372.331 324.5 346.998 357.5 c 0
 321.665 390.5 289.332 407 249.999 407 c 0
 210.666 407 178.333 390.5 153 357.5 c 0
 127.667 324.5 115 282 115 230 c 0
 115 196 120.833 165.5 132.5 138.5 c 0
 144.167 111.5 160.167 90.333 180.5 75 c 0
 200.833 59.667 224 52 250 52 c 0
 276 52 299.167 59.667 319.5 75 c 0
420.998 649 m 1
 406.331 621 392.165 601.499 378.499 590.499 c 0
 364.832 579.499 347.999 573.999 327.999 573.999 c 0
 313.999 573.999 301.499 576.499 290.499 581.499 c 0
 279.499 586.499 266.666 593.999 251.999 603.999 c 0
 239.332 611.999 229.165 617.999 221.498 621.999 c 0
 213.831 625.999 205.331 627.999 195.998 627.999 c 0
 183.998 627.999 173.665 624.499 164.998 617.499 c 0
 156.331 610.499 147.998 598.332 139.998 580.999 c 1
 90.998 602.999 l 1
 100.998 626.999 114.498 646.332 131.498 660.999 c 0
 148.498 675.666 169.331 682.999 193.998 682.999 c 0
 207.998 682.999 219.998 680.499 229.998 675.499 c 0
 239.998 670.499 251.998 663.332 265.998 653.999 c 0
 277.331 645.332 287.331 638.999 295.998 634.999 c 0
 304.665 630.999 313.998 628.999 323.998 628.999 c 0
 334.665 628.999 343.498 632.332 350.498 638.999 c 0
 357.498 645.671 365.665 658.338 374.998 677 c 1
 420.998 649 l 1
EndSplineSet
EndChar

StartChar: odieresis
Encoding: 246 246 184
Width: 500
GlyphClass: 2
Flags: W
AnchorPoint: "Anchor-8" 359 436 basechar 0
AnchorPoint: "Anchor-7" 250 229 basechar 0
AnchorPoint: "Anchor-6" 251 605 basechar 0
AnchorPoint: "Anchor-5" 286 10 basechar 0
AnchorPoint: "Anchor-4" 250 0 basechar 0
LayerCount: 2
Fore
SplineSet
141 22 m 0
 109 42 84 70 66 106 c 0
 48 142 39 183 39 229 c 0
 39 275 48 316 66 352 c 0
 84 388 109 416.167 141 436.5 c 0
 173 456.833 209.333 467 250 467 c 0
 290.667 467 327 456.833 359 436.5 c 0
 391 416.167 416 388 434 352 c 0
 452 316 461 275 461 229 c 0
 461 183 452 142 434 106 c 0
 416 70 391 42 359 22 c 0
 327 2 290.667 -8 250 -8 c 0
 209.333 -8 173 2 141 22 c 0
319.5 75 m 0
 339.833 90.333 355.831 111.5 367.498 138.5 c 0
 379.165 165.5 384.998 196 384.998 230 c 0
 384.998 282 372.331 324.5 346.998 357.5 c 0
 321.665 390.5 289.332 407 249.999 407 c 0
 210.666 407 178.333 390.5 153 357.5 c 0
 127.667 324.5 115 282 115 230 c 0
 115 196 120.833 165.5 132.5 138.5 c 0
 144.167 111.5 160.167 90.333 180.5 75 c 0
 200.833 59.667 224 52 250 52 c 0
 276 52 299.167 59.667 319.5 75 c 0
125.998 579 m 0
 115.998 589 110.998 600.668 110.998 614.001 c 0
 110.998 627.334 115.998 639.167 125.998 649.5 c 0
 135.998 659.833 147.998 665 161.998 665 c 0
 175.331 665 186.998 660 196.998 650 c 0
 206.998 640 211.998 628 211.998 614 c 0
 211.998 600.667 206.998 589 196.998 579 c 0
 186.998 569 175.331 564 161.998 564 c 0
 147.998 564 135.998 569 125.998 579 c 0
304.498 578.501 m 0
 294.831 588.168 289.998 600.001 289.998 614.001 c 0
 289.998 628.001 294.831 640.001 304.498 650.001 c 0
 314.165 660.001 325.998 665.001 339.998 665.001 c 0
 353.331 665.001 364.998 660.001 374.998 650.001 c 0
 384.998 640.001 389.998 628.001 389.998 614.001 c 0
 389.998 600.668 384.998 589.001 374.998 579.001 c 0
 364.998 569.001 353.331 564.001 339.998 564.001 c 0
 325.998 564.001 314.165 568.834 304.498 578.501 c 0
EndSplineSet
EndChar

StartChar: divide
Encoding: 247 247 185
Width: 500
GlyphClass: 2
Flags: W
LayerCount: 2
Fore
SplineSet
224 435 m 0
 215.333 443.667 211 454 211 466 c 0
 211 478.667 215.5 489.5 224.5 498.5 c 0
 233.5 507.5 243.667 512 255 512 c 0
 267 512 277.5 507.333 286.5 498 c 0
 295.5 488.667 300 478 300 466 c 0
 300 454 295.667 443.667 287 435 c 0
 278.333 426.333 267.666 422 255 422 c 0
 243 422 232.667 426.333 224 435 c 0
71 281 m 1
 71 348 l 1
 431 348 l 1
 431 281 l 1
 71 281 l 1
224 127 m 0
 214.667 135.667 210 146 210 158 c 0
 210 171.333 214.667 182.333 224 191 c 0
 233.333 199.667 244 204 256 204 c 0
 267.333 204 277.5 199.333 286.5 190 c 0
 295.5 180.667 300 170 300 158 c 0
 300 146 295.667 135.667 287 127 c 0
 278.333 118.333 268 114 256 114 c 0
 244 114 233.333 118.333 224 127 c 0
EndSplineSet
EndChar

StartChar: oslash
Encoding: 248 248 186
Width: 500
GlyphClass: 2
Flags: W
LayerCount: 2
Fore
SplineSet
70 -37 m 1
 114 43.999 l 1
 64.667 91.332 40 150.332 40 220.999 c 0
 40 267.666 49.833 309.666 69.5 346.999 c 0
 89.167 384.333 115.667 413.666 149 434.999 c 0
 182.333 456.332 218.333 466.999 257 466.999 c 0
 282.333 466.999 308.333 461.332 335 449.999 c 1
 372 518.999 l 1
 425 489.999 l 1
 386 416.999 l 1
 435.333 371.666 460 310.333 460 233 c 0
 460 183 450.833 139.5 432.5 102.5 c 0
 414.167 65.5 389.5 37.167 358.5 17.5 c 0
 327.5 -2.16699 293 -12 255 -12 c 0
 221.667 -12 190.667 -4.66699 162 10 c 1
 122 -64 l 1
 70 -37 l 1
304 392.999 m 1
 287.333 401.666 270 406 252 406 c 0
 228 406 205.5 398.667 184.5 384 c 0
 163.5 369.333 146.833 349 134.5 323 c 0
 122.167 297 116 267.667 116 235 c 0
 116 184.333 127.333 142.666 150 109.999 c 1
 304 392.999 l 1
321.5 71 m 0
 341.833 85 358.001 105.166 370.001 131.499 c 0
 382.001 157.832 388.001 188.332 388.001 222.999 c 0
 388.001 277.666 375.668 321.333 351.001 354 c 1
 194.001 67 l 1
 213.334 55.667 233.667 50 255 50 c 0
 279 50 301.167 57 321.5 71 c 0
EndSplineSet
EndChar

StartChar: ugrave
Encoding: 249 249 187
Width: 500
GlyphClass: 2
Flags: W
AnchorPoint: "Anchor-8" 432 457 basechar 0
AnchorPoint: "Anchor-7" 0 0 basechar 0
AnchorPoint: "Anchor-6" 212 671 basechar 0
AnchorPoint: "Anchor-5" 392 0 basechar 0
AnchorPoint: "Anchor-4" 231 0 basechar 0
LayerCount: 2
Fore
SplineSet
106 42.5 m 0
 77.333 78.167 63.332 131.332 63.999 201.999 c 2
 64.999 456.999 l 1
 134.999 456.999 l 1
 134.999 201.999 l 2
 134.999 147.332 144.499 107.832 163.499 83.499 c 0
 182.499 59.166 207.666 46.999 238.999 46.999 c 0
 273.666 46.999 302.833 60.499 326.5 87.499 c 0
 350.167 114.499 362 153.666 362 204.999 c 2
 362 456.999 l 1
 432 456.999 l 1
 432 70.999 l 2
 432 54.999 432.5 41.832 433.5 31.499 c 0
 434.5 21.166 437.333 10.666 442 -0.000976562 c 1
 373 -0.000976562 l 1
 368.333 9.99902 365.5 20.332 364.5 30.999 c 0
 363.5 41.666 363 54.666 363 69.999 c 1
 348.333 44.666 328.5 24.833 303.5 10.5 c 0
 278.5 -3.83301 251 -11 221 -11 c 0
 173 -11 134.667 6.83301 106 42.5 c 0
243.999 506.998 m 1
 142.999 641.998 l 1
 197.999 681.998 l 1
 281.999 532.998 l 1
 243.999 506.998 l 1
EndSplineSet
EndChar

StartChar: uacute
Encoding: 250 250 188
Width: 500
GlyphClass: 2
Flags: W
AnchorPoint: "Anchor-8" 432 457 basechar 0
AnchorPoint: "Anchor-7" 0 0 basechar 0
AnchorPoint: "Anchor-6" 269 609 basechar 0
AnchorPoint: "Anchor-5" 392 0 basechar 0
AnchorPoint: "Anchor-4" 231 0 basechar 0
LayerCount: 2
Fore
SplineSet
106 42.5 m 0
 77.333 78.167 63.332 131.332 63.999 201.999 c 2
 64.999 456.999 l 1
 134.999 456.999 l 1
 134.999 201.999 l 2
 134.999 147.332 144.499 107.832 163.499 83.499 c 0
 182.499 59.166 207.666 46.999 238.999 46.999 c 0
 273.666 46.999 302.833 60.499 326.5 87.499 c 0
 350.167 114.499 362 153.666 362 204.999 c 2
 362 456.999 l 1
 432 456.999 l 1
 432 70.999 l 2
 432 54.999 432.5 41.832 433.5 31.499 c 0
 434.5 21.166 437.333 10.666 442 -0.000976562 c 1
 373 -0.000976562 l 1
 368.333 9.99902 365.5 20.332 364.5 30.999 c 0
 363.5 41.666 363 54.666 363 69.999 c 1
 348.333 44.666 328.5 24.833 303.5 10.5 c 0
 278.5 -3.83301 251 -11 221 -11 c 0
 173 -11 134.667 6.83301 106 42.5 c 0
242.999 506.998 m 1
 204.999 532.998 l 1
 288.999 681.998 l 1
 343.999 641.998 l 1
 242.999 506.998 l 1
EndSplineSet
EndChar

StartChar: ucircumflex
Encoding: 251 251 189
Width: 500
GlyphClass: 2
Flags: W
AnchorPoint: "Anchor-8" 432 457 basechar 0
AnchorPoint: "Anchor-7" 0 0 basechar 0
AnchorPoint: "Anchor-6" 395 568 basechar 0
AnchorPoint: "Anchor-5" 392 0 basechar 0
AnchorPoint: "Anchor-4" 231 0 basechar 0
LayerCount: 2
Fore
SplineSet
106 42.5 m 0
 77.333 78.167 63.332 131.332 63.999 201.999 c 2
 64.999 456.999 l 1
 134.999 456.999 l 1
 134.999 201.999 l 2
 134.999 147.332 144.499 107.832 163.499 83.499 c 0
 182.499 59.166 207.666 46.999 238.999 46.999 c 0
 273.666 46.999 302.833 60.499 326.5 87.499 c 0
 350.167 114.499 362 153.666 362 204.999 c 2
 362 456.999 l 1
 432 456.999 l 1
 432 70.999 l 2
 432 54.999 432.5 41.832 433.5 31.499 c 0
 434.5 21.166 437.333 10.666 442 -0.000976562 c 1
 373 -0.000976562 l 1
 368.333 9.99902 365.5 20.332 364.5 30.999 c 0
 363.5 41.666 363 54.666 363 69.999 c 1
 348.333 44.666 328.5 24.833 303.5 10.5 c 0
 278.5 -3.83301 251 -11 221 -11 c 0
 173 -11 134.667 6.83301 106 42.5 c 0
138.999 510.998 m 1
 98.999 544.998 l 1
 237.999 684.998 l 1
 261.999 684.998 l 1
 400.999 544.998 l 1
 360.999 510.998 l 1
 249.999 620.998 l 1
 138.999 510.998 l 1
EndSplineSet
EndChar

StartChar: udieresis
Encoding: 252 252 190
Width: 500
GlyphClass: 2
Flags: W
AnchorPoint: "Anchor-8" 432 457 basechar 0
AnchorPoint: "Anchor-7" 0 0 basechar 0
AnchorPoint: "Anchor-6" 251 605 basechar 0
AnchorPoint: "Anchor-5" 392 0 basechar 0
AnchorPoint: "Anchor-4" 231 0 basechar 0
LayerCount: 2
Fore
SplineSet
106 42.5 m 0
 77.333 78.167 63.332 131.332 63.999 201.999 c 2
 64.999 456.999 l 1
 134.999 456.999 l 1
 134.999 201.999 l 2
 134.999 147.332 144.499 107.832 163.499 83.499 c 0
 182.499 59.166 207.666 46.999 238.999 46.999 c 0
 273.666 46.999 302.833 60.499 326.5 87.499 c 0
 350.167 114.499 362 153.666 362 204.999 c 2
 362 456.999 l 1
 432 456.999 l 1
 432 70.999 l 2
 432 54.999 432.5 41.832 433.5 31.499 c 0
 434.5 21.166 437.333 10.666 442 -0.000976562 c 1
 373 -0.000976562 l 1
 368.333 9.99902 365.5 20.332 364.5 30.999 c 0
 363.5 41.666 363 54.666 363 69.999 c 1
 348.333 44.666 328.5 24.833 303.5 10.5 c 0
 278.5 -3.83301 251 -11 221 -11 c 0
 173 -11 134.667 6.83301 106 42.5 c 0
125.999 578.998 m 0
 115.999 588.998 110.999 600.666 110.999 613.999 c 0
 110.999 627.332 115.999 639.165 125.999 649.498 c 0
 135.999 659.831 147.999 664.998 161.999 664.998 c 0
 175.332 664.998 186.999 659.998 196.999 649.998 c 0
 206.999 639.998 211.999 627.998 211.999 613.998 c 0
 211.999 600.665 206.999 588.998 196.999 578.998 c 0
 186.999 568.998 175.332 563.998 161.999 563.998 c 0
 147.999 563.998 135.999 568.998 125.999 578.998 c 0
304.499 578.499 m 0
 294.832 588.166 289.999 599.999 289.999 613.999 c 0
 289.999 627.999 294.832 639.999 304.499 649.999 c 0
 314.166 659.999 325.999 664.999 339.999 664.999 c 0
 353.332 664.999 364.999 659.999 374.999 649.999 c 0
 384.999 639.999 389.999 627.999 389.999 613.999 c 0
 389.999 600.666 384.999 588.999 374.999 578.999 c 0
 364.999 568.999 353.332 563.999 339.999 563.999 c 0
 325.999 563.999 314.166 568.832 304.499 578.499 c 0
EndSplineSet
EndChar

StartChar: yacute
Encoding: 253 253 191
Width: 500
GlyphClass: 2
Flags: W
AnchorPoint: "Anchor-8" 0 0 basechar 0
AnchorPoint: "Anchor-7" 0 0 basechar 0
AnchorPoint: "Anchor-6" 272 609 basechar 0
AnchorPoint: "Anchor-5" 0 0 basechar 0
AnchorPoint: "Anchor-4" 370 0 basechar 0
LayerCount: 2
Fore
SplineSet
443 457 m 1
 439 429.667 432.832 402.667 424.499 376 c 0
 416.166 349.333 404.333 314 389 270 c 2
 275 -52 l 2
 259.667 -94.667 239.667 -125.667 215 -145 c 0
 190.333 -164.333 161 -174 127 -174 c 0
 84.333 -174 49.333 -161 22 -135 c 1
 53 -86 l 1
 54 -85 l 1
 55 -86 l 2
 65.667 -96 77 -103.333 89 -108 c 0
 101 -112.667 115 -115 131 -115 c 0
 155.667 -115 175.334 -106.333 190 -89 c 0
 204.667 -71.667 219 -43 233 -3 c 1
 46 457 l 1
 121 457 l 1
 263 91 l 1
 323 275 l 2
 337.667 321 348.5 356.167 355.5 380.5 c 0
 362.5 404.833 367.667 430.333 371 457 c 1
 443 457 l 1
64.999 -82 m 2
 64.999 -83.333 64.332 -84 62.999 -84 c 2
 54.999 -82 l 1
 58.999 -77 l 1
 64.999 -81 l 1
 64.999 -82 l 2
51.499 -81 m 0
 53.166 -81.667 54.333 -82 54.999 -82 c 2
 53.999 -85 l 1
 50.665 -81.667 49.832 -80.334 51.499 -81 c 0
245.999 507 m 1
 207.999 533 l 1
 291.999 682 l 1
 346.999 642 l 1
 245.999 507 l 1
EndSplineSet
EndChar

StartChar: thorn
Encoding: 254 254 192
Width: 500
GlyphClass: 2
Flags: W
LayerCount: 2
Fore
SplineSet
60 665 m 1
 139.999 664.998 l 1
 139.999 660.331 138.832 653.831 136.499 645.498 c 0
 134.166 637.16 132.999 629.327 132.999 621.999 c 2
 132.999 386.999 l 1
 148.332 410.999 168.832 430.332 194.499 444.999 c 0
 220.166 459.666 245.999 466.999 271.999 466.999 c 0
 306.666 466.999 338.499 458.166 367.499 440.499 c 0
 396.499 422.832 419.666 396.332 436.999 360.999 c 0
 454.332 325.666 462.999 282.666 462.999 231.999 c 0
 462.999 180.666 453.999 136.499 435.999 99.499 c 0
 417.999 62.499 394.332 34.666 364.999 15.999 c 0
 335.666 -2.66797 304.333 -12.001 271 -12.001 c 0
 243 -12.001 217 -5.66797 193 6.99902 c 0
 169 19.666 149.333 37.333 134 60 c 1
 134 -167 l 1
 60 -167 l 1
 60 665 l 1
350.499 90.998 m 0
 375.499 116.998 387.999 159.665 387.999 218.998 c 0
 387.999 277.665 376.666 323.498 353.999 356.498 c 0
 331.332 389.498 299.665 405.998 258.999 405.998 c 0
 220.999 405.998 190.499 389.998 167.499 357.998 c 0
 144.499 325.998 132.999 279.998 132.999 219.998 c 1
 134.332 159.998 145.499 116.998 166.499 90.998 c 0
 187.499 64.998 217.332 51.998 255.999 51.998 c 0
 293.999 51.998 325.499 64.998 350.499 90.998 c 0
EndSplineSet
EndChar

StartChar: ydieresis
Encoding: 255 255 193
Width: 500
GlyphClass: 2
Flags: W
AnchorPoint: "Anchor-8" 0 0 basechar 0
AnchorPoint: "Anchor-7" 0 0 basechar 0
AnchorPoint: "Anchor-6" 254 605 basechar 0
AnchorPoint: "Anchor-5" 0 0 basechar 0
AnchorPoint: "Anchor-4" 370 0 basechar 0
LayerCount: 2
Fore
SplineSet
443 457 m 1
 439 429.667 432.832 402.667 424.499 376 c 0
 416.166 349.333 404.333 314 389 270 c 2
 275 -52 l 2
 259.667 -94.667 239.667 -125.667 215 -145 c 0
 190.333 -164.333 161 -174 127 -174 c 0
 84.333 -174 49.333 -161 22 -135 c 1
 53 -86 l 1
 54 -85 l 1
 55 -86 l 2
 65.667 -96 77 -103.333 89 -108 c 0
 101 -112.667 115 -115 131 -115 c 0
 155.667 -115 175.334 -106.333 190 -89 c 0
 204.667 -71.667 219 -43 233 -3 c 1
 46 457 l 1
 121 457 l 1
 263 91 l 1
 323 275 l 2
 337.667 321 348.5 356.167 355.5 380.5 c 0
 362.5 404.833 367.667 430.333 371 457 c 1
 443 457 l 1
64.999 -82 m 2
 64.999 -83.333 64.332 -84 62.999 -84 c 2
 54.999 -82 l 1
 58.999 -77 l 1
 64.999 -81 l 1
 64.999 -82 l 2
51.499 -81 m 0
 53.166 -81.667 54.333 -82 54.999 -82 c 2
 53.999 -85 l 1
 50.665 -81.667 49.832 -80.334 51.499 -81 c 0
128.999 579 m 0
 118.999 589 113.999 600.668 113.999 614.001 c 0
 113.999 627.334 118.999 639.167 128.999 649.5 c 0
 138.999 659.833 150.999 665 164.999 665 c 0
 178.332 665 189.999 660 199.999 650 c 0
 209.999 640 214.999 628 214.999 614 c 0
 214.999 600.667 209.999 589 199.999 579 c 0
 189.999 569 178.332 564 164.999 564 c 0
 150.999 564 138.999 569 128.999 579 c 0
307.499 578.501 m 0
 297.832 588.168 292.999 600.001 292.999 614.001 c 0
 292.999 628.001 297.832 640.001 307.499 650.001 c 0
 317.166 660.001 328.999 665.001 342.999 665.001 c 0
 356.332 665.001 367.999 660.001 377.999 650.001 c 0
 387.999 640.001 392.999 628.001 392.999 614.001 c 0
 392.999 600.668 387.999 589.001 377.999 579.001 c 0
 367.999 569.001 356.332 564.001 342.999 564.001 c 0
 328.999 564.001 317.166 568.834 307.499 578.501 c 0
EndSplineSet
EndChar

StartChar: Amacron
Encoding: 256 256 194
Width: 500
GlyphClass: 2
Flags: W
AnchorPoint: "Anchor-8" 0 0 basechar 0
AnchorPoint: "Anchor-7" 0 0 basechar 0
AnchorPoint: "Anchor-6" 250 777 basechar 0
AnchorPoint: "Anchor-5" 414 0 basechar 0
AnchorPoint: "Anchor-4" 250 0 basechar 0
LayerCount: 2
Fore
SplineSet
412 0 m 1
 349 182 l 1
 148 182 l 1
 85 0 l 1
 16 0 l 1
 246 634 l 1
 254 634 l 1
 484 0 l 1
 412 0 l 1
167 236 m 1
 331 236 l 1
 249 474 l 1
 167 236 l 1
123 731 m 1
 123 787 l 1
 377 787 l 1
 377 731 l 1
 123 731 l 1
EndSplineSet
EndChar

StartChar: amacron
Encoding: 257 257 195
Width: 500
GlyphClass: 2
Flags: W
AnchorPoint: "Anchor-8" 0 0 basechar 0
AnchorPoint: "Anchor-7" 0 0 basechar 0
AnchorPoint: "Anchor-6" 250 611 basechar 0
AnchorPoint: "Anchor-5" 385 0 basechar 0
AnchorPoint: "Anchor-4" 250 0 basechar 0
LayerCount: 2
Fore
SplineSet
393.5 416 m 0
 427.833 382 445.001 324.333 445.001 243 c 2
 445.001 0 l 1
 367.001 0 l 1
 367.001 70 l 1
 339.001 16 287.001 -11 211.001 -11 c 0
 160.334 -11 120.667 0.5 92 23.5 c 0
 63.333 46.5 49 77 49 115 c 0
 49 147 59.333 175 80 199 c 0
 100.667 223 128.5 241.5 163.5 254.5 c 0
 198.5 267.5 237 274 279 274 c 0
 317 274 351.333 272 382 268 c 1
 378 319.333 364.5 355.5 341.5 376.5 c 0
 318.5 397.5 284.333 408 239 408 c 0
 216.333 408 194.5 403.667 173.5 395 c 0
 152.5 386.332 133.333 373.665 116 357 c 1
 81 403 l 1
 123.667 445.667 178 467 244 467 c 0
 309.334 467 359.167 450 393.5 416 c 0
335.001 87.5 m 0
 363.668 116.5 379.334 158.333 382.001 213 c 1
 352.001 217.667 319.668 220 285.001 220 c 0
 234.334 220 194.334 211.667 165.001 195 c 0
 135.668 178.333 121.001 153 121.001 119 c 0
 121.001 69 153.334 44 218.001 44 c 0
 267.334 44 306.334 58.5 335.001 87.5 c 0
123 565 m 1
 123 621 l 1
 377 621 l 1
 377 565 l 1
 123 565 l 1
EndSplineSet
EndChar

StartChar: Abreve
Encoding: 258 258 196
Width: 500
GlyphClass: 2
Flags: W
AnchorPoint: "Anchor-8" 0 0 basechar 0
AnchorPoint: "Anchor-7" 0 0 basechar 0
AnchorPoint: "Anchor-6" 250 787 basechar 0
AnchorPoint: "Anchor-5" 414 0 basechar 0
AnchorPoint: "Anchor-4" 250 0 basechar 0
LayerCount: 2
Fore
SplineSet
412 0 m 1
 349 182 l 1
 148 182 l 1
 85 0 l 1
 16 0 l 1
 246 634 l 1
 254 634 l 1
 484 0 l 1
 412 0 l 1
167 236 m 1
 331 236 l 1
 249 474 l 1
 167 236 l 1
392 763 m 1
 376.667 733.667 356.83 711 332.497 695 c 0
 308.164 679 280.664 671 249.997 671 c 0
 219.33 671 191.83 679 167.497 695 c 0
 143.164 711 123.331 733.667 107.998 763 c 1
 159.998 787 l 1
 170.665 763.667 183.332 746.5 197.999 735.5 c 0
 212.666 724.5 229.999 719 249.999 719 c 0
 269.999 719 287.332 724.5 301.999 735.5 c 0
 316.666 746.5 329.333 763.667 340 787 c 1
 392 763 l 1
EndSplineSet
EndChar

StartChar: abreve
Encoding: 259 259 197
Width: 500
GlyphClass: 2
Flags: W
AnchorPoint: "Anchor-8" 0 0 basechar 0
AnchorPoint: "Anchor-7" 0 0 basechar 0
AnchorPoint: "Anchor-6" 250 654 basechar 0
AnchorPoint: "Anchor-5" 385 0 basechar 0
AnchorPoint: "Anchor-4" 250 0 basechar 0
LayerCount: 2
Fore
SplineSet
393.5 416 m 0
 427.833 382 445.001 324.333 445.001 243 c 2
 445.001 0 l 1
 367.001 0 l 1
 367.001 70 l 1
 339.001 16 287.001 -11 211.001 -11 c 0
 160.334 -11 120.667 0.5 92 23.5 c 0
 63.333 46.5 49 77 49 115 c 0
 49 147 59.333 175 80 199 c 0
 100.667 223 128.5 241.5 163.5 254.5 c 0
 198.5 267.5 237 274 279 274 c 0
 317 274 351.333 272 382 268 c 1
 378 319.333 364.5 355.5 341.5 376.5 c 0
 318.5 397.5 284.333 408 239 408 c 0
 216.333 408 194.5 403.667 173.5 395 c 0
 152.5 386.332 133.333 373.665 116 357 c 1
 81 403 l 1
 123.667 445.667 178 467 244 467 c 0
 309.334 467 359.167 450 393.5 416 c 0
335.001 87.5 m 0
 363.668 116.5 379.334 158.333 382.001 213 c 1
 352.001 217.667 319.668 220 285.001 220 c 0
 234.334 220 194.334 211.667 165.001 195 c 0
 135.668 178.333 121.001 153 121.001 119 c 0
 121.001 69 153.334 44 218.001 44 c 0
 267.334 44 306.334 58.5 335.001 87.5 c 0
392 630 m 1
 376.667 600.667 356.83 578 332.497 562 c 0
 308.164 546 280.664 538 249.997 538 c 0
 219.33 538 191.83 546 167.497 562 c 0
 143.164 578 123.331 600.667 107.998 630 c 1
 159.998 654 l 1
 170.665 630.667 183.332 613.5 197.999 602.5 c 0
 212.666 591.5 229.999 586 249.999 586 c 0
 269.999 586 287.332 591.5 301.999 602.5 c 0
 316.666 613.5 329.333 630.667 340 654 c 1
 392 630 l 1
EndSplineSet
EndChar

